<?xml version="1.0" standalone="no"?>
<!DOCTYPE svg PUBLIC "-//W3C//DTD SVG 1.1//EN" "http://www.w3.org/Graphics/SVG/1.1/DTD/svg11.dtd" >
<svg>
<metadata>
Created by FontForge 20090622 at Mon Jun 11 15:36:33 2018
 By deploy user
Copyright &#194;&#169; 2015 by Wei Huang. All rights reserved.
</metadata>
<defs>
<font id="WorkSans-SemiBold" horiz-adv-x="604" >
  <font-face 
    font-family="Work Sans SemiBold"
    font-weight="600"
    font-stretch="normal"
    units-per-em="1000"
    panose-1="0 0 7 0 0 0 0 0 0 0"
    ascent="800"
    descent="-200"
    x-height="500"
    cap-height="660"
    bbox="-340 -339 1281 924"
    underline-thickness="50"
    underline-position="-50"
    unicode-range="U+0020-U+FB02"
  />
<missing-glyph horiz-adv-x="500" 
d="M50 660h400v-660h-400v660zM370 80v500h-240v-500h240z" />
    <glyph glyph-name="fi" unicode="fi" horiz-adv-x="689" 
d="M239 500h158v-102h-152v-398h-137v398h-87v102h87v60q0 82 51 125.5t138 43.5q33 0 60.5 -7t43.5 -19l-19 -91q-23 15 -57 15q-86 0 -86 -77v-50zM463 645q0 74 85 74t85 -74q0 -73 -85 -73t-85 73zM616 0h-137v500h137v-500z" />
    <glyph glyph-name="fl" unicode="fl" horiz-adv-x="726" 
d="M239 500h158v-102h-152v-398h-137v398h-87v102h87v60q0 82 51 125.5t138 43.5q33 0 60.5 -7t43.5 -19l-19 -91q-23 15 -57 15q-86 0 -86 -77v-50zM614 159q0 -36 10.5 -50t38.5 -14q17 0 29.5 2.5t29.5 8.5l-12 -95q-16 -10 -42 -15.5t-51 -5.5q-73 0 -106.5 35.5
t-33.5 113.5v580h137v-560z" />
    <glyph glyph-name="f_t.liga" unicode="ft" horiz-adv-x="780" 
d="M766 31q-24 -19 -60 -30t-76 -11q-167 0 -168 151v257h-217v-398h-137v398h-87v102h87v60q0 82 50 126t133 44q31 0 56 -7t41 -19l-15 -91q-23 14 -54 14q-80 0 -80 -77v-50h223v115l137 38v-153h163v-102h-163v-235q0 -35 18.5 -52t51.5 -17q43 0 76 28z" />
    <glyph glyph-name="g_j.liga" unicode="gj" horiz-adv-x="849" 
d="M646 591q-22 19 -22 54t22 54.5t63 19.5t63 -19.5t22 -54.5t-22 -54t-63 -19t-63 19zM529 522q-36 0 -59 -14t-31 -38q65 -44 65 -130q0 -80 -58.5 -124.5t-167.5 -44.5q-49 0 -88 9q-46 -10 -46 -43q0 -43 77 -43h133q84 0 129.5 -36t45.5 -103q0 -80 -70.5 -125
t-187.5 -45q-120 0 -183 33t-63 90q0 35 21 61.5t63 38.5q-30 15 -48 39.5t-18 57.5q0 35 21.5 61.5t58.5 39.5q-37 21 -56.5 55t-19.5 79q0 80 61 125t170 45q56 0 103 -13q9 56 48.5 91t101.5 31l18 -98q-7 1 -20 1zM641 500h137v-540q0 -96 -47 -135.5t-121 -39.5
q-44 0 -76 13l20 105q18 -11 43 -11q23 0 33.5 17.5t10.5 58.5v532zM345 280q25 22 25 61q0 38 -25 60t-69 22q-45 0 -70 -22t-25 -60q0 -39 25 -61t70 -22q44 0 69 22zM221 -17q-88 0 -88 -47q0 -27 36.5 -42t108.5 -15q67 0 103.5 17.5t36.5 44.5q0 21 -18 31.5t-61 10.5
h-118z" />
    <glyph glyph-name="j_j.liga" unicode="jj" horiz-adv-x="562" 
d="M204 699.5q22 -19.5 22 -54.5t-22 -54t-63 -19t-63 19t-22 54t22 54.5t63 19.5t63 -19.5zM485.5 700q21.5 -19 21.5 -55q0 -35 -21.5 -54t-63.5 -19q-41 0 -63 19t-22 54t22 54.5t63 19.5q42 0 63.5 -19zM209 -37q0 -93 -48 -135.5t-130 -42.5q-72 0 -120 32l22 98
q27 -24 70 -24q34 0 51.5 20t17.5 65v524h137v-537zM491 -40q0 -96 -52 -135.5t-128 -39.5q-54 0 -96 26l21 104q27 -23 62 -23q56 0 56 76v532h137v-540z" />
    <glyph glyph-name="t_t.liga" unicode="tt" horiz-adv-x="799" 
d="M786 31q-25 -19 -61 -30t-76 -11q-167 0 -168 151v257h-233v-235q0 -36 15.5 -52.5t47.5 -16.5q23 0 40.5 7t33.5 22l22 -92q-23 -19 -58.5 -30t-74.5 -11q-76 0 -119.5 36t-43.5 115v257h-91v102h91v115l137 38v-153h233v115l137 38v-153h163v-102h-163v-235
q0 -35 18.5 -52t51.5 -17q43 0 76 28z" />
    <glyph glyph-name=".notdef" horiz-adv-x="500" 
d="M50 660h400v-660h-400v660zM370 80v500h-240v-500h240z" />
    <glyph glyph-name="space" unicode=" " horiz-adv-x="306" 
 />
    <glyph glyph-name="A" unicode="A" horiz-adv-x="671" 
d="M461 161h-254l-54 -161h-141l241 660h165l241 -660h-143zM427 263l-62 186l-30 100h-2l-28 -98l-64 -188h186z" />
    <glyph glyph-name="Aacute" unicode="&#xc1;" horiz-adv-x="671" 
d="M377 730h-103l56 155h136zM461 161h-254l-54 -161h-141l241 660h165l241 -660h-143zM427 263l-62 186l-30 100h-2l-28 -98l-64 -188h186z" />
    <glyph glyph-name="Abreve" unicode="&#x102;" horiz-adv-x="671" 
d="M461 161h-254l-54 -161h-141l241 660h165l241 -660h-143zM427 263l-62 186l-30 100h-2l-28 -98l-64 -188h186zM452.5 765.5q-43.5 -42.5 -117.5 -42.5t-117.5 42.5t-43.5 114.5h93q0 -32 19 -53.5t49 -21.5t49 21.5t19 53.5h93q0 -72 -43.5 -114.5z" />
    <glyph glyph-name="Acircumflex" unicode="&#xc2;" horiz-adv-x="671" 
d="M261 726h-106l111 167h138l111 -167h-106l-74 98zM461 161h-254l-54 -161h-141l241 660h165l241 -660h-143zM427 263l-62 186l-30 100h-2l-28 -98l-64 -188h186z" />
    <glyph glyph-name="Adieresis" unicode="&#xc4;" horiz-adv-x="671" 
d="M461 161h-254l-54 -161h-141l241 660h165l241 -660h-143zM427 263l-62 186l-30 100h-2l-28 -98l-64 -188h186zM284 846q20 -19 20 -51t-20 -51t-55 -19q-34 0 -54 19t-20 51t20 51t54 19q35 0 55 -19zM494.5 846q20.5 -19 20.5 -51t-20.5 -51t-55.5 -19q-34 0 -54 19
t-20 51t20 51t54 19q35 0 55.5 -19z" />
    <glyph glyph-name="Agrave" unicode="&#xc0;" horiz-adv-x="671" 
d="M280 730l-89 155h136l56 -155h-103zM461 161h-254l-54 -161h-141l241 660h165l241 -660h-143zM427 263l-62 186l-30 100h-2l-28 -98l-64 -188h186z" />
    <glyph glyph-name="Amacron" unicode="&#x100;" horiz-adv-x="671" 
d="M461 161h-254l-54 -161h-141l241 660h165l241 -660h-143zM427 263l-62 186l-30 100h-2l-28 -98l-64 -188h186zM517 739h-364v91h364v-91z" />
    <glyph glyph-name="Aogonek" unicode="&#x104;" horiz-adv-x="671" 
d="M668 -193q-33 -22 -96 -22q-59 0 -95.5 28.5t-36.5 81.5q0 70 74 109l-53 157h-254l-54 -161h-141l241 660h165l241 -660q-67 -16 -93.5 -37t-26.5 -50q0 -22 16 -34.5t43 -12.5q33 0 50 11zM427 263l-62 186l-30 100h-2l-28 -98l-64 -188h186z" />
    <glyph glyph-name="Aring" unicode="&#xc5;" horiz-adv-x="671" 
d="M461 161h-254l-54 -161h-141l235 634q-25 15 -38.5 40t-13.5 58q0 57 38.5 91.5t102.5 34.5q65 0 103 -34.5t38 -91.5q0 -32 -14 -57.5t-39 -40.5l235 -634h-143zM290.5 773q-17.5 -17 -17.5 -44t17.5 -44t45.5 -17t45.5 17t17.5 44t-17.5 44t-45.5 17t-45.5 -17z
M427 263l-62 186l-29 100h-3l-28 -98l-64 -188h186z" />
    <glyph glyph-name="Atilde" unicode="&#xc3;" horiz-adv-x="671" 
d="M461 161h-254l-54 -161h-141l241 660h165l241 -660h-143zM427 263l-62 186l-30 100h-2l-28 -98l-64 -188h186zM491.5 765.5q-31.5 -37.5 -89.5 -37.5q-29 0 -48.5 10t-40.5 28q-14 12 -23.5 17.5t-20.5 5.5q-18 0 -28 -15t-14 -46h-84q8 150 126 150q29 0 48 -10t40 -28
q15 -12 24 -17.5t20 -5.5q18 0 28 15t14 46h84q-4 -75 -35.5 -112.5z" />
    <glyph glyph-name="AE" unicode="&#xc6;" horiz-adv-x="935" 
d="M897 108v-108h-465v202h-200l-91 -202h-141l321 660h562v-108h-320v-168h244v-103h-244v-173h334zM432 301v254h-40l-115 -254h155z" />
    <glyph glyph-name="B" unicode="B" horiz-adv-x="672" 
d="M86 660h289q118 0 176 -46.5t58 -133.5q0 -55 -33 -95.5t-93 -50.5v-1q68 -10 105.5 -51.5t37.5 -100.5q0 -86 -62 -133.5t-179 -47.5h-299v660zM356 383q110 0 110 85t-110 85h-136v-170h136zM373 104q55 0 82.5 22.5t27.5 64.5t-27.5 64t-82.5 22h-153v-173h153z" />
    <glyph glyph-name="C" unicode="C" horiz-adv-x="683" 
d="M548 38.5q-74 -48.5 -177 -48.5q-97 0 -169 41t-110.5 117.5t-38.5 181.5t38.5 181.5t110 117.5t167.5 41q103 0 174.5 -43t98.5 -128l-125 -53q-16 59 -50 85t-92 26q-84 0 -131.5 -59t-47.5 -168t46 -168t130 -59q121 0 152 117l127 -38q-29 -95 -103 -143.5z" />
    <glyph glyph-name="Cacute" unicode="&#x106;" horiz-adv-x="683" 
d="M497 885l-89 -155h-103l56 155h136zM548 38.5q-74 -48.5 -177 -48.5q-97 0 -169 41t-110.5 117.5t-38.5 181.5t38.5 181.5t110 117.5t167.5 41q103 0 174.5 -43t98.5 -128l-125 -53q-16 59 -50 85t-92 26q-84 0 -131.5 -59t-47.5 -168t46 -168t130 -59q121 0 152 117
l127 -38q-29 -95 -103 -143.5z" />
    <glyph glyph-name="Ccaron" unicode="&#x10c;" horiz-adv-x="683" 
d="M433 727h-138l-111 167h106l74 -98l74 98h106zM548 38.5q-74 -48.5 -177 -48.5q-97 0 -169 41t-110.5 117.5t-38.5 181.5t38.5 181.5t110 117.5t167.5 41q103 0 174.5 -43t98.5 -128l-125 -53q-16 59 -50 85t-92 26q-84 0 -131.5 -59t-47.5 -168t46 -168t130 -59
q121 0 152 117l127 -38q-29 -95 -103 -143.5z" />
    <glyph glyph-name="Ccedilla" unicode="&#xc7;" horiz-adv-x="683" 
d="M572 57q-55 -47 -133 -61q27 -19 41 -44t14 -53q0 -53 -36.5 -83.5t-96.5 -30.5q-78 0 -119 38l36 71q13 -14 31.5 -22t39.5 -8q24 0 39.5 14.5t15.5 38.5q0 25 -15 42t-56 33q-131 11 -205.5 100.5t-74.5 237.5q0 105 38.5 181.5t110 117.5t167.5 41q103 0 174.5 -43
t98.5 -128l-125 -53q-16 59 -50 85t-92 26q-84 0 -131.5 -59t-47.5 -168t46 -168t130 -59q121 0 152 117l127 -38q-24 -78 -79 -125z" />
    <glyph glyph-name="D" unicode="D" horiz-adv-x="719" 
d="M581 574q85 -86 85 -244t-85 -244t-240 -86h-255v660h255q155 0 240 -86zM475.5 166.5q47.5 56.5 47.5 163.5t-47.5 163.5t-141.5 56.5h-110v-440h110q94 0 141.5 56.5z" />
    <glyph glyph-name="Eth" unicode="&#xd0;" horiz-adv-x="740" 
d="M601.5 574q84.5 -86 84.5 -244t-84.5 -244t-239.5 -86h-255v284h-89v94h89v282h255q155 0 239.5 -86zM496 166.5q48 56.5 48 163.5t-48 163.5t-142 56.5h-109v-172h154v-94h-154v-174h109q94 0 142 56.5z" />
    <glyph glyph-name="Dcaron" unicode="&#x10e;" horiz-adv-x="719" 
d="M256 727l-111 167h106l74 -98l74 98h106l-111 -167h-138zM581 574q85 -86 85 -244t-85 -244t-240 -86h-255v660h255q155 0 240 -86zM475.5 166.5q47.5 56.5 47.5 163.5t-47.5 163.5t-141.5 56.5h-110v-440h110q94 0 141.5 56.5z" />
    <glyph glyph-name="Dcroat" unicode="&#x110;" horiz-adv-x="740" 
d="M601.5 574q84.5 -86 84.5 -244t-84.5 -244t-239.5 -86h-255v284h-89v94h89v282h255q155 0 239.5 -86zM496 166.5q48 56.5 48 163.5t-48 163.5t-142 56.5h-109v-172h154v-94h-154v-174h109q94 0 142 56.5z" />
    <glyph glyph-name="E" unicode="E" horiz-adv-x="633" 
d="M595 111v-111h-509v660h495v-111h-357v-164h281v-106h-281v-168h371z" />
    <glyph glyph-name="Eacute" unicode="&#xc9;" horiz-adv-x="633" 
d="M371 730h-103l56 155h136zM595 111v-111h-509v660h495v-111h-357v-164h281v-106h-281v-168h371z" />
    <glyph glyph-name="Ecaron" unicode="&#x11a;" horiz-adv-x="633" 
d="M258 727l-111 167h106l74 -98l74 98h106l-111 -167h-138zM595 111v-111h-509v660h495v-111h-357v-164h281v-106h-281v-168h371z" />
    <glyph glyph-name="Ecircumflex" unicode="&#xca;" horiz-adv-x="633" 
d="M255 726h-106l111 167h138l111 -167h-106l-74 98zM595 111v-111h-509v660h495v-111h-357v-164h281v-106h-281v-168h371z" />
    <glyph glyph-name="Edieresis" unicode="&#xcb;" horiz-adv-x="633" 
d="M595 111v-111h-509v660h495v-111h-357v-164h281v-106h-281v-168h371zM278 846q20 -19 20 -51t-20 -51t-55 -19q-34 0 -54 19t-20 51t20 51t54 19q35 0 55 -19zM488.5 846q20.5 -19 20.5 -51t-20.5 -51t-55.5 -19q-34 0 -54 19t-20 51t20 51t54 19q35 0 55.5 -19z" />
    <glyph glyph-name="Edotaccent" unicode="&#x116;" horiz-adv-x="633" 
d="M595 111v-111h-509v660h495v-111h-357v-164h281v-106h-281v-168h371zM389 861q21 -19 21 -54t-21 -54t-60 -19q-38 0 -59 19t-21 54t21 54t59 19q39 0 60 -19z" />
    <glyph glyph-name="Egrave" unicode="&#xc8;" horiz-adv-x="633" 
d="M295 730l-89 155h136l56 -155h-103zM595 111v-111h-509v660h495v-111h-357v-164h281v-106h-281v-168h371z" />
    <glyph glyph-name="Emacron" unicode="&#x112;" horiz-adv-x="633" 
d="M595 111v-111h-509v660h495v-111h-357v-164h281v-106h-281v-168h371zM511 739h-364v91h364v-91z" />
    <glyph glyph-name="Eogonek" unicode="&#x118;" horiz-adv-x="633" 
d="M604 -193q-33 -22 -96 -22q-59 0 -95 28t-36 78q0 73 82 109h-373v660h495v-111h-357v-164h281v-106h-281v-168h371v-110l1 -1q-67 -16 -93.5 -37.5t-26.5 -49.5q0 -22 15.5 -34.5t42.5 -12.5q33 0 50 11z" />
    <glyph glyph-name="F" unicode="F" horiz-adv-x="612" 
d="M224 549v-167h281v-112h-281v-270h-138v660h494v-111h-356z" />
    <glyph glyph-name="G" unicode="G" horiz-adv-x="723" 
d="M658 349v-349h-101l-3 79q-60 -89 -195 -89q-91 0 -160 40t-107.5 116.5t-38.5 182.5q0 105 39.5 182t112 118t169.5 41q107 0 174.5 -39t106.5 -123l-127 -55q-15 51 -54.5 77.5t-95.5 26.5q-86 0 -134 -59t-48 -168q0 -113 47 -171t138 -58q70 0 114 33.5t44 97.5v15
h-193v102h312z" />
    <glyph glyph-name="Gbreve" unicode="&#x11e;" horiz-adv-x="723" 
d="M658 349v-349h-101l-3 79q-60 -89 -195 -89q-91 0 -160 40t-107.5 116.5t-38.5 182.5q0 105 39.5 182t112 118t169.5 41q107 0 174.5 -39t106.5 -123l-127 -55q-15 51 -54.5 77.5t-95.5 26.5q-86 0 -134 -59t-48 -168q0 -113 47 -171t138 -58q70 0 114 33.5t44 97.5v15
h-193v102h312zM486.5 765.5q-43.5 -42.5 -117.5 -42.5t-117.5 42.5t-43.5 114.5h93q0 -32 19 -53.5t49 -21.5t49 21.5t19 53.5h93q0 -72 -43.5 -114.5z" />
    <glyph glyph-name="H" unicode="H" horiz-adv-x="739" 
d="M653 660v-660h-138v278h-291v-278h-138v660h138v-271h291v271h138z" />
    <glyph glyph-name="I" unicode="I" horiz-adv-x="310" 
d="M224 0h-138v660h138v-660z" />
    <glyph glyph-name="IJ" unicode="&#x132;" horiz-adv-x="911" 
d="M224 0h-138v660h138v-660zM835 243q0 -119 -68 -186t-191 -67q-114 0 -173 52.5t-59 143.5q0 28 6 59l135 24q-4 -28 -4 -56q0 -57 24 -83.5t75 -26.5q64 0 90.5 38.5t26.5 120.5v398h138v-417z" />
    <glyph glyph-name="Iacute" unicode="&#xcd;" horiz-adv-x="310" 
d="M286 885l-89 -155h-103l56 155h136zM224 0h-138v660h138v-660z" />
    <glyph glyph-name="Icircumflex" unicode="&#xce;" horiz-adv-x="310" 
d="M229 726l-74 98l-74 -98h-106l111 167h138l111 -167h-106zM224 0h-138v660h138v-660z" />
    <glyph glyph-name="Idieresis" unicode="&#xcf;" horiz-adv-x="310" 
d="M112 846q20 -19 20 -51t-20 -51t-54 -19q-33 0 -52.5 19t-19.5 51t19.5 51t52.5 19q34 0 54 -19zM304 846q20 -19 20 -51t-20 -51t-54 -19q-33 0 -52.5 19t-19.5 51t19.5 51t52.5 19q34 0 54 -19zM224 0h-138v660h138v-660z" />
    <glyph glyph-name="Idotaccent" unicode="&#x130;" horiz-adv-x="310" 
d="M224 0h-138v660h138v-660zM215 861q21 -19 21 -54t-21 -54t-60 -19q-38 0 -59 19t-21 54t21 54t59 19q39 0 60 -19z" />
    <glyph glyph-name="Igrave" unicode="&#xcc;" horiz-adv-x="310" 
d="M203 730h-103l-89 155h136zM224 0h-138v660h138v-660z" />
    <glyph glyph-name="Imacron" unicode="&#x12a;" horiz-adv-x="310" 
d="M284 739h-259v91h259v-91zM224 0h-138v660h138v-660z" />
    <glyph glyph-name="Iogonek" unicode="&#x12e;" horiz-adv-x="310" 
d="M244 -191q-37 -24 -98 -24q-58 0 -93.5 28t-35.5 78q0 34 19 62t54 47h-4v660h138v-660q-61 -19 -85 -39.5t-24 -45.5q0 -23 14 -35.5t41 -12.5q33 0 52 12z" />
    <glyph glyph-name="J" unicode="J" horiz-adv-x="601" 
d="M525 243q0 -119 -68 -186t-191 -67q-114 0 -173 52.5t-59 143.5q0 28 6 59l135 24q-4 -28 -4 -56q0 -57 24 -83.5t75 -26.5q64 0 90.5 38.5t26.5 120.5v398h138v-417z" />
    <glyph glyph-name="K" unicode="K" horiz-adv-x="679" 
d="M318 302l-94 -107v-195h-138v660h138v-313l271 313h160l-237 -269l245 -391h-158z" />
    <glyph glyph-name="L" unicode="L" horiz-adv-x="601" 
d="M572 111v-111h-486v660h138v-549h348z" />
    <glyph glyph-name="Lacute" unicode="&#x139;" horiz-adv-x="601" 
d="M197 730h-103l56 155h136zM572 111v-111h-486v660h138v-549h348z" />
    <glyph glyph-name="Lcaron" unicode="&#x13d;" horiz-adv-x="601" 
d="M400 477h-89l23 224h118zM572 111v-111h-486v660h138v-549h348z" />
    <glyph glyph-name="Ldot" unicode="&#x13f;" horiz-adv-x="634" 
d="M572 111v-111h-486v660h138v-549h348zM592.5 410q23.5 -22 23.5 -59t-23.5 -59t-63.5 -22t-63.5 21.5t-23.5 59.5t23.5 59.5t63.5 21.5t63.5 -22z" />
    <glyph glyph-name="Lslash" unicode="&#x141;" horiz-adv-x="638" 
d="M610 111v-111h-486v232l-109 -55v110l109 54v319h138v-249l173 87v-110l-173 -87v-190h348z" />
    <glyph glyph-name="M" unicode="M" horiz-adv-x="890" 
d="M804 0h-124v344l6 193h-2l-183 -537h-113l-182 537h-2l7 -193v-344h-125v660h200l119 -360l42 -149h2l43 148l118 361h194v-660z" />
    <glyph glyph-name="N" unicode="N" horiz-adv-x="739" 
d="M653 0h-158l-231 388l-57 111h-1l4 -117v-382h-124v660h157l231 -387l57 -112h2l-4 117v382h124v-660z" />
    <glyph glyph-name="Nacute" unicode="&#x143;" horiz-adv-x="739" 
d="M503 885l-89 -155h-103l56 155h136zM653 0h-158l-231 388l-57 111h-1l4 -117v-382h-124v660h157l231 -387l57 -112h2l-4 117v382h124v-660z" />
    <glyph glyph-name="Ncaron" unicode="&#x147;" horiz-adv-x="739" 
d="M438 727h-138l-111 167h106l74 -98l74 98h106zM653 0h-158l-231 388l-57 111h-1l4 -117v-382h-124v660h157l231 -387l57 -112h2l-4 117v382h124v-660z" />
    <glyph glyph-name="Ntilde" unicode="&#xd1;" horiz-adv-x="739" 
d="M653 0h-158l-231 388l-57 111h-1l4 -117v-382h-124v660h157l231 -387l57 -112h2l-4 117v382h124v-660zM527.5 765.5q-31.5 -37.5 -89.5 -37.5q-29 0 -48.5 10t-40.5 28q-14 12 -23.5 17.5t-20.5 5.5q-18 0 -28 -15t-14 -46h-84q8 150 126 150q29 0 48 -10t40 -28
q15 -12 24 -17.5t20 -5.5q18 0 28 15t14 46h84q-4 -75 -35.5 -112.5z" />
    <glyph glyph-name="O" unicode="O" horiz-adv-x="741" 
d="M539.5 629q71.5 -41 110 -117.5t38.5 -181.5t-38.5 -181.5t-110 -117.5t-168.5 -41t-169 41t-110.5 117.5t-38.5 181.5t38.5 181.5t110.5 117.5t169 41t168.5 -41zM241.5 498.5q-45.5 -58.5 -45.5 -168.5t45.5 -168.5t129.5 -58.5q83 0 128.5 58.5t45.5 168.5
t-45.5 168.5t-128.5 58.5q-84 0 -129.5 -58.5z" />
    <glyph glyph-name="Oacute" unicode="&#xd3;" horiz-adv-x="741" 
d="M502 885l-89 -155h-103l56 155h136zM539.5 629q71.5 -41 110 -117.5t38.5 -181.5t-38.5 -181.5t-110 -117.5t-168.5 -41t-169 41t-110.5 117.5t-38.5 181.5t38.5 181.5t110.5 117.5t169 41t168.5 -41zM241.5 498.5q-45.5 -58.5 -45.5 -168.5t45.5 -168.5t129.5 -58.5
q83 0 128.5 58.5t45.5 168.5t-45.5 168.5t-128.5 58.5q-84 0 -129.5 -58.5z" />
    <glyph glyph-name="Ocircumflex" unicode="&#xd4;" horiz-adv-x="741" 
d="M445 726l-74 98l-74 -98h-106l111 167h138l111 -167h-106zM539.5 629q71.5 -41 110 -117.5t38.5 -181.5t-38.5 -181.5t-110 -117.5t-168.5 -41t-169 41t-110.5 117.5t-38.5 181.5t38.5 181.5t110.5 117.5t169 41t168.5 -41zM241.5 498.5q-45.5 -58.5 -45.5 -168.5
t45.5 -168.5t129.5 -58.5q83 0 128.5 58.5t45.5 168.5t-45.5 168.5t-128.5 58.5q-84 0 -129.5 -58.5z" />
    <glyph glyph-name="Odieresis" unicode="&#xd6;" horiz-adv-x="741" 
d="M539.5 629q71.5 -41 110 -117.5t38.5 -181.5t-38.5 -181.5t-110 -117.5t-168.5 -41t-169 41t-110.5 117.5t-38.5 181.5t38.5 181.5t110.5 117.5t169 41t168.5 -41zM241.5 498.5q-45.5 -58.5 -45.5 -168.5t45.5 -168.5t129.5 -58.5q83 0 128.5 58.5t45.5 168.5
t-45.5 168.5t-128.5 58.5q-84 0 -129.5 -58.5zM320 846q20 -19 20 -51t-20 -51t-55 -19q-34 0 -54 19t-20 51t20 51t54 19q35 0 55 -19zM530.5 846q20.5 -19 20.5 -51t-20.5 -51t-55.5 -19q-34 0 -54 19t-20 51t20 51t54 19q35 0 55.5 -19z" />
    <glyph glyph-name="Ograve" unicode="&#xd2;" horiz-adv-x="741" 
d="M419 730h-103l-89 155h136zM539.5 629q71.5 -41 110 -117.5t38.5 -181.5t-38.5 -181.5t-110 -117.5t-168.5 -41t-169 41t-110.5 117.5t-38.5 181.5t38.5 181.5t110.5 117.5t169 41t168.5 -41zM241.5 498.5q-45.5 -58.5 -45.5 -168.5t45.5 -168.5t129.5 -58.5
q83 0 128.5 58.5t45.5 168.5t-45.5 168.5t-128.5 58.5q-84 0 -129.5 -58.5z" />
    <glyph glyph-name="Ohungarumlaut" unicode="&#x150;" horiz-adv-x="741" 
d="M406 885l-90 -155h-102l55 155h137zM613 885l-90 -155h-102l55 155h137zM539.5 629q71.5 -41 110 -117.5t38.5 -181.5t-38.5 -181.5t-110 -117.5t-168.5 -41t-169 41t-110.5 117.5t-38.5 181.5t38.5 181.5t110.5 117.5t169 41t168.5 -41zM241.5 498.5
q-45.5 -58.5 -45.5 -168.5t45.5 -168.5t129.5 -58.5q83 0 128.5 58.5t45.5 168.5t-45.5 168.5t-128.5 58.5q-84 0 -129.5 -58.5z" />
    <glyph glyph-name="Omacron" unicode="&#x14c;" horiz-adv-x="741" 
d="M539.5 629q71.5 -41 110 -117.5t38.5 -181.5t-38.5 -181.5t-110 -117.5t-168.5 -41t-169 41t-110.5 117.5t-38.5 181.5t38.5 181.5t110.5 117.5t169 41t168.5 -41zM241.5 498.5q-45.5 -58.5 -45.5 -168.5t45.5 -168.5t129.5 -58.5q83 0 128.5 58.5t45.5 168.5
t-45.5 168.5t-128.5 58.5q-84 0 -129.5 -58.5zM553 739h-364v91h364v-91z" />
    <glyph glyph-name="Oslash" unicode="&#xd8;" horiz-adv-x="741" 
d="M665 475.5q23 -64.5 23 -145.5q0 -105 -38.5 -181.5t-110 -117.5t-168.5 -41q-100 0 -172 43l-46 -64h-80l73 103q-45 45 -69 110.5t-24 147.5q0 105 38.5 181.5t110.5 117.5t169 41q102 0 176 -45l41 57h80l-70 -98q44 -44 67 -108.5zM241.5 498.5
q-45.5 -58.5 -45.5 -168.5q0 -94 33 -150l243 346q-42 31 -101 31q-84 0 -129.5 -58.5zM499.5 161.5q45.5 58.5 45.5 168.5q0 87 -29 143l-241 -343q39 -27 96 -27q83 0 128.5 58.5z" />
    <glyph glyph-name="Otilde" unicode="&#xd5;" horiz-adv-x="741" 
d="M539.5 629q71.5 -41 110 -117.5t38.5 -181.5t-38.5 -181.5t-110 -117.5t-168.5 -41t-169 41t-110.5 117.5t-38.5 181.5t38.5 181.5t110.5 117.5t169 41t168.5 -41zM241.5 498.5q-45.5 -58.5 -45.5 -168.5t45.5 -168.5t129.5 -58.5q83 0 128.5 58.5t45.5 168.5
t-45.5 168.5t-128.5 58.5q-84 0 -129.5 -58.5zM526.5 765.5q-31.5 -37.5 -89.5 -37.5q-29 0 -48.5 10t-40.5 28q-14 12 -23.5 17.5t-20.5 5.5q-18 0 -28 -15t-14 -46h-84q8 150 126 150q29 0 48 -10t40 -28q15 -12 24 -17.5t20 -5.5q18 0 28 15t14 46h84
q-4 -75 -35.5 -112.5z" />
    <glyph glyph-name="OE" unicode="&#x152;" horiz-adv-x="1060" 
d="M1022 111v-111h-453v85q-38 -45 -90.5 -70t-117.5 -25q-94 0 -163.5 41t-107 117.5t-37.5 181.5t37.5 181.5t107.5 117.5t165 41q65 0 117 -24t89 -69v83h439v-111h-339v-164h263v-106h-263v-168h353zM490.5 162q44.5 59 44.5 168t-44.5 168t-122.5 59
q-85 0 -129.5 -58.5t-44.5 -168.5t44.5 -168.5t129.5 -58.5q78 0 122.5 59z" />
    <glyph glyph-name="P" unicode="P" horiz-adv-x="646" 
d="M542 604.5q64 -55.5 64 -156.5q0 -98 -64 -153t-179 -55h-139v-240h-138v660h277q115 0 179 -55.5zM436 372.5q30 25.5 30 76.5t-30 76t-94 25h-118v-203h118q64 0 94 25.5z" />
    <glyph glyph-name="Thorn" unicode="&#xde;" horiz-adv-x="652" 
d="M542.5 498q65.5 -55 64.5 -161q1 -105 -64.5 -160.5t-190.5 -55.5h-128v-121h-138v660h138v-107h128q125 0 190.5 -55zM436 256.5q31 26.5 31 80.5t-31 80.5t-94 26.5h-118v-214h118q63 0 94 26.5z" />
    <glyph glyph-name="Q" unicode="Q" horiz-adv-x="741" 
d="M598 -76q31 10 51 28l36 -106q-26 -22 -69.5 -34.5t-92.5 -12.5q-96 0 -150 49.5t-52 144.5q-126 15 -197 104t-71 233q0 105 38.5 181.5t110.5 117.5t169 41t168.5 -41t110 -117.5t38.5 -181.5q0 -145 -72 -234t-199 -103q5 -45 33 -62t78 -17q39 0 70 10zM241.5 161.5
q45.5 -58.5 129.5 -58.5q83 0 128.5 58.5t45.5 168.5t-45.5 168.5t-128.5 58.5q-84 0 -129.5 -58.5t-45.5 -168.5t45.5 -168.5z" />
    <glyph glyph-name="R" unicode="R" horiz-adv-x="680" 
d="M346 253h-124v-253h-136v660h291q113 0 176.5 -53.5t63.5 -150.5q0 -71 -35 -119t-100 -69l174 -268h-155zM222 358h137q60 0 88.5 23.5t28.5 72.5t-28.5 72.5t-88.5 23.5h-137v-192z" />
    <glyph glyph-name="Racute" unicode="&#x154;" horiz-adv-x="680" 
d="M369 730h-103l56 155h136zM346 253h-124v-253h-136v660h291q113 0 176.5 -53.5t63.5 -150.5q0 -71 -35 -119t-100 -69l174 -268h-155zM222 358h137q60 0 88.5 23.5t28.5 72.5t-28.5 72.5t-88.5 23.5h-137v-192z" />
    <glyph glyph-name="Rcaron" unicode="&#x158;" horiz-adv-x="680" 
d="M255 727l-111 167h106l74 -98l74 98h106l-111 -167h-138zM346 253h-124v-253h-136v660h291q113 0 176.5 -53.5t63.5 -150.5q0 -71 -35 -119t-100 -69l174 -268h-155zM222 358h137q60 0 88.5 23.5t28.5 72.5t-28.5 72.5t-88.5 23.5h-137v-192z" />
    <glyph glyph-name="S" unicode="S" horiz-adv-x="643" 
d="M485 639.5q66 -30.5 116 -96.5l-95 -93q-26 54 -69 80.5t-109 26.5q-60 0 -92.5 -22.5t-32.5 -59.5q0 -34 33 -54t119 -35q90 -17 143 -42t77.5 -62.5t24.5 -93.5q0 -61 -34.5 -105.5t-96 -68.5t-140.5 -24q-109 0 -178.5 30.5t-112.5 92.5l82 98q37 -61 85 -84.5
t119 -23.5q64 0 97.5 20t33.5 57q0 27 -31.5 45t-112.5 34q-93 19 -148.5 45t-80.5 64t-25 94q0 59 32 106.5t93.5 74.5t144.5 27q92 0 158 -30.5z" />
    <glyph glyph-name="Sacute" unicode="&#x15a;" horiz-adv-x="643" 
d="M459 885l-89 -155h-103l56 155h136zM485 639.5q66 -30.5 116 -96.5l-95 -93q-26 54 -69 80.5t-109 26.5q-60 0 -92.5 -22.5t-32.5 -59.5q0 -34 33 -54t119 -35q90 -17 143 -42t77.5 -62.5t24.5 -93.5q0 -61 -34.5 -105.5t-96 -68.5t-140.5 -24q-109 0 -178.5 30.5
t-112.5 92.5l82 98q37 -61 85 -84.5t119 -23.5q64 0 97.5 20t33.5 57q0 27 -31.5 45t-112.5 34q-93 19 -148.5 45t-80.5 64t-25 94q0 59 32 106.5t93.5 74.5t144.5 27q92 0 158 -30.5z" />
    <glyph glyph-name="Scaron" unicode="&#x160;" horiz-adv-x="643" 
d="M395 727h-138l-111 167h106l74 -98l74 98h106zM485 639.5q66 -30.5 116 -96.5l-95 -93q-26 54 -69 80.5t-109 26.5q-60 0 -92.5 -22.5t-32.5 -59.5q0 -34 33 -54t119 -35q90 -17 143 -42t77.5 -62.5t24.5 -93.5q0 -61 -34.5 -105.5t-96 -68.5t-140.5 -24
q-109 0 -178.5 30.5t-112.5 92.5l82 98q37 -61 85 -84.5t119 -23.5q64 0 97.5 20t33.5 57q0 27 -31.5 45t-112.5 34q-93 19 -148.5 45t-80.5 64t-25 94q0 59 32 106.5t93.5 74.5t144.5 27q92 0 158 -30.5z" />
    <glyph glyph-name="uni1E9E" unicode="&#x1e9e;" horiz-adv-x="709" 
d="M625 318.5q55 -45.5 55 -131.5q0 -89 -59 -140.5t-153 -51.5q-65 0 -110 16t-69 44l42 85q19 -19 48 -29.5t64 -10.5q46 0 74.5 24.5t28.5 65.5q0 43 -31 66.5t-87 23.5h-84v86l157 184h-142q-60 0 -97.5 -38t-37.5 -100v-412h-138v428q0 70 31.5 122.5t89 81t133.5 28.5
h300v-109l-162 -185q92 -2 147 -47.5z" />
    <glyph glyph-name="T" unicode="T" horiz-adv-x="635" 
d="M608 549h-221v-549h-138v549h-222v111h581v-111z" />
    <glyph glyph-name="Tcaron" unicode="&#x164;" horiz-adv-x="635" 
d="M246 727l-111 167h106l74 -98l74 98h106l-111 -167h-138zM608 549h-221v-549h-138v549h-222v111h581v-111z" />
    <glyph glyph-name="U" unicode="U" horiz-adv-x="715" 
d="M640 260q0 -134 -71.5 -202t-210.5 -68t-210.5 68t-71.5 202v400h138v-394q0 -83 35.5 -123t108.5 -40t108 40t35 123v394h139v-400z" />
    <glyph glyph-name="Uacute" unicode="&#xda;" horiz-adv-x="715" 
d="M489 885l-89 -155h-103l56 155h136zM640 260q0 -134 -71.5 -202t-210.5 -68t-210.5 68t-71.5 202v400h138v-394q0 -83 35.5 -123t108.5 -40t108 40t35 123v394h139v-400z" />
    <glyph glyph-name="Ucircumflex" unicode="&#xdb;" horiz-adv-x="715" 
d="M432 726l-74 98l-74 -98h-106l111 167h138l111 -167h-106zM640 260q0 -134 -71.5 -202t-210.5 -68t-210.5 68t-71.5 202v400h138v-394q0 -83 35.5 -123t108.5 -40t108 40t35 123v394h139v-400z" />
    <glyph glyph-name="Udieresis" unicode="&#xdc;" horiz-adv-x="715" 
d="M640 260q0 -134 -71.5 -202t-210.5 -68t-210.5 68t-71.5 202v400h138v-394q0 -83 35.5 -123t108.5 -40t108 40t35 123v394h139v-400zM307 846q20 -19 20 -51t-20 -51t-55 -19q-34 0 -54 19t-20 51t20 51t54 19q35 0 55 -19zM517.5 846q20.5 -19 20.5 -51t-20.5 -51
t-55.5 -19q-34 0 -54 19t-20 51t20 51t54 19q35 0 55.5 -19z" />
    <glyph glyph-name="Ugrave" unicode="&#xd9;" horiz-adv-x="715" 
d="M406 730h-103l-89 155h136zM640 260q0 -134 -71.5 -202t-210.5 -68t-210.5 68t-71.5 202v400h138v-394q0 -83 35.5 -123t108.5 -40t108 40t35 123v394h139v-400z" />
    <glyph glyph-name="Uhungarumlaut" unicode="&#x170;" horiz-adv-x="715" 
d="M387 887l-90 -156h-102l55 156h137zM590 885l-90 -155h-102l56 155h136zM640 260q0 -134 -71.5 -202t-210.5 -68t-210.5 68t-71.5 202v400h138v-394q0 -83 35.5 -123t108.5 -40t108 40t35 123v394h139v-400z" />
    <glyph glyph-name="Umacron" unicode="&#x16a;" horiz-adv-x="715" 
d="M640 260q0 -134 -71.5 -202t-210.5 -68t-210.5 68t-71.5 202v400h138v-394q0 -83 35.5 -123t108.5 -40t108 40t35 123v394h139v-400zM540 739h-364v91h364v-91z" />
    <glyph glyph-name="Uogonek" unicode="&#x172;" horiz-adv-x="715" 
d="M640 660v-400q0 -111 -49.5 -177t-145.5 -85q-83 -38 -83 -84q0 -22 16 -35t42 -13q33 0 50 11l20 -71q-34 -21 -95 -21q-58 0 -95 28.5t-37 78.5q0 61 55 99q-119 10 -180.5 77.5t-61.5 191.5v400h138v-394q0 -83 35.5 -123t108.5 -40t108 40t35 123v394h139z" />
    <glyph glyph-name="Uring" unicode="&#x16e;" horiz-adv-x="715" 
d="M640 260q0 -134 -71.5 -202t-210.5 -68t-210.5 68t-71.5 202v400h138v-394q0 -83 35.5 -123t108.5 -40t108 40t35 123v394h139v-400zM454 864.5q35 -32.5 35 -87.5t-35 -87.5t-96 -32.5t-96.5 32.5t-35.5 87.5t35.5 87.5t96.5 32.5t96 -32.5zM315.5 819
q-16.5 -16 -16.5 -42q0 -25 16.5 -41t42.5 -16t42.5 16t16.5 41q0 26 -16.5 42t-42.5 16t-42.5 -16z" />
    <glyph glyph-name="V" unicode="V" horiz-adv-x="670" 
d="M416 0h-161l-241 660h146l139 -420l38 -130l37 129l140 421h142z" />
    <glyph glyph-name="W" unicode="W" horiz-adv-x="984" 
d="M370 0h-159l-192 660h149l128 -551l132 551h132l134 -551l128 551h142l-192 -660h-155l-92 360l-31 156h-2l-31 -156z" />
    <glyph glyph-name="X" unicode="X" horiz-adv-x="640" 
d="M459 0l-144 239l-141 -239h-158l227 333l-211 327h163l134 -230l134 230h149l-212 -322l224 -338h-165z" />
    <glyph glyph-name="Y" unicode="Y" horiz-adv-x="626" 
d="M382 247v-247h-138v247l-234 413h147l106 -197l50 -104l51 104l106 197h146z" />
    <glyph glyph-name="Yacute" unicode="&#xdd;" horiz-adv-x="626" 
d="M444 885l-89 -155h-103l56 155h136zM382 247v-247h-138v247l-234 413h147l106 -197l50 -104l51 104l106 197h146z" />
    <glyph glyph-name="Ydieresis" unicode="&#x178;" horiz-adv-x="626" 
d="M382 247v-247h-138v247l-234 413h147l106 -197l50 -104l51 104l106 197h146zM262 846q20 -19 20 -51t-20 -51t-55 -19q-34 0 -54 19t-20 51t20 51t54 19q35 0 55 -19zM472.5 846q20.5 -19 20.5 -51t-20.5 -51t-55.5 -19q-34 0 -54 19t-20 51t20 51t54 19q35 0 55.5 -19z
" />
    <glyph glyph-name="Z" unicode="Z" horiz-adv-x="633" 
d="M593 110v-110h-549v104l385 446h-377v110h529v-104l-385 -446h397z" />
    <glyph glyph-name="Zacute" unicode="&#x179;" horiz-adv-x="633" 
d="M357 730h-103l56 155h136zM593 110v-110h-549v104l385 446h-377v110h529v-104l-385 -446h397z" />
    <glyph glyph-name="Zcaron" unicode="&#x17d;" horiz-adv-x="633" 
d="M243 727l-111 167h106l74 -98l74 98h106l-111 -167h-138zM593 110v-110h-549v104l385 446h-377v110h529v-104l-385 -446h397z" />
    <glyph glyph-name="Zdotaccent" unicode="&#x17b;" horiz-adv-x="633" 
d="M593 110v-110h-549v104l385 446h-377v110h529v-104l-385 -446h397zM375 861q21 -19 21 -54t-21 -54t-60 -19q-38 0 -59 19t-21 54t21 54t59 19q39 0 60 -19z" />
    <glyph glyph-name="uni0122" unicode="&#x122;" horiz-adv-x="723" 
d="M658 349v-349h-101l-3 79q-60 -89 -195 -89q-91 0 -160 40t-107.5 116.5t-38.5 182.5q0 105 39.5 182t112 118t169.5 41q107 0 174.5 -39t106.5 -123l-127 -55q-15 51 -54.5 77.5t-95.5 26.5q-86 0 -134 -59t-48 -168q0 -113 47 -171t138 -58q70 0 114 33.5t44 97.5v15
h-193v102h312zM386 -239h-93l36 173h126z" />
    <glyph glyph-name="uni0136" unicode="&#x136;" horiz-adv-x="679" 
d="M318 302l-94 -107v-195h-138v660h138v-313l271 313h160l-237 -269l245 -391h-158zM358 -239h-93l36 173h126z" />
    <glyph glyph-name="uni013B" unicode="&#x13b;" horiz-adv-x="601" 
d="M572 111v-111h-486v660h138v-549h348zM337 -239h-93l36 173h126z" />
    <glyph glyph-name="uni0145" unicode="&#x145;" horiz-adv-x="739" 
d="M653 0h-158l-231 388l-57 111h-1l4 -117v-382h-124v660h157l231 -387l57 -112h2l-4 117v382h124v-660zM380 -239h-93l36 173h126z" />
    <glyph glyph-name="uni0156" unicode="&#x156;" horiz-adv-x="680" 
d="M346 253h-124v-253h-136v660h291q113 0 176.5 -53.5t63.5 -150.5q0 -71 -35 -119t-100 -69l174 -268h-155zM222 358h137q60 0 88.5 23.5t28.5 72.5t-28.5 72.5t-88.5 23.5h-137v-192zM356 -239h-93l36 173h126z" />
    <glyph glyph-name="uni015E" unicode="&#x15e;" horiz-adv-x="643" 
d="M498 344q53 -25 77.5 -62.5t24.5 -93.5q0 -77 -54.5 -127.5t-146.5 -65.5q27 -19 40.5 -44t13.5 -52q0 -53 -36.5 -83.5t-96.5 -30.5q-78 0 -119 38l36 71q13 -14 31.5 -22t39.5 -8q24 0 39.5 14.5t15.5 38.5t-15 41t-54 33q-94 4 -155.5 34.5t-100.5 87.5l82 98
q37 -61 85 -84.5t119 -23.5q64 0 97.5 20t33.5 57q0 27 -31.5 45t-112.5 34q-93 19 -148.5 45t-80.5 64t-25 94q0 59 32 106.5t93.5 74.5t144.5 27q92 0 158 -30.5t116 -96.5l-95 -93q-26 54 -69 80.5t-109 26.5q-60 0 -92.5 -22.5t-32.5 -59.5q0 -34 33 -54t119 -35
q90 -17 143 -42z" />
    <glyph glyph-name="uni0162" unicode="&#x162;" horiz-adv-x="635" 
d="M387 549v-548q57 -37 57 -100q0 -54 -37 -85t-97 -31q-77 0 -121 39l40 72q27 -30 68 -30q24 0 40 14.5t16 39.5q0 27 -17.5 44t-59.5 36h-27v549h-222v111h581v-111h-221z" />
    <glyph glyph-name="uni0218" unicode="&#x218;" horiz-adv-x="643" 
d="M485 639.5q66 -30.5 116 -96.5l-95 -93q-26 54 -69 80.5t-109 26.5q-60 0 -92.5 -22.5t-32.5 -59.5q0 -34 33 -54t119 -35q90 -17 143 -42t77.5 -62.5t24.5 -93.5q0 -61 -34.5 -105.5t-96 -68.5t-140.5 -24q-109 0 -178.5 30.5t-112.5 92.5l82 98q37 -61 85 -84.5
t119 -23.5q64 0 97.5 20t33.5 57q0 27 -31.5 45t-112.5 34q-93 19 -148.5 45t-80.5 64t-25 94q0 59 32 106.5t93.5 74.5t144.5 27q92 0 158 -30.5zM343 -239h-93l36 173h126z" />
    <glyph glyph-name="uni021A" unicode="&#x21a;" horiz-adv-x="635" 
d="M608 549h-221v-549h-138v549h-222v111h581v-111zM313 -239h-93l36 173h126z" />
    <glyph glyph-name="E.swsh.001" horiz-adv-x="800" 
d="M750 307.5q40 -46.5 40 -120.5q0 -94 -57 -140.5t-159 -46.5h-488v660h527v-111h-389v-169h209v-107h-209v-162h328q59 0 87 19t28 61q0 37 -19.5 57.5t-55.5 23.5l47 90q71 -8 111 -54.5z" />
    <glyph glyph-name="Eacute.swsh.001" horiz-adv-x="800" 
d="M387 730h-103l56 155h136zM750 307.5q40 -46.5 40 -120.5q0 -94 -57 -140.5t-159 -46.5h-488v660h527v-111h-389v-169h209v-107h-209v-162h328q59 0 87 19t28 61q0 37 -19.5 57.5t-55.5 23.5l47 90q71 -8 111 -54.5z" />
    <glyph glyph-name="Ecaron.swsh.001" horiz-adv-x="800" 
d="M274 727l-111 167h106l74 -98l74 98h106l-111 -167h-138zM750 307.5q40 -46.5 40 -120.5q0 -94 -57 -140.5t-159 -46.5h-488v660h527v-111h-389v-169h209v-107h-209v-162h328q59 0 87 19t28 61q0 37 -19.5 57.5t-55.5 23.5l47 90q71 -8 111 -54.5z" />
    <glyph glyph-name="Ecircumflex.swsh.001" horiz-adv-x="800" 
d="M271 726h-106l111 167h138l111 -167h-106l-74 98zM750 307.5q40 -46.5 40 -120.5q0 -94 -57 -140.5t-159 -46.5h-488v660h527v-111h-389v-169h209v-107h-209v-162h328q59 0 87 19t28 61q0 37 -19.5 57.5t-55.5 23.5l47 90q71 -8 111 -54.5z" />
    <glyph glyph-name="Edieresis.swsh.001" horiz-adv-x="800" 
d="M750 307.5q40 -46.5 40 -120.5q0 -94 -57 -140.5t-159 -46.5h-488v660h527v-111h-389v-169h209v-107h-209v-162h328q59 0 87 19t28 61q0 37 -19.5 57.5t-55.5 23.5l47 90q71 -8 111 -54.5zM294 846q20 -19 20 -51t-20 -51t-55 -19q-34 0 -54 19t-20 51t20 51t54 19
q35 0 55 -19zM504.5 846q20.5 -19 20.5 -51t-20.5 -51t-55.5 -19q-34 0 -54 19t-20 51t20 51t54 19q35 0 55.5 -19z" />
    <glyph glyph-name="Edotaccent.swsh.001" horiz-adv-x="800" 
d="M750 307.5q40 -46.5 40 -120.5q0 -94 -57 -140.5t-159 -46.5h-488v660h527v-111h-389v-169h209v-107h-209v-162h328q59 0 87 19t28 61q0 37 -19.5 57.5t-55.5 23.5l47 90q71 -8 111 -54.5zM405 861q21 -19 21 -54t-21 -54t-60 -19q-38 0 -59 19t-21 54t21 54t59 19
q39 0 60 -19z" />
    <glyph glyph-name="Egrave.swsh.001" horiz-adv-x="800" 
d="M290 730l-89 155h136l56 -155h-103zM750 307.5q40 -46.5 40 -120.5q0 -94 -57 -140.5t-159 -46.5h-488v660h527v-111h-389v-169h209v-107h-209v-162h328q59 0 87 19t28 61q0 37 -19.5 57.5t-55.5 23.5l47 90q71 -8 111 -54.5z" />
    <glyph glyph-name="Emacron.swsh.001" horiz-adv-x="800" 
d="M750 307.5q40 -46.5 40 -120.5q0 -94 -57 -140.5t-159 -46.5h-488v660h527v-111h-389v-169h209v-107h-209v-162h328q59 0 87 19t28 61q0 37 -19.5 57.5t-55.5 23.5l47 90q71 -8 111 -54.5zM527 739h-364v91h364v-91z" />
    <glyph glyph-name="M.swsh.001" horiz-adv-x="1127" 
d="M1041 660v-660h-124v344l6 193h-1l-183 -537h-113l-183 537h-2l7 -193v-344h-125v557h-71q-55 0 -85 -25t-30 -70q0 -39 26.5 -65.5t70.5 -32.5l-43 -96q-79 7 -130 60t-51 136q0 92 61 144t170 52h282l119 -360l42 -149h2l43 148l118 361h194z" />
    <glyph glyph-name="R.swsh.001" horiz-adv-x="721" 
d="M641 32q42 -33 80 -42l-75 -82q-69 24 -107.5 54.5t-71.5 78.5l-148 212h-97v-253h-136v660h291q113 0 176.5 -53.5t63.5 -150.5q0 -78 -42.5 -128t-119.5 -67l112 -154q32 -42 74 -75zM222 358h137q60 0 88.5 23.5t28.5 72.5t-28.5 72.5t-88.5 23.5h-137v-192z" />
    <glyph glyph-name="Racute.swsh.001" horiz-adv-x="721" 
d="M369 730h-103l56 155h136zM641 32q42 -33 80 -42l-75 -82q-69 24 -107.5 54.5t-71.5 78.5l-148 212h-97v-253h-136v660h291q113 0 176.5 -53.5t63.5 -150.5q0 -78 -42.5 -128t-119.5 -67l112 -154q32 -42 74 -75zM222 358h137q60 0 88.5 23.5t28.5 72.5t-28.5 72.5
t-88.5 23.5h-137v-192z" />
    <glyph glyph-name="Rcaron.swsh.001" horiz-adv-x="721" 
d="M255 727l-111 167h106l74 -98l74 98h106l-111 -167h-138zM641 32q42 -33 80 -42l-75 -82q-69 24 -107.5 54.5t-71.5 78.5l-148 212h-97v-253h-136v660h291q113 0 176.5 -53.5t63.5 -150.5q0 -78 -42.5 -128t-119.5 -67l112 -154q32 -42 74 -75zM222 358h137
q60 0 88.5 23.5t28.5 72.5t-28.5 72.5t-88.5 23.5h-137v-192z" />
    <glyph glyph-name="Rcommaaccent.swsh.001" horiz-adv-x="721" 
d="M641 32q42 -33 80 -42l-75 -82q-69 24 -107.5 54.5t-71.5 78.5l-148 212h-97v-253h-136v660h291q113 0 176.5 -53.5t63.5 -150.5q0 -78 -42.5 -128t-119.5 -67l112 -154q32 -42 74 -75zM222 358h137q60 0 88.5 23.5t28.5 72.5t-28.5 72.5t-88.5 23.5h-137v-192zM356 -239
h-93l36 173h126z" />
    <glyph glyph-name="Iacute_J.loclNLD" horiz-adv-x="911" 
d="M286 885l-89 -155h-103l56 155h136zM905 885l-89 -155h-103l56 155h136zM224 0h-138v660h138v-660zM835 243q0 -119 -68 -186t-191 -67q-114 0 -173 52.5t-59 143.5q0 28 6 59l135 24q-4 -28 -4 -56q0 -57 24 -83.5t75 -26.5q64 0 90.5 38.5t26.5 120.5v398h138v-417z
" />
    <glyph glyph-name="R.ss03" horiz-adv-x="674" 
d="M86 660h291q113 0 176.5 -53t63.5 -147q0 -68 -34.5 -109.5t-98.5 -58.5v-2q100 -21 108 -122q6 -73 14 -107t21 -57v-4h-146q-9 21 -13.5 52t-11.5 103q-5 51 -35.5 74.5t-91.5 23.5h-107v-253h-136v660zM359 358q60 0 88.5 23.5t28.5 72.5t-28.5 72.5t-88.5 23.5h-137
v-192h137z" />
    <glyph glyph-name="Racute.ss03" horiz-adv-x="674" 
d="M458 885l-89 -155h-103l56 155h136zM86 660h291q113 0 176.5 -53t63.5 -147q0 -68 -34.5 -109.5t-98.5 -58.5v-2q100 -21 108 -122q6 -73 14 -107t21 -57v-4h-146q-9 21 -13.5 52t-11.5 103q-5 51 -35.5 74.5t-91.5 23.5h-107v-253h-136v660zM359 358q60 0 88.5 23.5
t28.5 72.5t-28.5 72.5t-88.5 23.5h-137v-192h137z" />
    <glyph glyph-name="Rcaron.ss03" horiz-adv-x="674" 
d="M393 727h-138l-111 167h106l74 -98l74 98h106zM86 660h291q113 0 176.5 -53t63.5 -147q0 -68 -34.5 -109.5t-98.5 -58.5v-2q100 -21 108 -122q6 -73 14 -107t21 -57v-4h-146q-9 21 -13.5 52t-11.5 103q-5 51 -35.5 74.5t-91.5 23.5h-107v-253h-136v660zM359 358
q60 0 88.5 23.5t28.5 72.5t-28.5 72.5t-88.5 23.5h-137v-192h137z" />
    <glyph glyph-name="Rcommaaccent.ss03" horiz-adv-x="674" 
d="M86 660h291q113 0 176.5 -53t63.5 -147q0 -68 -34.5 -109.5t-98.5 -58.5v-2q100 -21 108 -122q6 -73 14 -107t21 -57v-4h-146q-9 21 -13.5 52t-11.5 103q-5 51 -35.5 74.5t-91.5 23.5h-107v-253h-136v660zM359 358q60 0 88.5 23.5t28.5 72.5t-28.5 72.5t-88.5 23.5h-137
v-192h137zM356 -239h-93l36 173h126z" />
    <glyph glyph-name="G.ss04" horiz-adv-x="723" 
d="M669 349v-74q0 -138 -78.5 -211.5t-218.5 -73.5q-96 0 -168 40t-111.5 116.5t-39.5 182.5q0 105 39.5 182t112 118t169.5 41q107 0 174.5 -39t106.5 -123l-128 -55q-31 104 -152 104q-82 0 -130.5 -59.5t-48.5 -167.5q0 -227 189 -227q55 0 91.5 20.5t54 53t17.5 67.5v7
h-183v98h304z" />
    <glyph glyph-name="Gbreve.ss04" horiz-adv-x="723" 
d="M669 349v-74q0 -138 -78.5 -211.5t-218.5 -73.5q-96 0 -168 40t-111.5 116.5t-39.5 182.5q0 105 39.5 182t112 118t169.5 41q107 0 174.5 -39t106.5 -123l-128 -55q-31 104 -152 104q-82 0 -130.5 -59.5t-48.5 -167.5q0 -227 189 -227q55 0 91.5 20.5t54 53t17.5 67.5v7
h-183v98h304zM487.5 765.5q-43.5 -42.5 -117.5 -42.5t-117.5 42.5t-43.5 114.5h93q0 -32 19 -53.5t49 -21.5t49 21.5t19 53.5h93q0 -72 -43.5 -114.5z" />
    <glyph glyph-name="Gcommaaccent.ss04" horiz-adv-x="723" 
d="M669 349v-74q0 -138 -78.5 -211.5t-218.5 -73.5q-96 0 -168 40t-111.5 116.5t-39.5 182.5q0 105 39.5 182t112 118t169.5 41q107 0 174.5 -39t106.5 -123l-128 -55q-31 104 -152 104q-82 0 -130.5 -59.5t-48.5 -167.5q0 -227 189 -227q55 0 91.5 20.5t54 53t17.5 67.5v7
h-183v98h304zM387 -239h-93l36 173h126z" />
    <glyph glyph-name="IJ.ss05" horiz-adv-x="652" 
d="M576 243q0 -118 -68 -185.5t-184 -67.5q-114 0 -176 48.5t-62 140.5q0 10 2 34h137q-2 -16 -2 -24q0 -43 26.5 -64.5t76.5 -21.5q55 0 83.5 37.5t28.5 112.5v407h138v-417zM224 289h-138v371h138v-371z" />
    <glyph glyph-name="Iacute_J.loclNLD.ss05" horiz-adv-x="641" 
d="M276 885l-90 -155h-102l56 155h136zM637 885l-90 -155h-102l55 155h137zM566 243q0 -118 -68 -185.5t-184 -67.5q-114 0 -176 48.5t-62 140.5q0 10 2 34h137q-2 -18 -2 -25q0 -43 27 -64t76 -21q55 0 83.5 37.5t28.5 112.5v407h138v-417zM214 289h-138v371h138v-371z" />
    <glyph glyph-name="A.swsh" horiz-adv-x="889" 
d="M679 161h-259l-35 -96q-29 -88 -84 -131.5t-149 -43.5q-72 0 -117.5 27.5t-56.5 78.5l57 85q14 -49 40 -67t71 -18q47 0 74.5 28.5t54.5 103.5l158 429h-123q-55 0 -85 -25t-30 -70q0 -39 26.5 -65.5t70.5 -32.5l-43 -96q-79 7 -130 60t-51 136q0 92 61 144t170 52h337
l240 -660h-143zM645 263l-63 186l-29 100h-2l-28 -98l-67 -188h189z" />
    <glyph glyph-name="Aacute.swsh" horiz-adv-x="889" 
d="M595 730h-103l56 155h136zM679 161h-259l-35 -96q-29 -88 -84 -131.5t-149 -43.5q-72 0 -117.5 27.5t-56.5 78.5l57 85q14 -49 40 -67t71 -18q47 0 74.5 28.5t54.5 103.5l158 429h-123q-55 0 -85 -25t-30 -70q0 -39 26.5 -65.5t70.5 -32.5l-43 -96q-79 7 -130 60t-51 136
q0 92 61 144t170 52h337l240 -660h-143zM645 263l-63 186l-29 100h-2l-28 -98l-67 -188h189z" />
    <glyph glyph-name="Abreve.swsh" horiz-adv-x="889" 
d="M679 161h-259l-35 -96q-29 -88 -84 -131.5t-149 -43.5q-72 0 -117.5 27.5t-56.5 78.5l57 85q14 -49 40 -67t71 -18q47 0 74.5 28.5t54.5 103.5l158 429h-123q-55 0 -85 -25t-30 -70q0 -39 26.5 -65.5t70.5 -32.5l-43 -96q-79 7 -130 60t-51 136q0 92 61 144t170 52h337
l240 -660h-143zM645 263l-63 186l-29 100h-2l-28 -98l-67 -188h189zM670.5 765.5q-43.5 -42.5 -117.5 -42.5t-117.5 42.5t-43.5 114.5h93q0 -32 19 -53.5t49 -21.5t49 21.5t19 53.5h93q0 -72 -43.5 -114.5z" />
    <glyph glyph-name="Acircumflex.swsh" horiz-adv-x="889" 
d="M479 726h-106l111 167h138l111 -167h-106l-74 98zM679 161h-259l-35 -96q-29 -88 -84 -131.5t-149 -43.5q-72 0 -117.5 27.5t-56.5 78.5l57 85q14 -49 40 -67t71 -18q47 0 74.5 28.5t54.5 103.5l158 429h-123q-55 0 -85 -25t-30 -70q0 -39 26.5 -65.5t70.5 -32.5l-43 -96
q-79 7 -130 60t-51 136q0 92 61 144t170 52h337l240 -660h-143zM645 263l-63 186l-29 100h-2l-28 -98l-67 -188h189z" />
    <glyph glyph-name="Adieresis.swsh" horiz-adv-x="889" 
d="M679 161h-259l-35 -96q-29 -88 -84 -131.5t-149 -43.5q-72 0 -117.5 27.5t-56.5 78.5l57 85q14 -49 40 -67t71 -18q47 0 74.5 28.5t54.5 103.5l158 429h-123q-55 0 -85 -25t-30 -70q0 -39 26.5 -65.5t70.5 -32.5l-43 -96q-79 7 -130 60t-51 136q0 92 61 144t170 52h337
l240 -660h-143zM645 263l-63 186l-29 100h-2l-28 -98l-67 -188h189zM502 846q20 -19 20 -51t-20 -51t-55 -19q-34 0 -54 19t-20 51t20 51t54 19q35 0 55 -19zM712.5 846q20.5 -19 20.5 -51t-20.5 -51t-55.5 -19q-34 0 -54 19t-20 51t20 51t54 19q35 0 55.5 -19z" />
    <glyph glyph-name="Agrave.swsh" horiz-adv-x="889" 
d="M498 730l-89 155h136l56 -155h-103zM679 161h-259l-35 -96q-29 -88 -84 -131.5t-149 -43.5q-72 0 -117.5 27.5t-56.5 78.5l57 85q14 -49 40 -67t71 -18q47 0 74.5 28.5t54.5 103.5l158 429h-123q-55 0 -85 -25t-30 -70q0 -39 26.5 -65.5t70.5 -32.5l-43 -96
q-79 7 -130 60t-51 136q0 92 61 144t170 52h337l240 -660h-143zM645 263l-63 186l-29 100h-2l-28 -98l-67 -188h189z" />
    <glyph glyph-name="Amacron.swsh" horiz-adv-x="889" 
d="M679 161h-259l-35 -96q-29 -88 -84 -131.5t-149 -43.5q-72 0 -117.5 27.5t-56.5 78.5l57 85q14 -49 40 -67t71 -18q47 0 74.5 28.5t54.5 103.5l158 429h-123q-55 0 -85 -25t-30 -70q0 -39 26.5 -65.5t70.5 -32.5l-43 -96q-79 7 -130 60t-51 136q0 92 61 144t170 52h337
l240 -660h-143zM645 263l-63 186l-29 100h-2l-28 -98l-67 -188h189zM735 739h-364v91h364v-91z" />
    <glyph glyph-name="Aogonek.swsh" horiz-adv-x="889" 
d="M885 -193q-33 -22 -96 -22q-59 0 -95.5 28.5t-36.5 81.5q0 72 75 109l-53 157h-259l-35 -96q-29 -88 -84 -131.5t-149 -43.5q-72 0 -117.5 27.5t-56.5 78.5l57 85q14 -49 40 -67t71 -18q47 0 74.5 28.5t54.5 103.5l158 429h-123q-55 0 -85 -25t-30 -70q0 -39 26.5 -65.5
t70.5 -32.5l-43 -96q-79 7 -130 60t-51 136q0 92 61 144t170 52h337l240 -660q-67 -16 -93.5 -37t-26.5 -50q0 -22 16 -34.5t43 -12.5q33 0 50 11zM645 263l-63 186l-29 100h-2l-28 -98l-67 -188h189z" />
    <glyph glyph-name="Atilde.swsh" horiz-adv-x="889" 
d="M679 161h-259l-35 -96q-29 -88 -84 -131.5t-149 -43.5q-72 0 -117.5 27.5t-56.5 78.5l57 85q14 -49 40 -67t71 -18q47 0 74.5 28.5t54.5 103.5l158 429h-123q-55 0 -85 -25t-30 -70q0 -39 26.5 -65.5t70.5 -32.5l-43 -96q-79 7 -130 60t-51 136q0 92 61 144t170 52h337
l240 -660h-143zM645 263l-63 186l-29 100h-2l-28 -98l-67 -188h189zM708.5 765.5q-31.5 -37.5 -89.5 -37.5q-29 0 -48.5 10t-40.5 28q-14 12 -23.5 17.5t-20.5 5.5q-18 0 -28 -15t-14 -46h-84q8 150 126 150q29 0 48 -10t40 -28q15 -12 24 -17.5t20 -5.5q18 0 28 15t14 46
h84q-4 -75 -35.5 -112.5z" />
    <glyph glyph-name="E.swsh" horiz-adv-x="880" 
d="M842 111v-111h-509v557h-81q-55 0 -85 -25t-30 -70q0 -39 26.5 -65.5t70.5 -32.5l-43 -96q-79 7 -130 60t-51 136q0 92 61 144t170 52h587v-111h-357v-164h281v-106h-281v-168h371z" />
    <glyph glyph-name="Eacute.swsh" horiz-adv-x="880" 
d="M618 730h-103l56 155h136zM842 111v-111h-509v557h-81q-55 0 -85 -25t-30 -70q0 -39 26.5 -65.5t70.5 -32.5l-43 -96q-79 7 -130 60t-51 136q0 92 61 144t170 52h587v-111h-357v-164h281v-106h-281v-168h371z" />
    <glyph glyph-name="Ecaron.swsh" horiz-adv-x="880" 
d="M505 727l-111 167h106l74 -98l74 98h106l-111 -167h-138zM842 111v-111h-509v557h-81q-55 0 -85 -25t-30 -70q0 -39 26.5 -65.5t70.5 -32.5l-43 -96q-79 7 -130 60t-51 136q0 92 61 144t170 52h587v-111h-357v-164h281v-106h-281v-168h371z" />
    <glyph glyph-name="Ecircumflex.swsh" horiz-adv-x="880" 
d="M502 726h-106l111 167h138l111 -167h-106l-74 98zM842 111v-111h-509v557h-81q-55 0 -85 -25t-30 -70q0 -39 26.5 -65.5t70.5 -32.5l-43 -96q-79 7 -130 60t-51 136q0 92 61 144t170 52h587v-111h-357v-164h281v-106h-281v-168h371z" />
    <glyph glyph-name="Edieresis.swsh" horiz-adv-x="880" 
d="M842 111v-111h-509v557h-81q-55 0 -85 -25t-30 -70q0 -39 26.5 -65.5t70.5 -32.5l-43 -96q-79 7 -130 60t-51 136q0 92 61 144t170 52h587v-111h-357v-164h281v-106h-281v-168h371zM525 846q20 -19 20 -51t-20 -51t-55 -19q-34 0 -54 19t-20 51t20 51t54 19q35 0 55 -19z
M735.5 846q20.5 -19 20.5 -51t-20.5 -51t-55.5 -19q-34 0 -54 19t-20 51t20 51t54 19q35 0 55.5 -19z" />
    <glyph glyph-name="Edotaccent.swsh" horiz-adv-x="880" 
d="M842 111v-111h-509v557h-81q-55 0 -85 -25t-30 -70q0 -39 26.5 -65.5t70.5 -32.5l-43 -96q-79 7 -130 60t-51 136q0 92 61 144t170 52h587v-111h-357v-164h281v-106h-281v-168h371zM636 861q21 -19 21 -54t-21 -54t-60 -19q-38 0 -59 19t-21 54t21 54t59 19q39 0 60 -19z
" />
    <glyph glyph-name="Egrave.swsh" horiz-adv-x="880" 
d="M521 730l-89 155h136l56 -155h-103zM842 111v-111h-509v557h-81q-55 0 -85 -25t-30 -70q0 -39 26.5 -65.5t70.5 -32.5l-43 -96q-79 7 -130 60t-51 136q0 92 61 144t170 52h587v-111h-357v-164h281v-106h-281v-168h371z" />
    <glyph glyph-name="Emacron.swsh" horiz-adv-x="880" 
d="M842 111v-111h-509v557h-81q-55 0 -85 -25t-30 -70q0 -39 26.5 -65.5t70.5 -32.5l-43 -96q-79 7 -130 60t-51 136q0 92 61 144t170 52h587v-111h-357v-164h281v-106h-281v-168h371zM758 739h-364v91h364v-91z" />
    <glyph glyph-name="Eogonek.swsh" horiz-adv-x="880" 
d="M851 -193q-33 -22 -96 -22q-59 0 -95 28t-36 78q0 73 82 109h-373v557h-81q-55 0 -85 -25t-30 -70q0 -39 26.5 -65.5t70.5 -32.5l-43 -96q-79 7 -130 60t-51 136q0 92 61 144t170 52h587v-111h-357v-164h281v-106h-281v-168h371v-110l1 -1q-67 -16 -93.5 -37.5
t-26.5 -49.5q0 -22 15.5 -34.5t42.5 -12.5q33 0 50 11z" />
    <glyph glyph-name="F.swsh" horiz-adv-x="849" 
d="M461 549v-167h282v-112h-282v-270h-138v557h-71q-55 0 -85 -25t-30 -70q0 -39 26.5 -65.5t70.5 -32.5l-43 -96q-79 7 -130 60t-51 136q0 92 61 144t170 52h577v-111h-357z" />
    <glyph glyph-name="L.swsh" horiz-adv-x="675" 
d="M620 326.5q45 -52.5 45 -130.5q0 -96 -60 -146t-171 -50h-348v660h138v-549h200q118 0 118 87q0 43 -25.5 66.5t-71.5 24.5l43 93q87 -3 132 -55.5z" />
    <glyph glyph-name="Lacute.swsh" horiz-adv-x="675" 
d="M197 730h-103l56 155h136zM620 326.5q45 -52.5 45 -130.5q0 -96 -60 -146t-171 -50h-348v660h138v-549h200q118 0 118 87q0 43 -25.5 66.5t-71.5 24.5l43 93q87 -3 132 -55.5z" />
    <glyph glyph-name="Lcaron.swsh" horiz-adv-x="675" 
d="M222 727h-138l-111 167h106l74 -98l74 98h106zM620 326.5q45 -52.5 45 -130.5q0 -96 -60 -146t-171 -50h-348v660h138v-549h200q118 0 118 87q0 43 -25.5 66.5t-71.5 24.5l43 93q87 -3 132 -55.5z" />
    <glyph glyph-name="Lcommaaccent.swsh" horiz-adv-x="675" 
d="M620 326.5q45 -52.5 45 -130.5q0 -96 -60 -146t-171 -50h-348v660h138v-549h200q118 0 118 87q0 43 -25.5 66.5t-71.5 24.5l43 93q87 -3 132 -55.5zM364 -239h-93l36 173h126z" />
    <glyph glyph-name="Lslash.swsh" horiz-adv-x="713" 
d="M658 326.5q45 -52.5 45 -130.5q0 -96 -60 -146t-171 -50h-348v232l-109 -55v110l109 54v319h138v-249l173 87v-110l-173 -87v-190h199q119 0 119 87q0 43 -25.5 66.5t-71.5 24.5l43 93q87 -3 132 -55.5z" />
    <glyph glyph-name="M.swsh" horiz-adv-x="1127" 
d="M1041 660v-660h-124v344l6 193h-1l-183 -537h-113l-183 537h-2l7 -193v-250q0 -96 -57 -150t-159 -54q-76 0 -121.5 28.5t-64.5 84.5l61 82q13 -47 39.5 -68t73.5 -21q49 0 76 28.5t27 78.5v454h-71q-55 0 -85 -25t-30 -70q0 -39 26.5 -65.5t70.5 -32.5l-43 -96
q-79 7 -130 60t-51 136q0 92 61 144t170 52h282l119 -360l42 -149h2l43 148l118 361h194z" />
    <glyph glyph-name="N.swsh" horiz-adv-x="851" 
d="M931 620l-63 -80q-14 45 -38.5 64t-71.5 19q-49 0 -77 -32t-28 -86v-505h-158l-231 388l-57 111h-1l4 -117v-382h-124v660h157l231 -387l57 -112h2l-4 117v248q0 95 57.5 149t159.5 54q145 0 185 -109z" />
    <glyph glyph-name="Nacute.swsh" horiz-adv-x="851" 
d="M414 730h-103l56 155h136zM931 620l-63 -80q-14 45 -38.5 64t-71.5 19q-49 0 -77 -32t-28 -86v-505h-158l-231 388l-57 111h-1l4 -117v-382h-124v660h157l231 -387l57 -112h2l-4 117v248q0 95 57.5 149t159.5 54q145 0 185 -109z" />
    <glyph glyph-name="Ncaron.swsh" horiz-adv-x="851" 
d="M300 727l-111 167h106l74 -98l74 98h106l-111 -167h-138zM931 620l-63 -80q-14 45 -38.5 64t-71.5 19q-49 0 -77 -32t-28 -86v-505h-158l-231 388l-57 111h-1l4 -117v-382h-124v660h157l231 -387l57 -112h2l-4 117v248q0 95 57.5 149t159.5 54q145 0 185 -109z" />
    <glyph glyph-name="Ncommaaccent.swsh" horiz-adv-x="851" 
d="M931 620l-63 -80q-14 45 -38.5 64t-71.5 19q-49 0 -77 -32t-28 -86v-505h-158l-231 388l-57 111h-1l4 -117v-382h-124v660h157l231 -387l57 -112h2l-4 117v248q0 95 57.5 149t159.5 54q145 0 185 -109zM380 -239h-93l36 173h126z" />
    <glyph glyph-name="Ntilde.swsh" horiz-adv-x="851" 
d="M931 620l-63 -80q-14 45 -38.5 64t-71.5 19q-49 0 -77 -32t-28 -86v-505h-158l-231 388l-57 111h-1l4 -117v-382h-124v660h157l231 -387l57 -112h2l-4 117v248q0 95 57.5 149t159.5 54q145 0 185 -109zM527.5 765.5q-31.5 -37.5 -89.5 -37.5q-29 0 -48.5 10t-40.5 28
q-14 12 -23.5 17.5t-20.5 5.5q-18 0 -28 -15t-14 -46h-84q8 150 126 150q29 0 48 -10t40 -28q15 -12 24 -17.5t20 -5.5q18 0 28 15t14 46h84q-4 -75 -35.5 -112.5z" />
    <glyph glyph-name="R.swsh" horiz-adv-x="917" 
d="M583 253h-124v-155q0 -99 -59 -153.5t-164 -54.5q-151 0 -190 117l65 78q14 -47 40 -68t72 -21t73 30.5t27 80.5v450h-71q-55 0 -85 -25t-30 -70q0 -39 26.5 -65.5t70.5 -32.5l-43 -96q-79 7 -130 60t-51 136q0 92 61 144t170 52h373q113 0 176.5 -53.5t63.5 -150.5
q0 -71 -35 -119t-100 -69l174 -268h-155zM459 358h137q60 0 88.5 23.5t28.5 72.5t-28.5 72.5t-88.5 23.5h-137v-192z" />
    <glyph glyph-name="Racute.swsh" horiz-adv-x="917" 
d="M606 730h-103l56 155h136zM583 253h-124v-155q0 -99 -59 -153.5t-164 -54.5q-151 0 -190 117l65 78q14 -47 40 -68t72 -21t73 30.5t27 80.5v450h-71q-55 0 -85 -25t-30 -70q0 -39 26.5 -65.5t70.5 -32.5l-43 -96q-79 7 -130 60t-51 136q0 92 61 144t170 52h373
q113 0 176.5 -53.5t63.5 -150.5q0 -71 -35 -119t-100 -69l174 -268h-155zM459 358h137q60 0 88.5 23.5t28.5 72.5t-28.5 72.5t-88.5 23.5h-137v-192z" />
    <glyph glyph-name="Rcaron.swsh" horiz-adv-x="917" 
d="M493 727l-111 167h106l74 -98l74 98h106l-111 -167h-138zM583 253h-124v-155q0 -99 -59 -153.5t-164 -54.5q-151 0 -190 117l65 78q14 -47 40 -68t72 -21t73 30.5t27 80.5v450h-71q-55 0 -85 -25t-30 -70q0 -39 26.5 -65.5t70.5 -32.5l-43 -96q-79 7 -130 60t-51 136
q0 92 61 144t170 52h373q113 0 176.5 -53.5t63.5 -150.5q0 -71 -35 -119t-100 -69l174 -268h-155zM459 358h137q60 0 88.5 23.5t28.5 72.5t-28.5 72.5t-88.5 23.5h-137v-192z" />
    <glyph glyph-name="Rcommaaccent.swsh" horiz-adv-x="917" 
d="M583 253h-124v-155q0 -99 -59 -153.5t-164 -54.5q-151 0 -190 117l65 78q14 -47 40 -68t72 -21t73 30.5t27 80.5v450h-71q-55 0 -85 -25t-30 -70q0 -39 26.5 -65.5t70.5 -32.5l-43 -96q-79 7 -130 60t-51 136q0 92 61 144t170 52h373q113 0 176.5 -53.5t63.5 -150.5
q0 -71 -35 -119t-100 -69l174 -268h-155zM459 358h137q60 0 88.5 23.5t28.5 72.5t-28.5 72.5t-88.5 23.5h-137v-192zM593 -239h-93l36 173h126z" />
    <glyph glyph-name="S.swsh" horiz-adv-x="643" 
d="M120 -62q-72 48 -72 132q0 19 4 47l124 33q-5 -25 -5 -39q0 -55 38 -81.5t118 -26.5q70 0 106 27.5t36 77.5q0 41 -35.5 67t-128.5 47q-133 30 -189 81.5t-56 140.5q0 67 33 118t94.5 79.5t145.5 28.5q122 0 186 -48t71 -147l-127 -49q-2 67 -33 99t-99 32
q-61 0 -94.5 -28.5t-33.5 -80.5q0 -44 36.5 -71t129.5 -51q87 -21 137.5 -48t73 -66.5t22.5 -96.5q0 -69 -35.5 -120t-100 -78t-148.5 -27q-126 0 -198 48z" />
    <glyph glyph-name="Sacute.swsh" horiz-adv-x="643" 
d="M459 885l-89 -155h-103l56 155h136zM120 -62q-72 48 -72 132q0 19 4 47l124 33q-5 -25 -5 -39q0 -55 38 -81.5t118 -26.5q70 0 106 27.5t36 77.5q0 41 -35.5 67t-128.5 47q-133 30 -189 81.5t-56 140.5q0 67 33 118t94.5 79.5t145.5 28.5q122 0 186 -48t71 -147l-127 -49
q-2 67 -33 99t-99 32q-61 0 -94.5 -28.5t-33.5 -80.5q0 -44 36.5 -71t129.5 -51q87 -21 137.5 -48t73 -66.5t22.5 -96.5q0 -69 -35.5 -120t-100 -78t-148.5 -27q-126 0 -198 48z" />
    <glyph glyph-name="Scaron.swsh" horiz-adv-x="643" 
d="M395 727h-138l-111 167h106l74 -98l74 98h106zM120 -62q-72 48 -72 132q0 19 4 47l124 33q-5 -25 -5 -39q0 -55 38 -81.5t118 -26.5q70 0 106 27.5t36 77.5q0 41 -35.5 67t-128.5 47q-133 30 -189 81.5t-56 140.5q0 67 33 118t94.5 79.5t145.5 28.5q122 0 186 -48
t71 -147l-127 -49q-2 67 -33 99t-99 32q-61 0 -94.5 -28.5t-33.5 -80.5q0 -44 36.5 -71t129.5 -51q87 -21 137.5 -48t73 -66.5t22.5 -96.5q0 -69 -35.5 -120t-100 -78t-148.5 -27q-126 0 -198 48z" />
    <glyph glyph-name="Scedilla.swsh" horiz-adv-x="643" 
d="M540.5 -35.5q-61.5 -58.5 -166.5 -71.5q26 -18 39 -42.5t13 -51.5q0 -53 -36.5 -83.5t-96.5 -30.5q-78 0 -119 38l36 71q13 -14 31.5 -22t39.5 -8q24 0 39.5 14.5t15.5 38.5q0 25 -16 42.5t-58 33.5q-101 10 -157.5 56.5t-56.5 120.5q0 19 4 47l124 33q-5 -25 -5 -39
q0 -55 38 -81.5t118 -26.5q70 0 106 27.5t36 77.5q0 41 -35.5 67t-128.5 47q-133 30 -189 81.5t-56 140.5q0 67 33 118t94.5 79.5t145.5 28.5q122 0 186 -48t71 -147l-127 -49q-2 67 -33 99t-99 32q-61 0 -94.5 -28.5t-33.5 -80.5q0 -44 36.5 -71t129.5 -51
q87 -21 137.5 -48t73 -66.5t22.5 -96.5q0 -92 -61.5 -150.5z" />
    <glyph glyph-name="Scommaaccent.swsh" horiz-adv-x="643" 
d="M120 -62q-72 48 -72 132q0 19 4 47l124 33q-5 -25 -5 -39q0 -55 38 -81.5t118 -26.5q70 0 106 27.5t36 77.5q0 41 -35.5 67t-128.5 47q-133 30 -189 81.5t-56 140.5q0 67 33 118t94.5 79.5t145.5 28.5q122 0 186 -48t71 -147l-127 -49q-2 67 -33 99t-99 32
q-61 0 -94.5 -28.5t-33.5 -80.5q0 -44 36.5 -71t129.5 -51q87 -21 137.5 -48t73 -66.5t22.5 -96.5q0 -69 -35.5 -120t-100 -78t-148.5 -27q-126 0 -198 48zM316 -339h-93l36 173h126z" />
    <glyph glyph-name="T.swsh" horiz-adv-x="761" 
d="M733 549h-221v-549h-138v549h-119q-57 0 -87.5 -21.5t-30.5 -65.5q0 -39 26 -65.5t71 -32.5l-43 -96q-51 5 -92.5 30.5t-65 68.5t-23.5 97q0 92 61 144t170 52h492v-111z" />
    <glyph glyph-name="Tcaron.swsh" horiz-adv-x="761" 
d="M372 727l-111 167h106l74 -98l74 98h106l-111 -167h-138zM733 549h-221v-549h-138v549h-119q-57 0 -87.5 -21.5t-30.5 -65.5q0 -39 26 -65.5t71 -32.5l-43 -96q-51 5 -92.5 30.5t-65 68.5t-23.5 97q0 92 61 144t170 52h492v-111z" />
    <glyph glyph-name="uni0162.swsh" horiz-adv-x="761" 
d="M512 549v-548q57 -36 57 -100q0 -54 -36.5 -85t-96.5 -31q-79 0 -121 39l39 72q27 -30 68 -30q24 0 40.5 14.5t16.5 39.5q0 27 -17.5 44t-60.5 36h-27v549h-119q-57 0 -87.5 -21.5t-30.5 -65.5q0 -39 26 -65.5t71 -32.5l-43 -96q-51 5 -92.5 30.5t-65 68.5t-23.5 97
q0 92 61 144t170 52h492v-111h-221z" />
    <glyph glyph-name="uni021A.swsh" horiz-adv-x="761" 
d="M733 549h-221v-549h-138v549h-119q-57 0 -87.5 -21.5t-30.5 -65.5q0 -39 26 -65.5t71 -32.5l-43 -96q-51 5 -92.5 30.5t-65 68.5t-23.5 97q0 92 61 144t170 52h492v-111zM438 -239h-93l36 173h126z" />
    <glyph glyph-name="W.swsh" horiz-adv-x="1264" 
d="M1245 660l-192 -660h-155l-93 360l-31 156h-1l-31 -156l-92 -360h-158l-162 557h-77q-56 0 -86 -25t-30 -70q0 -39 26 -65.5t72 -32.5l-44 -96q-51 4 -92.5 29.5t-65 68.5t-23.5 98q0 92 61 144t170 52h207l128 -551l132 551h133l134 -551l127 551h143z" />
    <glyph glyph-name="Adieresis.titl" horiz-adv-x="671" 
d="M77 562.5q-16 15.5 -16 42.5q0 26 16 41.5t44 15.5q29 0 45.5 -15.5t16.5 -41.5q0 -27 -16.5 -42.5t-45.5 -15.5q-28 0 -44 15.5zM505.5 562.5q-16.5 15.5 -16.5 42.5q0 26 16.5 41.5t44.5 15.5t44.5 -15.5t16.5 -41.5q0 -27 -16.5 -42.5t-44.5 -15.5t-44.5 15.5z
M461 161h-254l-55 -161h-140l241 660h165l240 -660h-143zM427 263l-63 186l-29 100h-2l-28 -98l-64 -188h186z" />
    <glyph glyph-name="Odieresis.titl" horiz-adv-x="741" 
d="M538.5 629q71.5 -41 110 -117.5t38.5 -181.5t-38.5 -181.5t-110 -117.5t-168.5 -41t-168.5 41t-110 117.5t-38.5 181.5t38.5 181.5t110 117.5t168.5 41t168.5 -41zM110.5 646.5q16.5 -15.5 16.5 -42.5q0 -26 -17 -41.5t-45 -15.5q-27 0 -43.5 15.5t-16.5 41.5
q0 27 16.5 42.5t43.5 15.5q29 0 45.5 -15.5zM719.5 646.5q16.5 -15.5 16.5 -41.5q0 -27 -16.5 -42.5t-44.5 -15.5t-44.5 15.5t-16.5 42.5q0 26 16.5 41.5t44.5 15.5t44.5 -15.5zM241.5 498.5q-45.5 -58.5 -45.5 -168.5t45.5 -168.5t129.5 -58.5q83 0 128.5 58.5t45.5 168.5
t-45.5 168.5t-128.5 58.5q-84 0 -129.5 -58.5z" />
    <glyph glyph-name="Udieresis.titl" horiz-adv-x="716" 
d="M308 552q-18 17 -18 48q0 29 18.5 45.5t49.5 16.5q32 0 50.5 -17t18.5 -45q0 -30 -18.5 -47.5t-50.5 -17.5t-50 17zM640 261q0 -135 -71.5 -203t-210.5 -68t-210.5 68t-71.5 203v399h139v-394q0 -83 35 -123t108 -40t108 40t35 123v394h139v-399zM308 393q-18 17 -18 47
q0 29 18 46t50 17t50.5 -17t18.5 -46q0 -30 -18.5 -47t-50.5 -17t-50 17z" />
    <glyph glyph-name="a" unicode="a" horiz-adv-x="574" 
d="M563 87l-10 -83q-28 -14 -65 -14q-96 0 -115 75q-22 -37 -68 -56t-109 -19q-73 0 -114 33t-41 95q0 122 195 158l120 23v24q0 40 -22.5 63.5t-62.5 23.5q-46 0 -75 -20t-40 -65l-109 46q16 65 72 102t146 37q107 0 167 -46.5t60 -137.5v-205q0 -20 9 -29t28 -9q21 0 34 4
zM319.5 104.5q36.5 21.5 36.5 58.5v52l-107 -24q-34 -8 -50.5 -21.5t-16.5 -37.5t15 -36.5t42 -12.5q44 0 80.5 21.5z" />
    <glyph glyph-name="aacute" unicode="&#xe1;" horiz-adv-x="574" 
d="M563 87l-10 -83q-28 -14 -65 -14q-96 0 -115 75q-22 -37 -68 -56t-109 -19q-73 0 -114 33t-41 95q0 122 195 158l120 23v24q0 40 -22.5 63.5t-62.5 23.5q-46 0 -75 -20t-40 -65l-109 46q16 65 72 102t146 37q107 0 167 -46.5t60 -137.5v-205q0 -20 9 -29t28 -9q21 0 34 4
zM319.5 104.5q36.5 21.5 36.5 58.5v52l-107 -24q-34 -8 -50.5 -21.5t-16.5 -37.5t15 -36.5t42 -12.5q44 0 80.5 21.5zM411 742l-100 -170h-102l70 170h132z" />
    <glyph glyph-name="abreve" unicode="&#x103;" horiz-adv-x="574" 
d="M563 87l-10 -83q-28 -14 -65 -14q-96 0 -115 75q-22 -37 -68 -56t-109 -19q-73 0 -114 33t-41 95q0 122 195 158l120 23v24q0 40 -22.5 63.5t-62.5 23.5q-46 0 -75 -20t-40 -65l-109 46q16 65 72 102t146 37q107 0 167 -46.5t60 -137.5v-205q0 -20 9 -29t28 -9q21 0 34 4
zM319.5 104.5q36.5 21.5 36.5 58.5v52l-107 -24q-34 -8 -50.5 -21.5t-16.5 -37.5t15 -36.5t42 -12.5q44 0 80.5 21.5zM393.5 605.5q-43.5 -42.5 -117.5 -42.5t-117.5 42.5t-43.5 114.5h93q0 -32 19 -53.5t49 -21.5t49 21.5t19 53.5h93q0 -72 -43.5 -114.5z" />
    <glyph glyph-name="acircumflex" unicode="&#xe2;" horiz-adv-x="574" 
d="M563 87l-10 -83q-28 -14 -65 -14q-96 0 -115 75q-22 -37 -68 -56t-109 -19q-73 0 -114 33t-41 95q0 122 195 158l120 23v24q0 40 -22.5 63.5t-62.5 23.5q-46 0 -75 -20t-40 -65l-109 46q16 65 72 102t146 37q107 0 167 -46.5t60 -137.5v-205q0 -20 9 -29t28 -9q21 0 34 4
zM319.5 104.5q36.5 21.5 36.5 58.5v52l-107 -24q-34 -8 -50.5 -21.5t-16.5 -37.5t15 -36.5t42 -12.5q44 0 80.5 21.5zM350 565l-74 96l-74 -96h-105l110 171h138l110 -171h-105z" />
    <glyph glyph-name="adieresis" unicode="&#xe4;" horiz-adv-x="574" 
d="M563 87l-10 -83q-28 -14 -65 -14q-96 0 -115 75q-22 -37 -68 -56t-109 -19q-73 0 -114 33t-41 95q0 122 195 158l120 23v24q0 40 -22.5 63.5t-62.5 23.5q-46 0 -75 -20t-40 -65l-109 46q16 65 72 102t146 37q107 0 167 -46.5t60 -137.5v-205q0 -20 9 -29t28 -9q21 0 34 4
zM319.5 104.5q36.5 21.5 36.5 58.5v52l-107 -24q-34 -8 -50.5 -21.5t-16.5 -37.5t15 -36.5t42 -12.5q44 0 80.5 21.5zM225 686q20 -19 20 -51t-20 -51t-55 -19q-34 0 -54 19t-20 51t20 51t54 19q35 0 55 -19zM435.5 686q20.5 -19 20.5 -51t-20.5 -51t-55.5 -19q-34 0 -54 19
t-20 51t20 51t54 19q35 0 55.5 -19z" />
    <glyph glyph-name="agrave" unicode="&#xe0;" horiz-adv-x="574" 
d="M563 87l-10 -83q-28 -14 -65 -14q-96 0 -115 75q-22 -37 -68 -56t-109 -19q-73 0 -114 33t-41 95q0 122 195 158l120 23v24q0 40 -22.5 63.5t-62.5 23.5q-46 0 -75 -20t-40 -65l-109 46q16 65 72 102t146 37q107 0 167 -46.5t60 -137.5v-205q0 -20 9 -29t28 -9q21 0 34 4
zM319.5 104.5q36.5 21.5 36.5 58.5v52l-107 -24q-34 -8 -50.5 -21.5t-16.5 -37.5t15 -36.5t42 -12.5q44 0 80.5 21.5zM334 572h-102l-100 170h132z" />
    <glyph glyph-name="amacron" unicode="&#x101;" horiz-adv-x="574" 
d="M563 87l-10 -83q-28 -14 -65 -14q-96 0 -115 75q-22 -37 -68 -56t-109 -19q-73 0 -114 33t-41 95q0 122 195 158l120 23v24q0 40 -22.5 63.5t-62.5 23.5q-46 0 -75 -20t-40 -65l-109 46q16 65 72 102t146 37q107 0 167 -46.5t60 -137.5v-205q0 -20 9 -29t28 -9q21 0 34 4
zM319.5 104.5q36.5 21.5 36.5 58.5v52l-107 -24q-34 -8 -50.5 -21.5t-16.5 -37.5t15 -36.5t42 -12.5q44 0 80.5 21.5zM458 579h-364v91h364v-91z" />
    <glyph glyph-name="aogonek" unicode="&#x105;" horiz-adv-x="574" 
d="M541 -123l20 -71q-34 -21 -93 -21t-94.5 28t-35.5 79q0 82 98 120q-45 16 -57 64q-20 -41 -67.5 -63.5t-115.5 -22.5q-73 0 -114 33t-41 95q0 122 195 158l120 23v24q0 40 -22.5 63.5t-62.5 23.5q-46 0 -75 -20t-40 -65l-109 46q16 65 72 102t146 37q107 0 167 -46.5
t60 -137.5v-205q0 -20 9 -29t28 -9q21 0 34 4l-10 -83q-62 -15 -89 -37t-27 -53q0 -23 14 -35.5t40 -12.5q33 0 50 11zM319.5 104.5q36.5 21.5 36.5 58.5v52l-107 -24q-34 -8 -50.5 -21.5t-16.5 -37.5t15 -36.5t42 -12.5q44 0 80.5 21.5z" />
    <glyph glyph-name="aring" unicode="&#xe5;" horiz-adv-x="574" 
d="M563 87l-10 -83q-28 -14 -65 -14q-96 0 -115 75q-22 -37 -68 -56t-109 -19q-73 0 -114 33t-41 95q0 122 195 158l120 23v24q0 40 -22.5 63.5t-62.5 23.5q-46 0 -75 -20t-40 -65l-109 46q16 65 72 102t146 37q107 0 167 -46.5t60 -137.5v-205q0 -20 9 -29t28 -9q21 0 34 4
zM319.5 104.5q36.5 21.5 36.5 58.5v52l-107 -24q-34 -8 -50.5 -21.5t-16.5 -37.5t15 -36.5t42 -12.5q44 0 80.5 21.5zM371 767.5q35 -32.5 35 -87.5t-35 -87.5t-96 -32.5t-96.5 32.5t-35.5 87.5t35.5 87.5t96.5 32.5t96 -32.5zM232.5 722q-16.5 -16 -16.5 -42
q0 -25 16.5 -41t42.5 -16t42.5 16t16.5 41q0 26 -16.5 42t-42.5 16t-42.5 -16z" />
    <glyph glyph-name="atilde" unicode="&#xe3;" horiz-adv-x="574" 
d="M563 87l-10 -83q-28 -14 -65 -14q-96 0 -115 75q-22 -37 -68 -56t-109 -19q-73 0 -114 33t-41 95q0 122 195 158l120 23v24q0 40 -22.5 63.5t-62.5 23.5q-46 0 -75 -20t-40 -65l-109 46q16 65 72 102t146 37q107 0 167 -46.5t60 -137.5v-205q0 -20 9 -29t28 -9q21 0 34 4
zM319.5 104.5q36.5 21.5 36.5 58.5v52l-107 -24q-34 -8 -50.5 -21.5t-16.5 -37.5t15 -36.5t42 -12.5q44 0 80.5 21.5zM431.5 605.5q-31.5 -37.5 -89.5 -37.5q-29 0 -48.5 10t-40.5 28q-14 12 -23.5 17.5t-20.5 5.5q-18 0 -28 -15t-14 -46h-84q8 150 126 150q29 0 48 -10
t40 -28q15 -12 24 -17.5t20 -5.5q18 0 28 15t14 46h84q-4 -75 -35.5 -112.5z" />
    <glyph glyph-name="ae" unicode="&#xe6;" horiz-adv-x="882" 
d="M832 208h-335q8 -58 39 -87t78 -29q43 0 66.5 15.5t34.5 46.5l111 -41q-49 -123 -215 -123q-129 0 -185 96q-50 -96 -222 -96q-78 0 -120.5 34.5t-42.5 93.5q0 61 45.5 98.5t140.5 55.5l134 26v25q0 41 -24.5 64t-69.5 23q-83 0 -109 -82l-109 38q16 68 73.5 106
t150.5 38q58 0 100.5 -20.5t67.5 -60.5q29 39 71 60t94 21q111 0 170.5 -66t59.5 -172q0 -34 -4 -64zM533 379.5q-29 -29.5 -36 -87.5h215q-5 58 -29 87.5t-73 29.5q-48 0 -77 -29.5zM326.5 110q34.5 27 34.5 74v36l-92 -21q-47 -12 -67 -26t-20 -41q0 -25 15 -37t48 -12
q47 0 81.5 27z" />
    <glyph glyph-name="b" unicode="b" horiz-adv-x="629" 
d="M523 441q57 -69 57 -192q0 -122 -57 -190.5t-157 -68.5q-59 0 -102.5 29.5t-65.5 79.5l-5 -99h-121v719h137v-301q23 43 63 67.5t94 24.5q100 0 157 -69zM412 135q31 40 31 115t-31 115t-87 40q-50 0 -81 -35t-35 -98v-44q4 -64 35 -98.5t81 -34.5q56 0 87 40z" />
    <glyph glyph-name="c" unicode="c" horiz-adv-x="569" 
d="M455 470q55 -40 75 -107l-128 -46q-18 91 -97 91q-59 0 -90.5 -40.5t-31.5 -118.5t32 -117.5t89 -39.5q88 0 104 89l124 -40q-16 -69 -74.5 -110t-151.5 -41q-124 0 -192 68.5t-68 191.5t67.5 191.5t187.5 68.5q99 0 154 -40z" />
    <glyph glyph-name="cacute" unicode="&#x107;" horiz-adv-x="569" 
d="M455 470q55 -40 75 -107l-128 -46q-18 91 -97 91q-59 0 -90.5 -40.5t-31.5 -118.5t32 -117.5t89 -39.5q88 0 104 89l124 -40q-16 -69 -74.5 -110t-151.5 -41q-124 0 -192 68.5t-68 191.5t67.5 191.5t187.5 68.5q99 0 154 -40zM431 742l-100 -170h-102l70 170h132z" />
    <glyph glyph-name="ccaron" unicode="&#x10d;" horiz-adv-x="569" 
d="M455 470q55 -40 75 -107l-128 -46q-18 91 -97 91q-59 0 -90.5 -40.5t-31.5 -118.5t32 -117.5t89 -39.5q88 0 104 89l124 -40q-16 -69 -74.5 -110t-151.5 -41q-124 0 -192 68.5t-68 191.5t67.5 191.5t187.5 68.5q99 0 154 -40zM363 572h-138l-110 170h105l74 -95l74 95
h105z" />
    <glyph glyph-name="ccedilla" unicode="&#xe7;" horiz-adv-x="569" 
d="M477.5 46.5q-41.5 -38.5 -106.5 -50.5q27 -19 41 -44.5t14 -52.5q0 -53 -36.5 -83.5t-96.5 -30.5q-78 0 -119 38l36 71q13 -14 31.5 -22t39.5 -8q24 0 39.5 14.5t15.5 38.5q0 25 -16 42t-57 33q-104 12 -160.5 79t-56.5 179q0 123 67.5 191.5t187.5 68.5q99 0 154 -40
t75 -107l-128 -46q-18 91 -97 91q-59 0 -90.5 -40.5t-31.5 -118.5t32 -117.5t89 -39.5q88 0 104 89l124 -40q-13 -56 -54.5 -94.5z" />
    <glyph glyph-name="d" unicode="d" horiz-adv-x="629" 
d="M556 719v-719h-122l-6 93q-22 -47 -65.5 -75t-99.5 -28q-100 0 -157 68.5t-57 190.5q0 123 57 192t157 69q54 0 94 -24.5t62 -67.5v301h137zM388 134q31 39 31 111v10q0 71 -31 110.5t-85 39.5q-55 0 -86 -40t-31 -115t31 -115t86 -40q54 0 85 39z" />
    <glyph glyph-name="eth" unicode="&#xf0;" horiz-adv-x="610" 
d="M462 607q94 -126 94 -309q0 -152 -64 -230t-197 -78q-115 0 -180.5 66.5t-65.5 184.5q0 77 30.5 133.5t85 86.5t124.5 30q107 0 152 -70q-21 97 -77 163l-172 -39l-10 53l145 25q-54 51 -141 102h140q55 -31 103 -79l116 29l14 -54zM394 133q32 41 32 108q0 76 -30.5 115
t-88.5 39t-88.5 -39t-30.5 -115q0 -73 30 -111t86 -38q58 0 90 41z" />
    <glyph glyph-name="dcaron" unicode="&#x10f;" horiz-adv-x="687" 
d="M734 719l-48 -224h-82l20 224h110zM419 719h137v-719h-122l-6 93q-22 -47 -65.5 -75t-99.5 -28q-100 0 -157 68.5t-57 190.5q0 123 57 192t157 69q54 0 94 -24.5t62 -67.5v301zM388 134q31 39 31 111v10q0 71 -31 110.5t-85 39.5q-55 0 -86 -40t-31 -115t31 -115t86 -40
q54 0 85 39z" />
    <glyph glyph-name="dcroat" unicode="&#x111;" horiz-adv-x="628" 
d="M633 548h-77v-548h-122l-6 93q-22 -47 -65.5 -75t-99.5 -28q-100 0 -157 68.5t-57 190.5q0 123 57 192t157 69q54 0 94 -24.5t62 -67.5v130h-140v84h140v87h137v-87h77v-84zM388 134q31 39 31 111v10q0 71 -31 110.5t-85 39.5q-55 0 -86 -40t-31 -115t31 -115t86 -40
q54 0 85 39z" />
    <glyph glyph-name="e" unicode="e" horiz-adv-x="582" 
d="M535 198h-354q21 -106 125 -106q43 0 71 16t39 46l112 -41q-24 -60 -80.5 -91.5t-141.5 -31.5q-124 0 -192 68.5t-68 191.5t66 191.5t186 68.5q116 0 178.5 -67t62.5 -191q0 -28 -4 -54zM217.5 380q-29.5 -29 -37.5 -86h233q-8 56 -38 85.5t-78 29.5q-50 0 -79.5 -29z
" />
    <glyph glyph-name="eacute" unicode="&#xe9;" horiz-adv-x="582" 
d="M535 198h-354q21 -106 125 -106q43 0 71 16t39 46l112 -41q-24 -60 -80.5 -91.5t-141.5 -31.5q-124 0 -192 68.5t-68 191.5t66 191.5t186 68.5q116 0 178.5 -67t62.5 -191q0 -28 -4 -54zM217.5 380q-29.5 -29 -37.5 -86h233q-8 56 -38 85.5t-78 29.5q-50 0 -79.5 -29z
M430 742l-100 -170h-102l70 170h132z" />
    <glyph glyph-name="ecaron" unicode="&#x11b;" horiz-adv-x="582" 
d="M535 198h-354q21 -106 125 -106q43 0 71 16t39 46l112 -41q-24 -60 -80.5 -91.5t-141.5 -31.5q-124 0 -192 68.5t-68 191.5t66 191.5t186 68.5q116 0 178.5 -67t62.5 -191q0 -28 -4 -54zM217.5 380q-29.5 -29 -37.5 -86h233q-8 56 -38 85.5t-78 29.5q-50 0 -79.5 -29z
M362 572h-138l-110 170h105l74 -95l74 95h105z" />
    <glyph glyph-name="ecircumflex" unicode="&#xea;" horiz-adv-x="582" 
d="M535 198h-354q21 -106 125 -106q43 0 71 16t39 46l112 -41q-24 -60 -80.5 -91.5t-141.5 -31.5q-124 0 -192 68.5t-68 191.5t66 191.5t186 68.5q116 0 178.5 -67t62.5 -191q0 -28 -4 -54zM217.5 380q-29.5 -29 -37.5 -86h233q-8 56 -38 85.5t-78 29.5q-50 0 -79.5 -29z
M369 565l-74 96l-74 -96h-105l110 171h138l110 -171h-105z" />
    <glyph glyph-name="edieresis" unicode="&#xeb;" horiz-adv-x="582" 
d="M535 198h-354q21 -106 125 -106q43 0 71 16t39 46l112 -41q-24 -60 -80.5 -91.5t-141.5 -31.5q-124 0 -192 68.5t-68 191.5t66 191.5t186 68.5q116 0 178.5 -67t62.5 -191q0 -28 -4 -54zM217.5 380q-29.5 -29 -37.5 -86h233q-8 56 -38 85.5t-78 29.5q-50 0 -79.5 -29z
M244 686q20 -19 20 -51t-20 -51t-55 -19q-34 0 -54 19t-20 51t20 51t54 19q35 0 55 -19zM454.5 686q20.5 -19 20.5 -51t-20.5 -51t-55.5 -19q-34 0 -54 19t-20 51t20 51t54 19q35 0 55.5 -19z" />
    <glyph glyph-name="edotaccent" unicode="&#x117;" horiz-adv-x="582" 
d="M535 198h-354q21 -106 125 -106q43 0 71 16t39 46l112 -41q-24 -60 -80.5 -91.5t-141.5 -31.5q-124 0 -192 68.5t-68 191.5t66 191.5t186 68.5q116 0 178.5 -67t62.5 -191q0 -28 -4 -54zM217.5 380q-29.5 -29 -37.5 -86h233q-8 56 -38 85.5t-78 29.5q-50 0 -79.5 -29z
M355 701q21 -19 21 -54t-21 -54t-60 -19q-38 0 -59 19t-21 54t21 54t59 19q39 0 60 -19z" />
    <glyph glyph-name="egrave" unicode="&#xe8;" horiz-adv-x="582" 
d="M535 198h-354q21 -106 125 -106q43 0 71 16t39 46l112 -41q-24 -60 -80.5 -91.5t-141.5 -31.5q-124 0 -192 68.5t-68 191.5t66 191.5t186 68.5q116 0 178.5 -67t62.5 -191q0 -28 -4 -54zM217.5 380q-29.5 -29 -37.5 -86h233q-8 56 -38 85.5t-78 29.5q-50 0 -79.5 -29z
M353 572h-102l-100 170h132z" />
    <glyph glyph-name="emacron" unicode="&#x113;" horiz-adv-x="582" 
d="M535 198h-354q21 -106 125 -106q43 0 71 16t39 46l112 -41q-24 -60 -80.5 -91.5t-141.5 -31.5q-124 0 -192 68.5t-68 191.5t66 191.5t186 68.5q116 0 178.5 -67t62.5 -191q0 -28 -4 -54zM217.5 380q-29.5 -29 -37.5 -86h233q-8 56 -38 85.5t-78 29.5q-50 0 -79.5 -29z
M477 579h-364v91h364v-91z" />
    <glyph glyph-name="eogonek" unicode="&#x119;" horiz-adv-x="582" 
d="M535 198h-354q21 -106 125 -106q43 0 71 16t39 46l112 -41q-35 -86 -133 -112q-39 -22 -57.5 -42.5t-18.5 -42.5q0 -23 15.5 -36.5t41.5 -13.5q33 0 50 11l20 -71q-34 -21 -95 -21q-59 0 -95.5 28.5t-36.5 79.5q0 58 55 98q-109 9 -168.5 76.5t-59.5 182.5
q0 123 66 191.5t186 68.5q116 0 178.5 -67t62.5 -191q0 -28 -4 -54zM217.5 380q-29.5 -29 -37.5 -86h233q-8 56 -38 85.5t-78 29.5q-50 0 -79.5 -29z" />
    <glyph glyph-name="f" unicode="f" horiz-adv-x="407" 
d="M239 500h158v-102h-152v-398h-137v398h-87v102h87v60q0 82 51 125.5t138 43.5q33 0 60.5 -7t43.5 -19l-19 -91q-23 15 -57 15q-86 0 -86 -77v-50z" />
    <glyph glyph-name="g" unicode="g" horiz-adv-x="560" 
d="M502.5 58q44.5 -36 44.5 -103q0 -80 -74 -125t-195 -45q-125 0 -185.5 33t-60.5 90q0 34 23 59t68 36q-34 14 -54 39.5t-20 60.5q0 36 21 62t58 39q-38 22 -58 56.5t-20 79.5q0 79 61.5 124.5t167.5 45.5q54 0 101 -13q13 59 50.5 92.5t101.5 29.5l18 -98q-7 1 -21 1
q-37 0 -61.5 -13t-34.5 -35q37 -22 56.5 -56t19.5 -78q0 -78 -61.5 -123.5t-168.5 -45.5q-49 0 -90 9q-39 -10 -39 -45q0 -20 15 -30.5t42 -10.5h169q82 0 126.5 -36zM213.5 401q-25.5 -23 -25.5 -60q0 -38 25.5 -61t65.5 -23q41 0 66.5 23t25.5 61q0 37 -25.5 60t-66.5 23
q-40 0 -65.5 -23zM397 -103.5q38 17.5 38 44.5q0 21 -17.5 31.5t-57.5 10.5h-136q-83 0 -83 -45q0 -28 37 -43.5t111 -15.5q70 0 108 17.5z" />
    <glyph glyph-name="gbreve" unicode="&#x11f;" horiz-adv-x="549" 
d="M164 605.5q-44 42.5 -44 114.5h94q0 -32 19 -53.5t49 -21.5t48.5 21.5t18.5 53.5h94q0 -72 -43.5 -114.5t-117.5 -42.5t-118 42.5zM484.5 507q-27.5 -16 -32.5 -51q51 -45 51 -116q0 -78 -62 -123.5t-168 -45.5q-50 0 -90 9q-39 -10 -39 -45q0 -20 15 -30.5t42 -10.5h169
q81 0 125.5 -36t44.5 -103q0 -80 -74 -125t-194 -45q-125 0 -186 33t-61 90q0 34 23.5 59t68.5 36q-34 14 -54 39.5t-20 60.5q0 36 21 62t58 39q-38 22 -58 56.5t-20 79.5q0 79 61.5 124.5t167.5 45.5q70 0 125 -22q4 57 44 94t96 37l19 -98q-45 2 -72.5 -14zM339 280
q26 23 26 61q0 37 -26 60t-66 23t-65.5 -23t-25.5 -60q0 -38 25.5 -61t65.5 -23t66 23zM217 -17q-83 0 -83 -45q0 -28 37 -43.5t112 -15.5q70 0 107.5 17.5t37.5 44.5q0 21 -17 31.5t-58 10.5h-136z" />
    <glyph glyph-name="h" unicode="h" horiz-adv-x="619" 
d="M500.5 463q49.5 -47 49.5 -135v-328h-137v288q0 114 -89 114q-48 0 -81.5 -34t-33.5 -104v-264h-137v719h137v-304q23 48 64.5 71.5t96.5 23.5q81 0 130.5 -47z" />
    <glyph glyph-name="i" unicode="i" horiz-adv-x="282" 
d="M56 645q0 74 85 74t85 -74q0 -73 -85 -73t-85 73zM209 0h-137v500h137v-500z" />
    <glyph glyph-name="dotlessi" unicode="&#x131;" horiz-adv-x="282" 
d="M209 0h-137v500h137v-500z" />
    <glyph glyph-name="iacute" unicode="&#xed;" horiz-adv-x="282" 
d="M209 0h-137v500h137v-500zM282 742l-100 -170h-102l70 170h132z" />
    <glyph glyph-name="icircumflex" unicode="&#xee;" horiz-adv-x="282" 
d="M209 0h-137v500h137v-500zM215 565l-74 96l-74 -96h-105l110 171h138l110 -171h-105z" />
    <glyph glyph-name="idieresis" unicode="&#xef;" horiz-adv-x="282" 
d="M-2 582.5q-19 18.5 -19 52.5t19 52.5t53 18.5t53 -18.5t19 -52.5t-19 -52.5t-53 -18.5t-53 18.5zM178 582.5q-19 18.5 -19 52.5t19 52.5t53 18.5t53 -18.5t19 -52.5t-19 -52.5t-53 -18.5t-53 18.5zM209 0h-137v500h137v-500z" />
    <glyph glyph-name="i.loclTRK" horiz-adv-x="282" 
d="M56 645q0 74 85 74t85 -74q0 -73 -85 -73t-85 73zM209 0h-137v500h137v-500z" />
    <glyph glyph-name="igrave" unicode="&#xec;" horiz-adv-x="282" 
d="M209 0h-137v500h137v-500zM199 572h-102l-100 170h132z" />
    <glyph glyph-name="ij" unicode="&#x133;" horiz-adv-x="563" 
d="M56 645q0 74 85 74t85 -74q0 -73 -85 -73t-85 73zM209 0h-137v500h137v-500zM486 699.5q22 -19.5 22 -54.5t-22 -54t-63 -19t-63 19t-22 54t22 54.5t63 19.5t63 -19.5zM491 -37q0 -93 -48 -135.5t-130 -42.5q-72 0 -120 32l22 98q27 -24 70 -24q34 0 51.5 20t17.5 65v524
h137v-537z" />
    <glyph glyph-name="imacron" unicode="&#x12b;" horiz-adv-x="282" 
d="M268 579h-254v91h254v-91zM209 0h-137v500h137v-500z" />
    <glyph glyph-name="iogonek" unicode="&#x12f;" horiz-adv-x="282" 
d="M56 645q0 74 85 74t85 -74q0 -73 -85 -73t-85 73zM233 -192q-37 -23 -98 -23q-58 0 -93.5 28t-35.5 78q0 68 78 109h-12v500h137v-500q-55 -20 -79.5 -41t-24.5 -48q0 -21 14 -33t40 -12q31 0 52 12z" />
    <glyph glyph-name="j" unicode="j" horiz-adv-x="281" 
d="M204 699.5q22 -19.5 22 -54.5t-22 -54t-63 -19t-63 19t-22 54t22 54.5t63 19.5t63 -19.5zM209 -37q0 -93 -48 -135.5t-130 -42.5q-72 0 -120 32l22 98q27 -24 70 -24q34 0 51.5 20t17.5 65v524h137v-537z" />
    <glyph glyph-name="k" unicode="k" horiz-adv-x="602" 
d="M300 221l-91 -97v-124h-137v719h137v-447l217 228h155l-188 -196l200 -304h-155z" />
    <glyph glyph-name="l" unicode="l" horiz-adv-x="319" 
d="M207 159q0 -36 10.5 -50t38.5 -14q17 0 29.5 2.5t29.5 8.5l-12 -95q-16 -10 -42 -15.5t-51 -5.5q-73 0 -106.5 35.5t-33.5 113.5v580h137v-560z" />
    <glyph glyph-name="lacute" unicode="&#x13a;" horiz-adv-x="325" 
d="M259 924l-72 -145h-102l45 145h129zM207 159q0 -36 10.5 -50t38.5 -14q17 0 29.5 2.5t29.5 8.5l-12 -95q-16 -10 -42 -15.5t-51 -5.5q-73 0 -106.5 35.5t-33.5 113.5v580h137v-560z" />
    <glyph glyph-name="lcaron" unicode="&#x13e;" horiz-adv-x="363" 
d="M334 495h-82l21 224h110zM207 159q0 -36 10.5 -50t38.5 -14q17 0 29.5 2.5t29.5 8.5l-12 -95q-16 -10 -42 -15.5t-51 -5.5q-73 0 -106.5 35.5t-33.5 113.5v580h137v-560z" />
    <glyph glyph-name="ldot" unicode="&#x140;" horiz-adv-x="464" 
d="M207 159q0 -36 10.5 -50t38.5 -14q17 0 29.5 2.5t29.5 8.5l-12 -95q-16 -10 -42 -15.5t-51 -5.5q-73 0 -106.5 35.5t-33.5 113.5v580h137v-560zM435.5 413.5q23.5 -21.5 23.5 -59.5t-23.5 -59.5t-63.5 -21.5t-63.5 21.5t-23.5 59.5t23.5 59.5t63.5 21.5t63.5 -21.5z" />
    <glyph glyph-name="lslash" unicode="&#x142;" horiz-adv-x="386" 
d="M250 338v-179q0 -36 10.5 -50t38.5 -14q17 0 29.5 2.5t29.5 8.5l-12 -95q-16 -10 -41.5 -15.5t-51.5 -5.5q-73 0 -106.5 35.5t-33.5 113.5v116l-90 -58v109l90 48v365h137v-284l110 72v-110z" />
    <glyph glyph-name="m" unicode="m" horiz-adv-x="945" 
d="M825.5 463q50.5 -47 50.5 -135v-328h-137v301q0 52 -23 76.5t-63 24.5q-48 0 -79 -35t-31 -98v-269h-137v301q0 52 -23 76.5t-64 24.5q-45 0 -77.5 -34.5t-32.5 -102.5v-265h-137v500h123l4 -89q25 49 68.5 74t97.5 25q56 0 99.5 -26t63.5 -75q24 49 70 75t100 26
q77 0 127.5 -47z" />
    <glyph glyph-name="n" unicode="n" horiz-adv-x="619" 
d="M500.5 463q49.5 -47 49.5 -135v-328h-137v288q0 114 -89 114q-48 0 -81.5 -34t-33.5 -104v-264h-137v500h123l4 -89q25 49 69 74t102 25q81 0 130.5 -47z" />
    <glyph glyph-name="nacute" unicode="&#x144;" horiz-adv-x="619" 
d="M500.5 463q49.5 -47 49.5 -135v-328h-137v288q0 114 -89 114q-48 0 -81.5 -34t-33.5 -104v-264h-137v500h123l4 -89q25 49 69 74t102 25q81 0 130.5 -47zM450 742l-100 -170h-102l70 170h132z" />
    <glyph glyph-name="ncaron" unicode="&#x148;" horiz-adv-x="619" 
d="M500.5 463q49.5 -47 49.5 -135v-328h-137v288q0 114 -89 114q-48 0 -81.5 -34t-33.5 -104v-264h-137v500h123l4 -89q25 49 69 74t102 25q81 0 130.5 -47zM381 572h-138l-110 170h105l74 -95l74 95h105z" />
    <glyph glyph-name="ntilde" unicode="&#xf1;" horiz-adv-x="619" 
d="M500.5 463q49.5 -47 49.5 -135v-328h-137v288q0 114 -89 114q-48 0 -81.5 -34t-33.5 -104v-264h-137v500h123l4 -89q25 49 69 74t102 25q81 0 130.5 -47zM470.5 605.5q-31.5 -37.5 -89.5 -37.5q-29 0 -48.5 10t-40.5 28q-14 12 -23.5 17.5t-20.5 5.5q-18 0 -28 -15
t-14 -46h-84q8 150 126 150q29 0 48 -10t40 -28q15 -12 24 -17.5t20 -5.5q18 0 28 15t14 46h84q-4 -75 -35.5 -112.5z" />
    <glyph glyph-name="o" unicode="o" 
d="M490.5 441q67.5 -69 67.5 -191t-67.5 -191t-188.5 -69t-188.5 69t-67.5 191t67.5 191t188.5 69t188.5 -69zM213.5 368.5q-30.5 -39.5 -30.5 -118.5t30.5 -118.5t88.5 -39.5t88.5 39.5t30.5 118.5t-30.5 118.5t-88.5 39.5t-88.5 -39.5z" />
    <glyph glyph-name="oacute" unicode="&#xf3;" 
d="M490.5 441q67.5 -69 67.5 -191t-67.5 -191t-188.5 -69t-188.5 69t-67.5 191t67.5 191t188.5 69t188.5 -69zM213.5 368.5q-30.5 -39.5 -30.5 -118.5t30.5 -118.5t88.5 -39.5t88.5 39.5t30.5 118.5t-30.5 118.5t-88.5 39.5t-88.5 -39.5zM437 742l-100 -170h-102l70 170h132
z" />
    <glyph glyph-name="ocircumflex" unicode="&#xf4;" 
d="M490.5 441q67.5 -69 67.5 -191t-67.5 -191t-188.5 -69t-188.5 69t-67.5 191t67.5 191t188.5 69t188.5 -69zM213.5 368.5q-30.5 -39.5 -30.5 -118.5t30.5 -118.5t88.5 -39.5t88.5 39.5t30.5 118.5t-30.5 118.5t-88.5 39.5t-88.5 -39.5zM376 565l-74 96l-74 -96h-105
l110 171h138l110 -171h-105z" />
    <glyph glyph-name="odieresis" unicode="&#xf6;" 
d="M490.5 441q67.5 -69 67.5 -191t-67.5 -191t-188.5 -69t-188.5 69t-67.5 191t67.5 191t188.5 69t188.5 -69zM213.5 368.5q-30.5 -39.5 -30.5 -118.5t30.5 -118.5t88.5 -39.5t88.5 39.5t30.5 118.5t-30.5 118.5t-88.5 39.5t-88.5 -39.5zM251 686q20 -19 20 -51t-20 -51
t-55 -19q-34 0 -54 19t-20 51t20 51t54 19q35 0 55 -19zM461.5 686q20.5 -19 20.5 -51t-20.5 -51t-55.5 -19q-34 0 -54 19t-20 51t20 51t54 19q35 0 55.5 -19z" />
    <glyph glyph-name="ograve" unicode="&#xf2;" 
d="M490.5 441q67.5 -69 67.5 -191t-67.5 -191t-188.5 -69t-188.5 69t-67.5 191t67.5 191t188.5 69t188.5 -69zM213.5 368.5q-30.5 -39.5 -30.5 -118.5t30.5 -118.5t88.5 -39.5t88.5 39.5t30.5 118.5t-30.5 118.5t-88.5 39.5t-88.5 -39.5zM360 572h-102l-100 170h132z" />
    <glyph glyph-name="ohungarumlaut" unicode="&#x151;" 
d="M490.5 441q67.5 -69 67.5 -191t-67.5 -191t-188.5 -69t-188.5 69t-67.5 191t67.5 191t188.5 69t188.5 -69zM213.5 368.5q-30.5 -39.5 -30.5 -118.5t30.5 -118.5t88.5 -39.5t88.5 39.5t30.5 118.5t-30.5 118.5t-88.5 39.5t-88.5 -39.5zM236 572h-98l72 170h122zM435 572
h-98l71 170h123z" />
    <glyph glyph-name="omacron" unicode="&#x14d;" 
d="M490.5 441q67.5 -69 67.5 -191t-67.5 -191t-188.5 -69t-188.5 69t-67.5 191t67.5 191t188.5 69t188.5 -69zM213.5 368.5q-30.5 -39.5 -30.5 -118.5t30.5 -118.5t88.5 -39.5t88.5 39.5t30.5 118.5t-30.5 118.5t-88.5 39.5t-88.5 -39.5zM484 579h-364v91h364v-91z" />
    <glyph glyph-name="oslash" unicode="&#xf8;" horiz-adv-x="605" 
d="M451 472l39 50h67l-65 -83q66 -68 66 -189q0 -122 -67.5 -191t-188.5 -69q-82 0 -140 32l-40 -53h-67l64 85q-36 33 -54.5 83t-18.5 113q0 122 67.5 191t188.5 69q88 0 149 -38zM207 156l28 40l141 187q-28 25 -74 25q-58 0 -88.5 -39.5t-30.5 -118.5q0 -56 23 -94h1z
M390.5 131.5q30.5 39.5 30.5 118.5q0 51 -19 83h-1l-25 -37l-140 -185q25 -19 66 -19q58 0 88.5 39.5z" />
    <glyph glyph-name="otilde" unicode="&#xf5;" 
d="M490.5 441q67.5 -69 67.5 -191t-67.5 -191t-188.5 -69t-188.5 69t-67.5 191t67.5 191t188.5 69t188.5 -69zM213.5 368.5q-30.5 -39.5 -30.5 -118.5t30.5 -118.5t88.5 -39.5t88.5 39.5t30.5 118.5t-30.5 118.5t-88.5 39.5t-88.5 -39.5zM457.5 605.5
q-31.5 -37.5 -89.5 -37.5q-29 0 -48.5 10t-40.5 28q-14 12 -23.5 17.5t-20.5 5.5q-18 0 -28 -15t-14 -46h-84q8 150 126 150q29 0 48 -10t40 -28q15 -12 24 -17.5t20 -5.5q18 0 28 15t14 46h84q-4 -75 -35.5 -112.5z" />
    <glyph glyph-name="oe" unicode="&#x153;" horiz-adv-x="967" 
d="M917 215h-354q15 -123 127 -123q43 0 71.5 16t38.5 46l112 -41q-24 -60 -80.5 -91.5t-141.5 -31.5q-66 0 -115.5 24.5t-78.5 71.5q-30 -47 -80 -71.5t-117 -24.5q-118 0 -185.5 69t-67.5 191t67.5 191t185.5 69q67 0 116.5 -24.5t79.5 -70.5q29 46 76 70.5t111 24.5
q76 0 130.5 -30.5t82 -84.5t27.5 -123q0 -35 -5 -57zM601.5 379q-30.5 -30 -37.5 -88h228q-7 57 -34.5 87.5t-75.5 30.5q-50 0 -80.5 -30zM392.5 131.5q30.5 39.5 30.5 118.5t-30.5 118.5t-88.5 39.5q-118 0 -118 -158t118 -158q58 0 88.5 39.5z" />
    <glyph glyph-name="p" unicode="p" horiz-adv-x="629" 
d="M523 441.5q57 -68.5 57 -190.5q0 -123 -57 -192t-157 -69q-54 0 -94 24.5t-63 67.5v-292h-137v710h121l5 -99q22 50 65.5 79.5t102.5 29.5q100 0 157 -68.5zM412 135q31 40 31 115t-31 115t-87 40q-50 0 -81 -34.5t-35 -98.5v-44q4 -63 35 -98t81 -35q56 0 87 40z" />
    <glyph glyph-name="thorn" unicode="&#xfe;" horiz-adv-x="629" 
d="M522 443.5q58 -66.5 58 -190.5q0 -89 -29 -148t-77.5 -87t-107.5 -28q-53 0 -93.5 22.5t-63.5 61.5v-284h-137v929h137v-299q24 42 64.5 66t95.5 24q95 0 153 -66.5zM412.5 134.5q30.5 39.5 30.5 115.5t-30.5 115.5t-87.5 39.5q-53 0 -84.5 -39t-31.5 -111v-10
q0 -71 31 -110.5t85 -39.5q57 0 87.5 39.5z" />
    <glyph glyph-name="q" unicode="q" horiz-adv-x="629" 
d="M557 500v-710h-137v293q-22 -43 -62.5 -68t-93.5 -25q-100 0 -157.5 69t-57.5 192q0 122 57 190.5t157 68.5q58 0 102 -29.5t66 -78.5l6 98h120zM389 134.5q31 39.5 31 110.5v10q0 72 -31 111t-85 39q-55 0 -86 -39.5t-31 -115.5t31 -115.5t86 -39.5q54 0 85 39.5z" />
    <glyph glyph-name="r" unicode="r" horiz-adv-x="422" 
d="M409 499l-17 -120q-23 15 -63 15q-49 0 -84.5 -35.5t-35.5 -99.5v-259h-137v500h119l9 -98q41 108 155 108q35 0 54 -11z" />
    <glyph glyph-name="racute" unicode="&#x155;" horiz-adv-x="422" 
d="M409 499l-17 -120q-23 15 -63 15q-49 0 -84.5 -35.5t-35.5 -99.5v-259h-137v500h119l9 -98q41 108 155 108q35 0 54 -11zM363 742l-100 -170h-102l70 170h132z" />
    <glyph glyph-name="rcaron" unicode="&#x159;" horiz-adv-x="422" 
d="M409 499l-17 -120q-23 15 -63 15q-49 0 -84.5 -35.5t-35.5 -99.5v-259h-137v500h119l9 -98q41 108 155 108q35 0 54 -11zM295 572h-138l-110 170h105l74 -95l74 95h105z" />
    <glyph glyph-name="s" unicode="s" horiz-adv-x="531" 
d="M34 86l80 82q20 -43 57.5 -60.5t92.5 -17.5q44 0 68 12t24 33q0 17 -22.5 29t-77.5 23q-115 23 -161.5 60.5t-46.5 101.5q0 42 26 79t77 59.5t122 22.5q84 0 136 -25.5t87 -80.5l-85 -72q-22 40 -54.5 59t-81.5 19q-41 0 -65.5 -14t-24.5 -34q0 -21 24 -35t85 -26
q109 -22 154.5 -57.5t45.5 -98.5q0 -70 -59.5 -112.5t-168.5 -42.5q-167 0 -232 96z" />
    <glyph glyph-name="sacute" unicode="&#x15b;" horiz-adv-x="531" 
d="M34 86l80 82q20 -43 57.5 -60.5t92.5 -17.5q44 0 68 12t24 33q0 17 -22.5 29t-77.5 23q-115 23 -161.5 60.5t-46.5 101.5q0 42 26 79t77 59.5t122 22.5q84 0 136 -25.5t87 -80.5l-85 -72q-22 40 -54.5 59t-81.5 19q-41 0 -65.5 -14t-24.5 -34q0 -21 24 -35t85 -26
q109 -22 154.5 -57.5t45.5 -98.5q0 -70 -59.5 -112.5t-168.5 -42.5q-167 0 -232 96zM406 742l-100 -170h-102l70 170h132z" />
    <glyph glyph-name="scaron" unicode="&#x161;" horiz-adv-x="531" 
d="M34 86l80 82q20 -43 57.5 -60.5t92.5 -17.5q44 0 68 12t24 33q0 17 -22.5 29t-77.5 23q-115 23 -161.5 60.5t-46.5 101.5q0 42 26 79t77 59.5t122 22.5q84 0 136 -25.5t87 -80.5l-85 -72q-22 40 -54.5 59t-81.5 19q-41 0 -65.5 -14t-24.5 -34q0 -21 24 -35t85 -26
q109 -22 154.5 -57.5t45.5 -98.5q0 -70 -59.5 -112.5t-168.5 -42.5q-167 0 -232 96zM338 572h-138l-110 170h105l74 -95l74 95h105z" />
    <glyph glyph-name="germandbls" unicode="&#xdf;" horiz-adv-x="637" 
d="M512 348.5q41 -25.5 61.5 -68t20.5 -91.5q0 -53 -24.5 -98.5t-74.5 -73t-122 -27.5q-36 0 -67 9t-50 24l26 95q27 -24 74 -24q50 0 78 31t28 82q0 53 -34 81t-98 28h-45l11 104h34q51 0 80 28.5t29 73.5q0 47 -27.5 71.5t-79.5 24.5q-68 0 -95.5 -38.5t-27.5 -122.5v-457
h-137v474q0 120 62 185t203 65q79 0 132 -26.5t79 -70t26 -94.5q0 -39 -18.5 -75t-55 -59t-89.5 -23v-2q60 0 101 -25.5z" />
    <glyph glyph-name="longs" unicode="&#x17f;" horiz-adv-x="301" 
d="M70 560q0 83 45 126t125 43q63 0 90 -24l-12 -91q-19 13 -44 13q-70 0 -70 -78v-549h-134v560z" />
    <glyph glyph-name="t" unicode="t" horiz-adv-x="429" 
d="M415 31q-24 -19 -60.5 -30t-76.5 -11q-167 0 -167 151v257h-91v102h91v115l137 38v-153h162v-102h-162v-235q0 -69 69 -69q44 0 77 28z" />
    <glyph glyph-name="tcaron" unicode="&#x165;" horiz-adv-x="429" 
d="M382 556h-82l21 211h110zM394 122l21 -91q-24 -19 -60.5 -30t-76.5 -11q-167 0 -167 151v257h-91v102h91v115l137 38v-153h162v-102h-162v-235q0 -69 69 -69q44 0 77 28z" />
    <glyph glyph-name="u" unicode="u" horiz-adv-x="619" 
d="M547 500v-500h-122l-5 86q-48 -96 -175 -96q-81 0 -128.5 43.5t-47.5 135.5v331h137v-296q0 -58 22 -82t65 -24q52 0 84.5 33.5t32.5 100.5v268h137z" />
    <glyph glyph-name="uacute" unicode="&#xfa;" horiz-adv-x="619" 
d="M547 500v-500h-122l-5 86q-48 -96 -175 -96q-81 0 -128.5 43.5t-47.5 135.5v331h137v-296q0 -58 22 -82t65 -24q52 0 84.5 33.5t32.5 100.5v268h137zM442 742l-100 -170h-102l70 170h132z" />
    <glyph glyph-name="ucircumflex" unicode="&#xfb;" horiz-adv-x="619" 
d="M547 500v-500h-122l-5 86q-48 -96 -175 -96q-81 0 -128.5 43.5t-47.5 135.5v331h137v-296q0 -58 22 -82t65 -24q52 0 84.5 33.5t32.5 100.5v268h137zM380 565l-74 96l-74 -96h-105l110 171h138l110 -171h-105z" />
    <glyph glyph-name="udieresis" unicode="&#xfc;" horiz-adv-x="619" 
d="M547 500v-500h-122l-5 86q-48 -96 -175 -96q-81 0 -128.5 43.5t-47.5 135.5v331h137v-296q0 -58 22 -82t65 -24q52 0 84.5 33.5t32.5 100.5v268h137zM256 686q20 -19 20 -51t-20 -51t-55 -19q-34 0 -54 19t-20 51t20 51t54 19q35 0 55 -19zM466.5 686q20.5 -19 20.5 -51
t-20.5 -51t-55.5 -19q-34 0 -54 19t-20 51t20 51t54 19q35 0 55.5 -19z" />
    <glyph glyph-name="ugrave" unicode="&#xf9;" horiz-adv-x="619" 
d="M547 500v-500h-122l-5 86q-48 -96 -175 -96q-81 0 -128.5 43.5t-47.5 135.5v331h137v-296q0 -58 22 -82t65 -24q52 0 84.5 33.5t32.5 100.5v268h137zM364 572h-102l-100 170h132z" />
    <glyph glyph-name="uhungarumlaut" unicode="&#x171;" horiz-adv-x="619" 
d="M547 500v-500h-122l-5 86q-48 -96 -175 -96q-81 0 -128.5 43.5t-47.5 135.5v331h137v-296q0 -58 22 -82t65 -24q52 0 84.5 33.5t32.5 100.5v268h137zM240 572h-98l72 170h122zM439 572h-98l71 170h123z" />
    <glyph glyph-name="umacron" unicode="&#x16b;" horiz-adv-x="619" 
d="M547 500v-500h-122l-5 86q-48 -96 -175 -96q-81 0 -128.5 43.5t-47.5 135.5v331h137v-296q0 -58 22 -82t65 -24q52 0 84.5 33.5t32.5 100.5v268h137zM488 579h-364v91h364v-91z" />
    <glyph glyph-name="uni0123" unicode="&#x123;" horiz-adv-x="549" 
d="M336 572h-123l71 202h90zM502.5 58q44.5 -36 44.5 -103q0 -80 -74 -125t-195 -45q-125 0 -185.5 33t-60.5 90q0 34 23 59t68 36q-34 14 -54 39.5t-20 60.5q0 36 21 62t58 39q-38 22 -58 56.5t-20 79.5q0 79 61.5 124.5t167.5 45.5q54 0 101 -13q13 59 50.5 92.5
t101.5 29.5l18 -98q-7 1 -21 1q-37 0 -61.5 -13t-34.5 -35q37 -22 56.5 -56t19.5 -78q0 -78 -61.5 -123.5t-168.5 -45.5q-49 0 -90 9q-39 -10 -39 -45q0 -20 15 -30.5t42 -10.5h169q82 0 126.5 -36zM213.5 401q-25.5 -23 -25.5 -60q0 -38 25.5 -61t65.5 -23q41 0 66.5 23
t25.5 61q0 37 -25.5 60t-66.5 23q-40 0 -65.5 -23zM397 -103.5q38 17.5 38 44.5q0 21 -17.5 31.5t-57.5 10.5h-136q-83 0 -83 -45q0 -28 37 -43.5t111 -15.5q70 0 108 17.5z" />
    <glyph glyph-name="uni0137" unicode="&#x137;" horiz-adv-x="602" 
d="M300 221l-91 -97v-124h-137v719h137v-447l217 228h155l-188 -196l200 -304h-155zM315 -239h-93l36 173h126z" />
    <glyph glyph-name="uni013C" unicode="&#x13c;" horiz-adv-x="319" 
d="M207 159q0 -36 10.5 -50t38.5 -14q17 0 29.5 2.5t29.5 8.5l-12 -95q-16 -10 -42 -15.5t-51 -5.5q-73 0 -106.5 35.5t-33.5 113.5v580h137v-560zM191 -239h-93l36 173h126z" />
    <glyph glyph-name="uni0146" unicode="&#x146;" horiz-adv-x="619" 
d="M500.5 463q49.5 -47 49.5 -135v-328h-137v288q0 114 -89 114q-48 0 -81.5 -34t-33.5 -104v-264h-137v500h123l4 -89q25 49 69 74t102 25q81 0 130.5 -47zM319 -239h-93l36 173h126z" />
    <glyph glyph-name="uni0157" unicode="&#x157;" horiz-adv-x="422" 
d="M409 499l-17 -120q-23 15 -63 15q-49 0 -84.5 -35.5t-35.5 -99.5v-259h-137v500h119l9 -98q41 108 155 108q35 0 54 -11zM141 -239h-93l36 173h126z" />
    <glyph glyph-name="uni015F" unicode="&#x15f;" horiz-adv-x="531" 
d="M448.5 243.5q45.5 -35.5 45.5 -98.5q0 -57 -40 -96.5t-115 -52.5q27 -19 41.5 -44.5t14.5 -52.5q0 -53 -36.5 -83.5t-96.5 -30.5q-78 0 -119 38l36 71q13 -14 31.5 -22t39.5 -8q24 0 39.5 14.5t15.5 38.5t-15 41t-54 33q-144 8 -202 95l80 82q20 -43 57.5 -60.5
t92.5 -17.5q44 0 68 12t24 33q0 17 -22.5 29t-77.5 23q-115 23 -161.5 60.5t-46.5 101.5q0 42 26 79t77 59.5t122 22.5q84 0 136 -25.5t87 -80.5l-85 -72q-22 40 -54.5 59t-81.5 19q-41 0 -65.5 -14t-24.5 -34q0 -21 24 -35t85 -26q109 -22 154.5 -57.5z" />
    <glyph glyph-name="uni0163" unicode="&#x163;" horiz-adv-x="441" 
d="M364.5 -50q13.5 -25 13.5 -51q0 -53 -36.5 -83.5t-96.5 -30.5q-78 0 -119 38l36 71q12 -13 30 -21.5t39 -8.5q26 0 41.5 14t15.5 39q0 27 -16.5 44.5t-61.5 36.5q-99 28 -99 143v257h-91v102h91v115l137 38v-153h162v-102h-162v-235q0 -69 69 -69q44 0 77 28l21 -91
q-34 -28 -89 -37q25 -19 38.5 -44z" />
    <glyph glyph-name="uni0219" unicode="&#x219;" horiz-adv-x="531" 
d="M34 86l80 82q20 -43 57.5 -60.5t92.5 -17.5q44 0 68 12t24 33q0 17 -22.5 29t-77.5 23q-115 23 -161.5 60.5t-46.5 101.5q0 42 26 79t77 59.5t122 22.5q84 0 136 -25.5t87 -80.5l-85 -72q-22 40 -54.5 59t-81.5 19q-41 0 -65.5 -14t-24.5 -34q0 -21 24 -35t85 -26
q109 -22 154.5 -57.5t45.5 -98.5q0 -70 -59.5 -112.5t-168.5 -42.5q-167 0 -232 96zM269 -239h-93l36 173h126z" />
    <glyph glyph-name="uni021B" unicode="&#x21b;" horiz-adv-x="429" 
d="M415 31q-24 -19 -60.5 -30t-76.5 -11q-167 0 -167 151v257h-91v102h91v115l137 38v-153h162v-102h-162v-235q0 -69 69 -69q44 0 77 28zM246 -239h-93l36 173h126z" />
    <glyph glyph-name="uogonek" unicode="&#x173;" horiz-adv-x="619" 
d="M555 -193q-35 -22 -95 -22q-58 0 -91 27t-33 76q0 39 23 67.5t69 48.5l-9 92q-26 -51 -72 -78.5t-102 -27.5q-81 0 -128.5 43.5t-47.5 135.5v331h137v-296q0 -58 21.5 -82t62.5 -24q51 0 85.5 37.5t34.5 101.5v263h137v-500q-59 -20 -86.5 -41.5t-27.5 -47.5
q0 -22 14 -33.5t38 -11.5q31 0 50 11z" />
    <glyph glyph-name="uring" unicode="&#x16f;" horiz-adv-x="619" 
d="M547 500v-500h-122l-5 86q-48 -96 -175 -96q-81 0 -128.5 43.5t-47.5 135.5v331h137v-296q0 -58 22 -82t65 -24q52 0 84.5 33.5t32.5 100.5v268h137zM402 767.5q35 -32.5 35 -87.5t-35 -87.5t-96 -32.5t-96.5 32.5t-35.5 87.5t35.5 87.5t96.5 32.5t96 -32.5zM263.5 722
q-16.5 -16 -16.5 -42q0 -25 16.5 -41t42.5 -16t42.5 16t16.5 41q0 26 -16.5 42t-42.5 16t-42.5 -16z" />
    <glyph glyph-name="v" unicode="v" horiz-adv-x="546" 
d="M542 500l-190 -500h-158l-190 500h147l123 -404l126 404h142z" />
    <glyph glyph-name="w" unicode="w" horiz-adv-x="889" 
d="M869 500l-159 -500h-159l-109 353l-105 -353h-158l-159 500h145l100 -390l112 390h135l112 -390l100 390h145z" />
    <glyph glyph-name="x" unicode="x" horiz-adv-x="569" 
d="M395 0l-113 182l-115 -182h-153l184 253l-175 247h158l107 -175l107 175h154l-177 -247l180 -253h-157z" />
    <glyph glyph-name="y" unicode="y" horiz-adv-x="557" 
d="M349 -31q-37 -102 -85.5 -143t-129.5 -41t-127 39l34 97q16 -18 35.5 -24.5t48.5 -6.5q31 0 50 13t32 47l18 43l-55 130l-153 377h152l94 -300l27 -100l30 106l92 294h139z" />
    <glyph glyph-name="yacute" unicode="&#xfd;" horiz-adv-x="557" 
d="M349 -31q-37 -102 -85.5 -143t-129.5 -41t-127 39l34 97q16 -18 35.5 -24.5t48.5 -6.5q31 0 50 13t32 47l18 43l-55 130l-153 377h152l94 -300l27 -100l30 106l92 294h139zM427 742l-100 -170h-102l70 170h132z" />
    <glyph glyph-name="ydieresis" unicode="&#xff;" horiz-adv-x="557" 
d="M349 -31q-37 -102 -85.5 -143t-129.5 -41t-127 39l34 97q16 -18 35.5 -24.5t48.5 -6.5q31 0 50 13t32 47l18 43l-55 130l-153 377h152l94 -300l27 -100l30 106l92 294h139zM241 686q20 -19 20 -51t-20 -51t-55 -19q-34 0 -54 19t-20 51t20 51t54 19q35 0 55 -19z
M451.5 686q20.5 -19 20.5 -51t-20.5 -51t-55.5 -19q-34 0 -54 19t-20 51t20 51t54 19q35 0 55.5 -19z" />
    <glyph glyph-name="z" unicode="z" horiz-adv-x="522" 
d="M44 88l221 256l57 57l-83 -2h-193v101h428v-88l-221 -255l-57 -58l92 2h195v-101h-439v88z" />
    <glyph glyph-name="zacute" unicode="&#x17a;" horiz-adv-x="522" 
d="M44 88l221 256l57 57l-83 -2h-193v101h428v-88l-221 -255l-57 -58l92 2h195v-101h-439v88zM387 742l-100 -170h-102l70 170h132z" />
    <glyph glyph-name="zcaron" unicode="&#x17e;" horiz-adv-x="522" 
d="M44 88l221 256l57 57l-83 -2h-193v101h428v-88l-221 -255l-57 -58l92 2h195v-101h-439v88zM319 572h-138l-110 170h105l74 -95l74 95h105z" />
    <glyph glyph-name="zdotaccent" unicode="&#x17c;" horiz-adv-x="522" 
d="M44 88l221 256l57 57l-83 -2h-193v101h428v-88l-221 -255l-57 -58l92 2h195v-101h-439v88zM312 701q21 -19 21 -54t-21 -54t-60 -19q-38 0 -59 19t-21 54t21 54t59 19q39 0 60 -19z" />
    <glyph glyph-name="germandbls.calt" horiz-adv-x="709" 
d="M625 318.5q55 -45.5 55 -131.5q0 -89 -59 -140.5t-153 -51.5q-65 0 -110 16t-69 44l42 85q19 -19 48 -29.5t64 -10.5q46 0 74.5 24.5t28.5 65.5q0 43 -31 66.5t-87 23.5h-84v86l157 184h-142q-60 0 -97.5 -38t-37.5 -100v-412h-138v428q0 70 31.5 122.5t89 81t133.5 28.5
h300v-109l-162 -185q92 -2 147 -47.5z" />
    <glyph glyph-name="longs.component" horiz-adv-x="276" 
d="M70 560q0 169 158 169q42 0 65 -16l-8 -97q-14 11 -31 11q-50 0 -50 -70v-557h-134v560z" />
    <glyph glyph-name="iacute_j.loclNLD" horiz-adv-x="563" 
d="M282 742l-100 -170h-102l70 170h132zM567 742l-100 -170h-102l70 170h132zM209 0h-137v500h137v-500zM491 -37q0 -93 -48 -135.5t-130 -42.5q-72 0 -120 32l22 98q27 -24 70 -24q33 0 51 20t18 65v524h137v-537z" />
    <glyph glyph-name="g.ss01" horiz-adv-x="629" 
d="M556 500v-460q0 -255 -270 -255q-92 0 -151 32.5t-72 104.5l131 40q5 -42 31.5 -62.5t75.5 -20.5q53 0 85.5 34.5t32.5 93.5v79q-25 -36 -65.5 -56.5t-91.5 -20.5q-100 0 -157 66t-57 183q0 119 57 185.5t157 66.5q60 0 103 -27t64 -74l7 91h120zM387.5 150
q31.5 37 31.5 104v10q0 66 -31 103.5t-85 37.5q-55 0 -86 -37.5t-31 -108.5t31 -108.5t86 -37.5q53 0 84.5 37z" />
    <glyph glyph-name="gbreve.ss01" horiz-adv-x="629" 
d="M556 500v-460q0 -255 -270 -255q-92 0 -151 32.5t-72 104.5l131 40q5 -42 31.5 -62.5t75.5 -20.5q53 0 85.5 34.5t32.5 93.5v79q-25 -36 -65.5 -56.5t-91.5 -20.5q-100 0 -157 66t-57 183q0 119 57 185.5t157 66.5q60 0 103 -27t64 -74l7 91h120zM387.5 150
q31.5 37 31.5 104v10q0 66 -31 103.5t-85 37.5q-55 0 -86 -37.5t-31 -108.5t31 -108.5t86 -37.5q53 0 84.5 37zM418.5 605.5q-43.5 -42.5 -117.5 -42.5t-117.5 42.5t-43.5 114.5h93q0 -32 19 -53.5t49 -21.5t49 21.5t19 53.5h93q0 -72 -43.5 -114.5z" />
    <glyph glyph-name="gcommaaccent.ss01" horiz-adv-x="629" 
d="M380 572h-122l70 202h90zM556 500v-460q0 -255 -270 -255q-92 0 -151 32.5t-72 104.5l131 40q5 -42 31.5 -62.5t75.5 -20.5q53 0 85.5 34.5t32.5 93.5v79q-25 -36 -65.5 -56.5t-91.5 -20.5q-100 0 -157 66t-57 183q0 119 57 185.5t157 66.5q60 0 103 -27t64 -74l7 91h120
zM387.5 150q31.5 37 31.5 104v10q0 66 -31 103.5t-85 37.5q-55 0 -86 -37.5t-31 -108.5t31 -108.5t86 -37.5q53 0 84.5 37z" />
    <glyph glyph-name="l.ss02" horiz-adv-x="284" 
d="M211 0h-137v719h137v-719z" />
    <glyph glyph-name="lacute.ss02" horiz-adv-x="284" 
d="M255 924l-72 -145h-101l45 145h128zM211 0h-137v719h137v-719z" />
    <glyph glyph-name="lcaron.ss02" horiz-adv-x="341" 
d="M341 495h-82l21 224h110zM211 0h-137v719h137v-719z" />
    <glyph glyph-name="lcommaaccent.ss02" horiz-adv-x="284" 
d="M211 0h-137v719h137v-719zM138 -239h-93l36 173h126z" />
    <glyph glyph-name="ldot.ss02" horiz-adv-x="479" 
d="M211 0h-137v719h137v-719zM444.5 413.5q23.5 -21.5 23.5 -59.5t-23.5 -59.5t-63.5 -21.5t-63.5 21.5t-23.5 59.5t23.5 59.5t63.5 21.5t63.5 -21.5z" />
    <glyph glyph-name="lslash.ss02" horiz-adv-x="340" 
d="M316 385l-77 -44v-341h-137v256l-77 -50v106l77 44v363h137v-279l77 51v-106z" />
    <glyph glyph-name="n.swsh" horiz-adv-x="638" 
d="M621 0q10 2 22 8l-13 -86q-22 -11 -39.5 -15.5t-46.5 -4.5q-60 0 -95.5 35t-35.5 98v253q0 114 -89 114q-48 0 -81.5 -34t-33.5 -104v-264h-137v500h123l4 -89q25 49 69 74t102 25q81 0 130.5 -47t49.5 -135v-281q0 -25 12.5 -37t32.5 -12q16 0 26 2z" />
    <glyph glyph-name="nacute.swsh" horiz-adv-x="638" 
d="M621 0q10 2 22 8l-13 -86q-22 -11 -39.5 -15.5t-46.5 -4.5q-60 0 -95.5 35t-35.5 98v253q0 114 -89 114q-48 0 -81.5 -34t-33.5 -104v-264h-137v500h123l4 -89q25 49 69 74t102 25q81 0 130.5 -47t49.5 -135v-281q0 -25 12.5 -37t32.5 -12q16 0 26 2zM450 742l-100 -170
h-102l70 170h132z" />
    <glyph glyph-name="ncaron.swsh" horiz-adv-x="638" 
d="M621 0q10 2 22 8l-13 -86q-22 -11 -39.5 -15.5t-46.5 -4.5q-60 0 -95.5 35t-35.5 98v253q0 114 -89 114q-48 0 -81.5 -34t-33.5 -104v-264h-137v500h123l4 -89q25 49 69 74t102 25q81 0 130.5 -47t49.5 -135v-281q0 -25 12.5 -37t32.5 -12q16 0 26 2zM381 572h-138
l-110 170h105l74 -95l74 95h105z" />
    <glyph glyph-name="ncommaaccent.swsh" horiz-adv-x="638" 
d="M621 0q10 2 22 8l-13 -86q-22 -11 -39.5 -15.5t-46.5 -4.5q-60 0 -95.5 35t-35.5 98v253q0 114 -89 114q-48 0 -81.5 -34t-33.5 -104v-264h-137v500h123l4 -89q25 49 69 74t102 25q81 0 130.5 -47t49.5 -135v-281q0 -25 12.5 -37t32.5 -12q16 0 26 2zM300 -239h-93
l36 173h126z" />
    <glyph glyph-name="ntilde.swsh" horiz-adv-x="638" 
d="M621 0q10 2 22 8l-13 -86q-22 -11 -39.5 -15.5t-46.5 -4.5q-60 0 -95.5 35t-35.5 98v253q0 114 -89 114q-48 0 -81.5 -34t-33.5 -104v-264h-137v500h123l4 -89q25 49 69 74t102 25q81 0 130.5 -47t49.5 -135v-281q0 -25 12.5 -37t32.5 -12q16 0 26 2zM470.5 605.5
q-31.5 -37.5 -89.5 -37.5q-29 0 -48.5 10t-40.5 28q-14 12 -23.5 17.5t-20.5 5.5q-18 0 -28 -15t-14 -46h-84q8 150 126 150q29 0 48 -10t40 -28q15 -12 24 -17.5t20 -5.5q18 0 28 15t14 46h84q-4 -75 -35.5 -112.5z" />
    <glyph glyph-name="r.swsh" horiz-adv-x="566" 
d="M418.5 500q26.5 -10 59.5 -30q28 -16 47 -24.5t47 -13.5l-66 -99q-37 8 -80 33q-27 15 -45.5 22t-43.5 7q-57 0 -92.5 -39.5t-35.5 -104.5v-251h-137v500h119l9 -99q20 56 59.5 82.5t91.5 26.5q41 0 67.5 -10z" />
    <glyph glyph-name="racute.swsh" horiz-adv-x="566" 
d="M418.5 500q26.5 -10 59.5 -30q28 -16 47 -24.5t47 -13.5l-66 -99q-37 8 -80 33q-27 15 -45.5 22t-43.5 7q-57 0 -92.5 -39.5t-35.5 -104.5v-251h-137v500h119l9 -99q20 56 59.5 82.5t91.5 26.5q41 0 67.5 -10zM386 742l-100 -170h-102l70 170h132z" />
    <glyph glyph-name="rcaron.swsh" horiz-adv-x="566" 
d="M418.5 500q26.5 -10 59.5 -30q28 -16 47 -24.5t47 -13.5l-66 -99q-37 8 -80 33q-27 15 -45.5 22t-43.5 7q-57 0 -92.5 -39.5t-35.5 -104.5v-251h-137v500h119l9 -99q20 56 59.5 82.5t91.5 26.5q41 0 67.5 -10zM318 572h-138l-110 170h105l74 -95l74 95h105z" />
    <glyph glyph-name="rcommaaccent.swsh" horiz-adv-x="566" 
d="M418.5 500q26.5 -10 59.5 -30q28 -16 47 -24.5t47 -13.5l-66 -99q-37 8 -80 33q-27 15 -45.5 22t-43.5 7q-57 0 -92.5 -39.5t-35.5 -104.5v-251h-137v500h119l9 -99q20 56 59.5 82.5t91.5 26.5q41 0 67.5 -10zM141 -239h-93l36 173h126z" />
    <glyph glyph-name="t.swsh" horiz-adv-x="487" 
d="M248 398v-235q0 -69 69 -69q44 0 77 28l21 -91q-24 -19 -60.5 -30t-76.5 -11q-167 0 -167 151v257h-91v102h91v115l137 38v-153h135q58 0 93 10t63 36l45 -79q-32 -37 -78 -53t-121 -16h-137z" />
    <glyph glyph-name="tcaron.swsh" horiz-adv-x="487" 
d="M382 556h-82l21 211h110zM248 398v-235q0 -69 69 -69q44 0 77 28l21 -91q-24 -19 -60.5 -30t-76.5 -11q-167 0 -167 151v257h-91v102h91v115l137 38v-153h135q58 0 93 10t63 36l45 -79q-32 -37 -78 -53t-121 -16h-137z" />
    <glyph glyph-name="uni0163.swsh" horiz-adv-x="497" 
d="M248 398v-235q0 -69 69 -69q44 0 77 28l21 -91q-28 -22 -72 -33q28 -20 42.5 -45.5t14.5 -53.5q0 -53 -36.5 -83.5t-96.5 -30.5q-78 0 -119 38l36 71q12 -13 30 -21.5t39 -8.5q26 0 41.5 14t15.5 39t-13.5 41.5t-48.5 32.5q-137 15 -137 150v257h-91v102h91v115l137 38
v-153h135q58 0 93 10t63 36l45 -79q-32 -37 -78 -53t-121 -16h-137z" />
    <glyph glyph-name="uni021B.swsh" horiz-adv-x="487" 
d="M248 398v-235q0 -69 69 -69q44 0 77 28l21 -91q-24 -19 -60.5 -30t-76.5 -11q-167 0 -167 151v257h-91v102h91v115l137 38v-153h135q58 0 93 10t63 36l45 -79q-32 -37 -78 -53t-121 -16h-137zM246 -239h-93l36 173h126z" />
    <glyph glyph-name="y.swsh" horiz-adv-x="590" 
d="M7 -176l34 97q16 -18 35.5 -24.5t48.5 -6.5q31 0 50 13t32 47l18 43l-55 130l-153 377h152l94 -300l27 -100l30 106l85 246q22 70 63 103.5t101 33.5q35 0 57.5 -7.5t42.5 -24.5l-26 -85q-10 7 -20 10t-27 3q-30 0 -48.5 -16t-31.5 -53l-167 -447q-34 -101 -83.5 -142.5
t-131.5 -41.5q-81 0 -127 39z" />
    <glyph glyph-name="yacute.swsh" horiz-adv-x="590" 
d="M7 -176l34 97q16 -18 35.5 -24.5t48.5 -6.5q31 0 50 13t32 47l18 43l-55 130l-153 377h152l94 -300l27 -100l30 106l85 246q22 70 63 103.5t101 33.5q35 0 57.5 -7.5t42.5 -24.5l-26 -85q-10 7 -20 10t-27 3q-30 0 -48.5 -16t-31.5 -53l-167 -447q-34 -101 -83.5 -142.5
t-131.5 -41.5q-81 0 -127 39zM427 742l-100 -170h-102l70 170h132z" />
    <glyph glyph-name="ydieresis.swsh" horiz-adv-x="590" 
d="M7 -176l34 97q16 -18 35.5 -24.5t48.5 -6.5q31 0 50 13t32 47l18 43l-55 130l-153 377h152l94 -300l27 -100l30 106l85 246q22 70 63 103.5t101 33.5q35 0 57.5 -7.5t42.5 -24.5l-26 -85q-10 7 -20 10t-27 3q-30 0 -48.5 -16t-31.5 -53l-167 -447q-34 -101 -83.5 -142.5
t-131.5 -41.5q-81 0 -127 39zM241 686q20 -19 20 -51t-20 -51t-55 -19q-34 0 -54 19t-20 51t20 51t54 19q35 0 55 -19zM451.5 686q20.5 -19 20.5 -51t-20.5 -51t-55.5 -19q-34 0 -54 19t-20 51t20 51t54 19q35 0 55.5 -19z" />
    <glyph glyph-name="c_t" horiz-adv-x="935" 
d="M921 31q-24 -19 -60 -30t-76 -11q-79 0 -123.5 36t-44.5 115v382q0 53 -19 77.5t-51 24.5q-68 0 -68 -91q0 -69 50 -171l-128 -46q-9 44 -33.5 67.5t-62.5 23.5q-59 0 -90.5 -40.5t-31.5 -118.5t32 -117.5t89 -39.5q84 0 104 89l123 -40q-15 -69 -73.5 -110t-151.5 -41
q-124 0 -192 68.5t-68 191.5t67.5 191.5t187.5 68.5q46 0 85 -16q-13 28 -13 65q0 82 51.5 125t134.5 43q81 0 138 -43.5t57 -130.5v-53h163v-102h-163v-235q0 -35 18 -52t51 -17q44 0 77 28z" />
    <glyph glyph-name="s_t" horiz-adv-x="896" 
d="M882 31q-24 -19 -60.5 -30t-76.5 -11q-167 0 -167 151v378q0 52 -20.5 77t-52.5 25t-49 -20.5t-17 -57.5q0 -34 10 -64.5t39 -70.5l-77 -62q-37 68 -134 68q-40 0 -66 -15.5t-26 -36.5q0 -23 23.5 -36t87.5 -23q106 -18 152 -53t46 -100q0 -46 -26.5 -82t-78 -57
t-123.5 -21q-80 0 -140 24t-94 74l79 74q21 -37 61.5 -56.5t92.5 -19.5q43 0 67 14t24 37q0 22 -24.5 36t-84.5 24q-107 19 -153 55.5t-46 98.5q0 42 26 78.5t77 58.5t122 22q42 0 75 -8q-16 27 -16 55q0 84 53.5 127t137.5 43q85 0 138.5 -43.5t53.5 -134.5v-49h162v-102
h-162v-235q0 -69 69 -69q44 0 77 28z" />
    <glyph glyph-name="longs_i" horiz-adv-x="558" 
d="M70 560q0 169 158 169q42 0 65 -16l-8 -97q-14 11 -31 11q-50 0 -50 -70v-557h-134v560zM332 645q0 74 85 74t85 -74q0 -73 -85 -73t-85 73zM485 0h-137v500h137v-500z" />
    <glyph glyph-name="longs_l" horiz-adv-x="621" 
d="M70 560q0 83 45 126t125 43q63 0 90 -24l-12 -91q-19 13 -44 13q-70 0 -70 -78v-549h-134v560zM508 159q0 -36 10.5 -50t38.5 -14q17 0 29.5 2.5t29.5 8.5l-11 -95q-17 -10 -42.5 -15.5t-50.5 -5.5q-74 0 -107.5 35.5t-33.5 113.5v580h137v-560z" />
    <glyph glyph-name="longs_s" horiz-adv-x="803" 
d="M70 560q0 83 45 126t125 43q63 0 90 -24l-12 -91q-19 13 -44 13q-70 0 -70 -78v-549h-134v560zM306 86l80 82q20 -43 57.5 -60.5t92.5 -17.5q44 0 68 12t24 33q0 17 -22.5 29t-77.5 23q-115 23 -161.5 60.5t-46.5 101.5q0 42 26 79t77 59.5t122 22.5q84 0 136 -25.5
t87 -80.5l-85 -72q-22 40 -54.5 59t-81.5 19q-41 0 -65.5 -14t-24.5 -34q0 -21 24 -35t85 -26q109 -22 154.5 -57.5t45.5 -98.5q0 -70 -59.5 -112.5t-168.5 -42.5q-167 0 -232 96z" />
    <glyph glyph-name="g.ss01_j" horiz-adv-x="896" 
d="M706.5 591q-21.5 19 -21.5 54q0 36 21.5 55t62.5 19q42 0 64 -19.5t22 -54.5t-22 -54t-64 -19q-41 0 -62.5 19zM436 500h120v-460q0 -255 -270 -255q-92 0 -151 32.5t-72 104.5l131 40q5 -42 31.5 -62.5t75.5 -20.5q53 0 85.5 34.5t32.5 93.5v79q-25 -36 -65.5 -56.5
t-91.5 -20.5q-100 0 -157 66t-57 183q0 119 57 185.5t157 66.5q60 0 103 -27t64 -74zM701 500h137v-540q0 -96 -52 -135.5t-128 -39.5q-54 0 -96 26l22 104q27 -23 62 -23q55 0 55 76v532zM387.5 150q31.5 37 31.5 104v10q0 66 -31 103.5t-85 37.5q-55 0 -86 -37.5
t-31 -108.5t31 -108.5t86 -37.5q53 0 84.5 37z" />
    <glyph glyph-name="fl.ss02" horiz-adv-x="692" 
d="M239 500h158v-102h-152v-398h-137v398h-87v102h87v60q0 82 51 125.5t138 43.5q33 0 60.5 -7t43.5 -19l-19 -91q-23 15 -57 15q-86 0 -86 -77v-50zM618 0h-137v719h137v-719z" />
    <glyph glyph-name="longs_l.ss02" horiz-adv-x="582" 
d="M70 560q0 83 45 126t125 43q63 0 90 -24l-12 -91q-19 13 -44 13q-70 0 -70 -78v-549h-134v560zM508 0h-137v719h137v-719z" />
    <glyph glyph-name="Gcommaaccent.sc" horiz-adv-x="640" 
d="M585 303v-303h-89l-6 87q-21 -43 -62.5 -69t-107.5 -26q-83 0 -144.5 34t-95 99t-33.5 155q0 135 77 211.5t210 76.5q95 0 158.5 -38t91.5 -112l-117 -49q-16 49 -48 71.5t-81 22.5q-71 0 -111.5 -47.5t-40.5 -135.5q0 -91 39.5 -138.5t117.5 -47.5q58 0 88.5 29.5
t30.5 84.5v3h-136v92h259zM338 -239h-93l36 173h126z" />
    <glyph glyph-name="Kcommaaccent.sc" horiz-adv-x="632" 
d="M301 245l-86 -87v-158h-137v560h137v-260l246 260h151l-215 -232l221 -328h-158zM333 -239h-93l36 173h126z" />
    <glyph glyph-name="Lcommaaccent.sc" horiz-adv-x="583" 
d="M524 107v-107h-446v560h137v-453h309zM314 -239h-93l36 173h126z" />
    <glyph glyph-name="Ncommaaccent.sc" horiz-adv-x="680" 
d="M601 0h-160l-194 330l-45 87h-2l6 -105v-312h-128v560h161l193 -330l45 -87h2l-5 105v312h127v-560zM343 -239h-93l36 173h126z" />
    <glyph glyph-name="Rcommaaccent.sc" horiz-adv-x="616" 
d="M321 207h-107v-207h-136v560h266q102 0 160.5 -46.5t58.5 -130.5q0 -59 -30.5 -100.5t-86.5 -60.5l147 -222h-149zM214 298h115q99 0 99 81t-99 81h-115v-162zM324 -239h-93l36 173h126z" />
    <glyph glyph-name="Scedilla.sc" horiz-adv-x="568" 
d="M487.5 55q-47.5 -44 -130.5 -57q58 -40 58 -99q0 -53 -36.5 -83.5t-96.5 -30.5q-78 0 -119 38l36 71q13 -14 31.5 -22t39.5 -8q24 0 39.5 14.5t15.5 38.5q0 25 -16 42.5t-59 33.5q-144 8 -224 98l70 99q33 -48 77.5 -69t111.5 -21q110 0 110 56q0 28 -29.5 38.5
t-95.5 20.5q-72 11 -117.5 25t-79 49.5t-33.5 99.5q0 52 30 93t85.5 63.5t130.5 22.5q86 0 143.5 -23.5t103.5 -75.5l-75 -95q-31 47 -69.5 66.5t-100.5 19.5q-52 0 -80 -16t-28 -44q0 -26 30 -38t94 -22q71 -12 117 -26.5t80 -49.5t34 -98q0 -67 -47.5 -111z" />
    <glyph glyph-name="Scommaaccent.sc" horiz-adv-x="568" 
d="M429.5 544.5q57.5 -23.5 103.5 -75.5l-75 -95q-31 47 -69.5 66.5t-100.5 19.5q-52 0 -80 -16t-28 -44q0 -26 30 -38t94 -22q71 -12 117 -26.5t80 -49.5t34 -98q0 -80 -68 -127t-181 -47q-89 0 -152.5 25t-107.5 74l70 99q33 -48 77.5 -69t111.5 -21q110 0 110 56
q0 28 -29.5 38.5t-95.5 20.5q-72 11 -117.5 25t-79 49.5t-33.5 99.5q0 52 30 93t85.5 63.5t130.5 22.5q86 0 143.5 -23.5zM301 -239h-93l36 173h126z" />
    <glyph glyph-name="uni0162.sc" horiz-adv-x="587" 
d="M362 453v-453q56 -34 56 -99q0 -54 -37 -85t-97 -31q-77 0 -121 39l40 72q27 -30 68 -30q24 0 40.5 14.5t16.5 39.5q0 27 -17.5 44t-60.5 36h-25v453h-196v107h529v-107h-196z" />
    <glyph glyph-name="uni021A.sc" horiz-adv-x="587" 
d="M558 453h-196v-453h-137v453h-196v107h529v-107zM286 -239h-93l36 173h126z" />
    <glyph glyph-name="a.sc" horiz-adv-x="617" 
d="M419 130h-225l-48 -130h-133l213 560h164l214 -560h-138zM383 227l-34 93l-41 136h-3l-41 -136l-34 -93h153z" />
    <glyph glyph-name="aacute.sc" horiz-adv-x="617" 
d="M350 630h-103l56 155h136zM419 130h-225l-48 -130h-133l213 560h164l214 -560h-138zM383 227l-34 93l-41 136h-3l-41 -136l-34 -93h153z" />
    <glyph glyph-name="abreve.sc" horiz-adv-x="617" 
d="M419 130h-225l-48 -130h-133l213 560h164l214 -560h-138zM383 227l-34 93l-41 136h-3l-41 -136l-34 -93h153zM425.5 665.5q-43.5 -42.5 -117.5 -42.5t-117.5 42.5t-43.5 114.5h93q0 -32 19 -53.5t49 -21.5t49 21.5t19 53.5h93q0 -72 -43.5 -114.5z" />
    <glyph glyph-name="acircumflex.sc" horiz-adv-x="617" 
d="M234 626h-106l111 167h138l111 -167h-106l-74 98zM419 130h-225l-48 -130h-133l213 560h164l214 -560h-138zM383 227l-34 93l-41 136h-3l-41 -136l-34 -93h153z" />
    <glyph glyph-name="adieresis.sc" horiz-adv-x="617" 
d="M419 130h-225l-48 -130h-133l213 560h164l214 -560h-138zM383 227l-34 93l-41 136h-3l-41 -136l-34 -93h153zM257 746q20 -19 20 -51t-20 -51t-55 -19q-34 0 -54 19t-20 51t20 51t54 19q35 0 55 -19zM467.5 746q20.5 -19 20.5 -51t-20.5 -51t-55.5 -19q-34 0 -54 19
t-20 51t20 51t54 19q35 0 55.5 -19z" />
    <glyph glyph-name="agrave.sc" horiz-adv-x="617" 
d="M253 630l-89 155h136l56 -155h-103zM419 130h-225l-48 -130h-133l213 560h164l214 -560h-138zM383 227l-34 93l-41 136h-3l-41 -136l-34 -93h153z" />
    <glyph glyph-name="amacron.sc" horiz-adv-x="617" 
d="M419 130h-225l-48 -130h-133l213 560h164l214 -560h-138zM383 227l-34 93l-41 136h-3l-41 -136l-34 -93h153zM490 639h-364v91h364v-91z" />
    <glyph glyph-name="aogonek.sc" horiz-adv-x="617" 
d="M613 -193q-33 -22 -96 -22q-59 0 -95.5 28.5t-36.5 81.5q0 74 79 111l-45 124h-225l-48 -130h-133l213 560h164l214 -560q-67 -16 -93.5 -37t-26.5 -50q0 -22 16 -34.5t43 -12.5q33 0 50 11zM383 227l-34 93l-41 136h-3l-41 -136l-34 -93h153z" />
    <glyph glyph-name="aring.sc" horiz-adv-x="617" 
d="M419 130h-224l-48 -130h-134l206 534q-25 15 -38.5 40t-13.5 58q0 57 38.5 91.5t103.5 34.5q64 0 102 -34.5t38 -91.5q0 -32 -13.5 -57t-38.5 -41l207 -534h-137zM262.5 673q-17.5 -17 -17.5 -44t17.5 -44t45.5 -17t45.5 17t17.5 44t-17.5 44t-45.5 17t-45.5 -17z
M383 227l-35 93l-39 132h-3l-41 -132l-35 -93h153z" />
    <glyph glyph-name="atilde.sc" horiz-adv-x="617" 
d="M419 130h-225l-48 -130h-133l213 560h164l214 -560h-138zM383 227l-34 93l-41 136h-3l-41 -136l-34 -93h153zM463.5 665.5q-31.5 -37.5 -89.5 -37.5q-29 0 -48.5 10t-40.5 28q-14 12 -23.5 17.5t-20.5 5.5q-18 0 -28 -15t-14 -46h-84q8 150 126 150q29 0 48 -10t40 -28
q15 -12 24 -17.5t20 -5.5q18 0 28 15t14 46h84q-4 -75 -35.5 -112.5z" />
    <glyph glyph-name="ae.sc" horiz-adv-x="840" 
d="M803 99v-99h-434v166h-171l-75 -166h-131l267 560h531v-99h-293v-131h222v-98h-222v-133h306zM369 264v199h-39l-89 -199h128z" />
    <glyph glyph-name="b.sc" horiz-adv-x="615" 
d="M78 560h274q203 0 203 -151q0 -49 -28.5 -82.5t-81.5 -44.5v-1q62 -7 94 -42t32 -88q0 -73 -53.5 -112t-156.5 -39h-283v560zM332 326q45 0 67.5 16.5t22.5 51.5q0 68 -90 68h-120v-136h120zM346 95q45 0 68.5 17.5t23.5 50.5q0 68 -92 68h-134v-136h134z" />
    <glyph glyph-name="c.sc" horiz-adv-x="610" 
d="M501.5 37.5q-68.5 -45.5 -172.5 -45.5q-86 0 -149.5 34.5t-98 99t-34.5 154.5q0 135 76.5 211.5t209.5 76.5q95 0 161.5 -43t84.5 -123l-125 -41q-9 53 -39 76.5t-83 23.5q-68 0 -108 -47t-40 -134t40 -134t107 -47q59 0 91 24.5t40 74.5l124 -36q-16 -79 -84.5 -124.5z
" />
    <glyph glyph-name="cacute.sc" horiz-adv-x="610" 
d="M466 785l-89 -155h-103l56 155h136zM501.5 37.5q-68.5 -45.5 -172.5 -45.5q-86 0 -149.5 34.5t-98 99t-34.5 154.5q0 135 76.5 211.5t209.5 76.5q95 0 161.5 -43t84.5 -123l-125 -41q-9 53 -39 76.5t-83 23.5q-68 0 -108 -47t-40 -134t40 -134t107 -47q59 0 91 24.5
t40 74.5l124 -36q-16 -79 -84.5 -124.5z" />
    <glyph glyph-name="ccaron.sc" horiz-adv-x="610" 
d="M402 627h-138l-111 167h106l74 -98l74 98h106zM501.5 37.5q-68.5 -45.5 -172.5 -45.5q-86 0 -149.5 34.5t-98 99t-34.5 154.5q0 135 76.5 211.5t209.5 76.5q95 0 161.5 -43t84.5 -123l-125 -41q-9 53 -39 76.5t-83 23.5q-68 0 -108 -47t-40 -134t40 -134t107 -47
q59 0 91 24.5t40 74.5l124 -36q-16 -79 -84.5 -124.5z" />
    <glyph glyph-name="ccedilla.sc" horiz-adv-x="610" 
d="M524 54.5q-49 -42.5 -125 -56.5q29 -19 44 -45t15 -54q0 -53 -36.5 -83.5t-96.5 -30.5q-78 0 -119 38l36 71q13 -14 31.5 -22t39.5 -8q24 0 39.5 14.5t15.5 38.5q0 26 -16.5 43t-60.5 34q-114 11 -179 86t-65 200q0 135 76.5 211.5t209.5 76.5q95 0 161.5 -43t84.5 -123
l-125 -41q-9 53 -39 76.5t-83 23.5q-68 0 -108 -47t-40 -134t40 -134t107 -47q59 0 91 24.5t40 74.5l124 -36q-13 -65 -62 -107.5z" />
    <glyph glyph-name="d.sc" horiz-adv-x="656" 
d="M527.5 487q76.5 -73 76.5 -206q0 -134 -76.5 -207.5t-216.5 -73.5h-233v560h233q140 0 216.5 -73zM428 150q39 45 39 131q0 85 -38.5 129.5t-115.5 44.5h-98v-350h98q76 0 115 45z" />
    <glyph glyph-name="eth.sc" horiz-adv-x="673" 
d="M546.5 487q76.5 -73 76.5 -206q0 -134 -76.5 -207.5t-216.5 -73.5h-233v247h-82v67h82v246h233q140 0 216.5 -73zM447 150q39 45 39 131q0 85 -38.5 129.5t-115.5 44.5h-98v-141h130v-67h-130v-142h98q76 0 115 45z" />
    <glyph glyph-name="dcaron.sc" horiz-adv-x="656" 
d="M226 627l-111 167h106l74 -98l74 98h106l-111 -167h-138zM527.5 487q76.5 -73 76.5 -206q0 -134 -76.5 -207.5t-216.5 -73.5h-233v560h233q140 0 216.5 -73zM428 150q39 45 39 131q0 85 -38.5 129.5t-115.5 44.5h-98v-350h98q76 0 115 45z" />
    <glyph glyph-name="dcroat.sc" horiz-adv-x="673" 
d="M546.5 487q76.5 -73 76.5 -206q0 -134 -76.5 -207.5t-216.5 -73.5h-233v247h-82v67h82v246h233q140 0 216.5 -73zM447 150q39 45 39 131q0 85 -38.5 129.5t-115.5 44.5h-98v-141h130v-67h-130v-142h98q76 0 115 45z" />
    <glyph glyph-name="e.sc" horiz-adv-x="578" 
d="M541 101v-101h-463v560h454v-101h-317v-128h247v-97h-247v-133h326z" />
    <glyph glyph-name="eacute.sc" horiz-adv-x="578" 
d="M347 630h-102l56 155h136zM541 101v-101h-463v560h454v-101h-317v-128h247v-97h-247v-133h326z" />
    <glyph glyph-name="ecaron.sc" horiz-adv-x="578" 
d="M228 627l-111 167h106l74 -98l74 98h106l-111 -167h-138zM541 101v-101h-463v560h454v-101h-317v-128h247v-97h-247v-133h326z" />
    <glyph glyph-name="ecircumflex.sc" horiz-adv-x="578" 
d="M226 626h-106l111 167h138l111 -167h-106l-74 98zM541 101v-101h-463v560h454v-101h-317v-128h247v-97h-247v-133h326z" />
    <glyph glyph-name="edieresis.sc" horiz-adv-x="578" 
d="M541 101v-101h-463v560h454v-101h-317v-128h247v-97h-247v-133h326zM249 746q20 -19 20 -51t-20 -51t-55 -19q-34 0 -54 19t-20 51t20 51t54 19q35 0 55 -19zM459.5 746q20.5 -19 20.5 -51t-20.5 -51t-55.5 -19q-34 0 -54 19t-20 51t20 51t54 19q35 0 55.5 -19z" />
    <glyph glyph-name="edotaccent.sc" horiz-adv-x="578" 
d="M541 101v-101h-463v560h454v-101h-317v-128h247v-97h-247v-133h326zM360 761q21 -19 21 -54t-21 -54t-60 -19q-38 0 -59 19t-21 54t21 54t59 19q39 0 60 -19z" />
    <glyph glyph-name="egrave.sc" horiz-adv-x="578" 
d="M252 630l-89 155h136l56 -155h-103zM541 101v-101h-463v560h454v-101h-317v-128h247v-97h-247v-133h326z" />
    <glyph glyph-name="emacron.sc" horiz-adv-x="578" 
d="M541 101v-101h-463v560h454v-101h-317v-128h247v-97h-247v-133h326zM482 639h-364v91h364v-91z" />
    <glyph glyph-name="eogonek.sc" horiz-adv-x="578" 
d="M549 -193q-33 -22 -96 -22q-59 0 -95 28t-36 78q0 73 82 109h-326v560h454v-101h-317v-128h247v-97h-247v-133h326v-101q-67 -16 -93.5 -37.5t-26.5 -49.5q0 -22 15.5 -34.5t42.5 -12.5q33 0 50 11z" />
    <glyph glyph-name="f.sc" horiz-adv-x="563" 
d="M215 459v-132h247v-101h-247v-226h-137v560h454v-101h-317z" />
    <glyph glyph-name="g.sc" horiz-adv-x="640" 
d="M585 303v-303h-89l-6 87q-21 -43 -62.5 -69t-107.5 -26q-83 0 -144.5 34t-95 99t-33.5 155q0 135 77 211.5t210 76.5q95 0 158.5 -38t91.5 -112l-117 -49q-16 49 -48 71.5t-81 22.5q-71 0 -111.5 -47.5t-40.5 -135.5q0 -91 39.5 -138.5t117.5 -47.5q58 0 88.5 29.5
t30.5 84.5v3h-136v92h259z" />
    <glyph glyph-name="gbreve.sc" horiz-adv-x="640" 
d="M585 303v-303h-89l-6 87q-21 -43 -62.5 -69t-107.5 -26q-83 0 -144.5 34t-95 99t-33.5 155q0 135 77 211.5t210 76.5q95 0 158.5 -38t91.5 -112l-117 -49q-16 49 -48 71.5t-81 22.5q-71 0 -111.5 -47.5t-40.5 -135.5q0 -91 39.5 -138.5t117.5 -47.5q58 0 88.5 29.5
t30.5 84.5v3h-136v92h259zM456.5 665.5q-43.5 -42.5 -117.5 -42.5t-117.5 42.5t-43.5 114.5h93q0 -32 19 -53.5t49 -21.5t49 21.5t19 53.5h93q0 -72 -43.5 -114.5z" />
    <glyph glyph-name="h.sc" horiz-adv-x="674" 
d="M595 560v-560h-137v230h-243v-230h-137v560h137v-223h243v223h137z" />
    <glyph glyph-name="i.sc" horiz-adv-x="294" 
d="M215 0h-137v560h137v-560z" />
    <glyph glyph-name="iacute.sc" horiz-adv-x="294" 
d="M281 785l-90 -155h-102l55 155h137zM215 0h-137v560h137v-560z" />
    <glyph glyph-name="iacute_j.loclNLD.sc" horiz-adv-x="845" 
d="M280 785l-90 -155h-102l55 155h137zM845 785l-90 -155h-102l55 155h137zM215 0h-137v560h137v-560zM775 208q0 -106 -59.5 -161t-172.5 -55q-105 0 -160.5 47t-55.5 128q0 21 5 51l129 23q-4 -36 -4 -48q0 -50 20.5 -72t63.5 -22q53 0 75 29.5t22 93.5v338h137v-352z" />
    <glyph glyph-name="icircumflex.sc" horiz-adv-x="294" 
d="M221 626l-74 98l-74 -98h-106l111 167h138l111 -167h-106zM215 0h-137v560h137v-560z" />
    <glyph glyph-name="idieresis.sc" horiz-adv-x="294" 
d="M107 746q20 -19 20 -51t-20 -51t-54 -19t-53.5 19t-19.5 51t19.5 51t53.5 19t54 -19zM293 746q20 -19 20 -51t-20 -51t-54 -19q-33 0 -52.5 19t-19.5 51t19.5 51t52.5 19q34 0 54 -19zM215 0h-137v560h137v-560z" />
    <glyph glyph-name="i.sc.loclTRK" horiz-adv-x="294" 
d="M215 0h-137v560h137v-560zM207 733q21 -19 21 -54t-21 -54t-60 -19q-38 0 -59 19t-21 54t21 54t59 19q39 0 60 -19z" />
    <glyph glyph-name="igrave.sc" horiz-adv-x="294" 
d="M195 630h-103l-89 155h136zM215 0h-137v560h137v-560z" />
    <glyph glyph-name="ij.sc" horiz-adv-x="845" 
d="M215 0h-137v560h137v-560zM775 208q0 -107 -59.5 -161.5t-172.5 -54.5q-105 0 -160.5 47t-55.5 128q0 21 5 51l129 23q-4 -36 -4 -48q0 -50 20.5 -72t63.5 -22q53 0 75 29.5t22 93.5v338h137v-352z" />
    <glyph glyph-name="imacron.sc" horiz-adv-x="294" 
d="M271 639h-247v91h247v-91zM215 0h-137v560h137v-560z" />
    <glyph glyph-name="iogonek.sc" horiz-adv-x="294" 
d="M235 -191q-37 -24 -98 -24q-58 0 -93.5 28t-35.5 78q0 34 19 62t54 47h-3v560h137v-560q-61 -19 -85 -39.5t-24 -45.5q0 -23 14 -35.5t41 -12.5q33 0 52 12z" />
    <glyph glyph-name="j.sc" horiz-adv-x="551" 
d="M481 208q0 -107 -59.5 -161.5t-172.5 -54.5q-105 0 -160.5 47t-55.5 128q0 21 5 51l129 23q-4 -36 -4 -48q0 -50 20.5 -72t63.5 -22q53 0 75 29.5t22 93.5v338h137v-352z" />
    <glyph glyph-name="k.sc" horiz-adv-x="632" 
d="M301 245l-86 -87v-158h-137v560h137v-260l246 260h151l-215 -232l221 -328h-158z" />
    <glyph glyph-name="l.sc" horiz-adv-x="583" 
d="M524 107v-107h-446v560h137v-453h309z" />
    <glyph glyph-name="lacute.sc" horiz-adv-x="583" 
d="M193 630h-103l56 155h136zM524 107v-107h-446v560h137v-453h309z" />
    <glyph glyph-name="lcaron.sc" horiz-adv-x="583" 
d="M524 107v-107h-446v560h137v-453h309zM382 336h-89l23 224h118z" />
    <glyph glyph-name="ldot.sc" horiz-adv-x="614" 
d="M524 107v-107h-446v560h137v-453h309zM556.5 368q23.5 -22 23.5 -59t-23.5 -59t-63.5 -22t-63.5 21.5t-23.5 59.5t23.5 59.5t63.5 21.5t63.5 -22z" />
    <glyph glyph-name="lslash.sc" horiz-adv-x="578" 
d="M547 107v-107h-445v194l-97 -49v96l97 48v271h137v-202l152 76v-96l-152 -76v-155h308z" />
    <glyph glyph-name="m.sc" horiz-adv-x="816" 
d="M78 560h191l105 -301l33 -111h4l33 111l104 301h190v-560h-126v252l9 185h-2l-157 -437h-108l-157 437h-1l7 -185v-252h-125v560z" />
    <glyph glyph-name="n.sc" horiz-adv-x="680" 
d="M601 0h-160l-194 330l-45 87h-2l6 -105v-312h-128v560h161l193 -330l45 -87h2l-5 105v312h127v-560z" />
    <glyph glyph-name="nacute.sc" horiz-adv-x="680" 
d="M475 785l-89 -155h-103l56 155h136zM601 0h-160l-194 330l-45 87h-2l6 -105v-312h-128v560h161l193 -330l45 -87h2l-5 105v312h127v-560z" />
    <glyph glyph-name="ncaron.sc" horiz-adv-x="680" 
d="M411 627h-138l-111 167h106l74 -98l74 98h106zM601 0h-160l-194 330l-45 87h-2l6 -105v-312h-128v560h161l193 -330l45 -87h2l-5 105v312h127v-560z" />
    <glyph glyph-name="ntilde.sc" horiz-adv-x="680" 
d="M601 0h-160l-194 330l-45 87h-2l6 -105v-312h-128v560h161l193 -330l45 -87h2l-5 105v312h127v-560zM499.5 665.5q-31.5 -37.5 -89.5 -37.5q-29 0 -48.5 10t-40.5 28q-14 12 -23.5 17.5t-20.5 5.5q-18 0 -28 -15t-14 -46h-84q8 150 126 150q29 0 48 -10t40 -28
q15 -12 24 -17.5t20 -5.5q18 0 28 15t14 46h84q-4 -75 -35.5 -112.5z" />
    <glyph glyph-name="o.sc" horiz-adv-x="667" 
d="M543.5 491.5q76.5 -76.5 76.5 -211.5t-76.5 -211.5t-209.5 -76.5q-134 0 -210.5 76.5t-76.5 211.5t76.5 211.5t210.5 76.5q133 0 209.5 -76.5zM223 414.5q-39 -46.5 -39 -134.5t39 -134.5t111 -46.5q71 0 110 46.5t39 134.5t-39 134.5t-110 46.5q-72 0 -111 -46.5z" />
    <glyph glyph-name="oacute.sc" horiz-adv-x="667" 
d="M465 785l-89 -155h-103l56 155h136zM543.5 491.5q76.5 -76.5 76.5 -211.5t-76.5 -211.5t-209.5 -76.5q-134 0 -210.5 76.5t-76.5 211.5t76.5 211.5t210.5 76.5q133 0 209.5 -76.5zM223 414.5q-39 -46.5 -39 -134.5t39 -134.5t111 -46.5q71 0 110 46.5t39 134.5t-39 134.5
t-110 46.5q-72 0 -111 -46.5z" />
    <glyph glyph-name="ocircumflex.sc" horiz-adv-x="667" 
d="M408 626l-74 98l-74 -98h-106l111 167h138l111 -167h-106zM543.5 491.5q76.5 -76.5 76.5 -211.5t-76.5 -211.5t-209.5 -76.5q-134 0 -210.5 76.5t-76.5 211.5t76.5 211.5t210.5 76.5q133 0 209.5 -76.5zM223 414.5q-39 -46.5 -39 -134.5t39 -134.5t111 -46.5
q71 0 110 46.5t39 134.5t-39 134.5t-110 46.5q-72 0 -111 -46.5z" />
    <glyph glyph-name="odieresis.sc" horiz-adv-x="667" 
d="M543.5 491.5q76.5 -76.5 76.5 -211.5t-76.5 -211.5t-209.5 -76.5q-134 0 -210.5 76.5t-76.5 211.5t76.5 211.5t210.5 76.5q133 0 209.5 -76.5zM223 414.5q-39 -46.5 -39 -134.5t39 -134.5t111 -46.5q71 0 110 46.5t39 134.5t-39 134.5t-110 46.5q-72 0 -111 -46.5z
M283 746q20 -19 20 -51t-20 -51t-55 -19q-34 0 -54 19t-20 51t20 51t54 19q35 0 55 -19zM493.5 746q20.5 -19 20.5 -51t-20.5 -51t-55.5 -19q-34 0 -54 19t-20 51t20 51t54 19q35 0 55.5 -19z" />
    <glyph glyph-name="ograve.sc" horiz-adv-x="667" 
d="M382 630h-103l-89 155h136zM543.5 491.5q76.5 -76.5 76.5 -211.5t-76.5 -211.5t-209.5 -76.5q-134 0 -210.5 76.5t-76.5 211.5t76.5 211.5t210.5 76.5q133 0 209.5 -76.5zM223 414.5q-39 -46.5 -39 -134.5t39 -134.5t111 -46.5q71 0 110 46.5t39 134.5t-39 134.5
t-110 46.5q-72 0 -111 -46.5z" />
    <glyph glyph-name="ohungarumlaut.sc" horiz-adv-x="667" 
d="M359 785l-90 -155h-102l55 155h137zM557 785l-90 -155h-102l56 155h136zM543.5 491.5q76.5 -76.5 76.5 -211.5t-76.5 -211.5t-209.5 -76.5q-134 0 -210.5 76.5t-76.5 211.5t76.5 211.5t210.5 76.5q133 0 209.5 -76.5zM223 414.5q-39 -46.5 -39 -134.5t39 -134.5
t111 -46.5q71 0 110 46.5t39 134.5t-39 134.5t-110 46.5q-72 0 -111 -46.5z" />
    <glyph glyph-name="omacron.sc" horiz-adv-x="667" 
d="M543.5 491.5q76.5 -76.5 76.5 -211.5t-76.5 -211.5t-209.5 -76.5q-134 0 -210.5 76.5t-76.5 211.5t76.5 211.5t210.5 76.5q133 0 209.5 -76.5zM223 414.5q-39 -46.5 -39 -134.5t39 -134.5t111 -46.5q71 0 110 46.5t39 134.5t-39 134.5t-110 46.5q-72 0 -111 -46.5z
M516 639h-364v91h364v-91z" />
    <glyph glyph-name="oslash.sc" horiz-adv-x="667" 
d="M599 404.5q21 -55.5 21 -124.5q0 -135 -76.5 -211.5t-209.5 -76.5q-92 0 -161 39l-40 -53h-64l64 82q-42 38 -64 94t-22 126q0 135 76.5 211.5t210.5 76.5q97 0 164 -41l37 49h64l-61 -79q40 -37 61 -92.5zM223 414.5q-39 -46.5 -39 -134.5q0 -78 31 -123l207 278
q-37 26 -88 26q-72 0 -111 -46.5zM444 145.5q39 46.5 39 134.5q0 71 -26 117l-205 -277q33 -21 82 -21q71 0 110 46.5z" />
    <glyph glyph-name="otilde.sc" horiz-adv-x="667" 
d="M543.5 491.5q76.5 -76.5 76.5 -211.5t-76.5 -211.5t-209.5 -76.5q-134 0 -210.5 76.5t-76.5 211.5t76.5 211.5t210.5 76.5q133 0 209.5 -76.5zM223 414.5q-39 -46.5 -39 -134.5t39 -134.5t111 -46.5q71 0 110 46.5t39 134.5t-39 134.5t-110 46.5q-72 0 -111 -46.5z
M489.5 665.5q-31.5 -37.5 -89.5 -37.5q-29 0 -48.5 10t-40.5 28q-14 12 -23.5 17.5t-20.5 5.5q-18 0 -28 -15t-14 -46h-84q8 150 126 150q29 0 48 -10t40 -28q15 -12 24 -17.5t20 -5.5q18 0 28 15t14 46h84q-4 -75 -35.5 -112.5z" />
    <glyph glyph-name="oe.sc" horiz-adv-x="949" 
d="M912 101v-101h-408v83q-55 -91 -188 -91q-79 0 -140 34.5t-95 100t-34 153.5t34 153.5t95.5 100t141.5 34.5q131 0 186 -90v82h398v-101h-301v-128h236v-97h-236v-133h311zM436.5 145q36.5 46 36.5 135q0 88 -37 134.5t-104 46.5q-72 0 -111 -46t-39 -135t39 -135
t111 -46q68 0 104.5 46z" />
    <glyph glyph-name="p.sc" horiz-adv-x="590" 
d="M497 511q58 -49 58 -136q0 -86 -58 -134.5t-158 -48.5h-124v-192h-137v560h261q100 0 158 -49zM420 374q0 86 -99 86h-106v-170h106q99 0 99 84z" />
    <glyph glyph-name="thorn.sc" horiz-adv-x="599" 
d="M499.5 420q58.5 -48 58.5 -136t-58.5 -136.5t-168.5 -48.5h-116v-99h-137v560h137v-92h116q110 0 168.5 -48zM424 284q0 85 -102 85h-107v-171h107q102 0 102 86z" />
    <glyph glyph-name="q.sc" horiz-adv-x="667" 
d="M577 -34l35 -96q-23 -19 -59.5 -30.5t-75.5 -11.5q-87 0 -137 41t-49 125q-115 13 -179.5 88t-64.5 198q0 135 76.5 211.5t210.5 76.5q133 0 209.5 -76.5t76.5 -211.5q0 -124 -65.5 -199.5t-181.5 -86.5q11 -65 102 -65q67 0 102 37zM223 145.5q39 -46.5 111 -46.5
q71 0 110 46.5t39 134.5t-39 134.5t-110 46.5q-72 0 -111 -46.5t-39 -134.5t39 -134.5z" />
    <glyph glyph-name="r.sc" horiz-adv-x="616" 
d="M321 207h-107v-207h-136v560h266q102 0 160.5 -46.5t58.5 -130.5q0 -59 -30.5 -100.5t-86.5 -60.5l147 -222h-149zM214 298h115q99 0 99 81t-99 81h-115v-162z" />
    <glyph glyph-name="racute.sc" horiz-adv-x="616" 
d="M342 630h-103l56 155h136zM321 207h-107v-207h-136v560h266q102 0 160.5 -46.5t58.5 -130.5q0 -59 -30.5 -100.5t-86.5 -60.5l147 -222h-149zM214 298h115q99 0 99 81t-99 81h-115v-162z" />
    <glyph glyph-name="rcaron.sc" horiz-adv-x="616" 
d="M229 627l-111 167h106l74 -98l74 98h106l-111 -167h-138zM321 207h-107v-207h-136v560h266q102 0 160.5 -46.5t58.5 -130.5q0 -59 -30.5 -100.5t-86.5 -60.5l147 -222h-149zM214 298h115q99 0 99 81t-99 81h-115v-162z" />
    <glyph glyph-name="s.sc" horiz-adv-x="568" 
d="M429.5 544.5q57.5 -23.5 103.5 -75.5l-75 -95q-31 47 -69.5 66.5t-100.5 19.5q-52 0 -80 -16t-28 -44q0 -26 30 -38t94 -22q71 -12 117 -26.5t80 -49.5t34 -98q0 -80 -68 -127t-181 -47q-89 0 -152.5 25t-107.5 74l70 99q33 -48 77.5 -69t111.5 -21q110 0 110 56
q0 28 -29.5 38.5t-95.5 20.5q-72 11 -117.5 25t-79 49.5t-33.5 99.5q0 52 30 93t85.5 63.5t130.5 22.5q86 0 143.5 -23.5z" />
    <glyph glyph-name="sacute.sc" horiz-adv-x="568" 
d="M417 785l-89 -155h-103l56 155h136zM429.5 544.5q57.5 -23.5 103.5 -75.5l-75 -95q-31 47 -69.5 66.5t-100.5 19.5q-52 0 -80 -16t-28 -44q0 -26 30 -38t94 -22q71 -12 117 -26.5t80 -49.5t34 -98q0 -80 -68 -127t-181 -47q-89 0 -152.5 25t-107.5 74l70 99
q33 -48 77.5 -69t111.5 -21q110 0 110 56q0 28 -29.5 38.5t-95.5 20.5q-72 11 -117.5 25t-79 49.5t-33.5 99.5q0 52 30 93t85.5 63.5t130.5 22.5q86 0 143.5 -23.5z" />
    <glyph glyph-name="scaron.sc" horiz-adv-x="568" 
d="M353 627h-138l-111 167h106l74 -98l74 98h106zM429.5 544.5q57.5 -23.5 103.5 -75.5l-75 -95q-31 47 -69.5 66.5t-100.5 19.5q-52 0 -80 -16t-28 -44q0 -26 30 -38t94 -22q71 -12 117 -26.5t80 -49.5t34 -98q0 -80 -68 -127t-181 -47q-89 0 -152.5 25t-107.5 74l70 99
q33 -48 77.5 -69t111.5 -21q110 0 110 56q0 28 -29.5 38.5t-95.5 20.5q-72 11 -117.5 25t-79 49.5t-33.5 99.5q0 52 30 93t85.5 63.5t130.5 22.5q86 0 143.5 -23.5z" />
    <glyph glyph-name="germandbls.sc" horiz-adv-x="652" 
d="M572 272.5q49 -36.5 49 -112.5q0 -77 -51.5 -120.5t-136.5 -43.5q-56 0 -95.5 13.5t-61.5 37.5l36 80q45 -36 98 -36q40 0 64 18.5t24 51.5q0 38 -24.5 53t-73.5 15h-83v80l145 148h-133q-48 0 -81 -31.5t-33 -82.5v-343h-137v347q0 64 30 112t83 74.5t122 26.5h276v-101
l-150 -150q84 0 133 -36.5z" />
    <glyph glyph-name="t.sc" horiz-adv-x="587" 
d="M558 453h-196v-453h-137v453h-196v107h529v-107z" />
    <glyph glyph-name="tcaron.sc" horiz-adv-x="587" 
d="M222 627l-111 167h106l74 -98l74 98h106l-111 -167h-138zM558 453h-196v-453h-137v453h-196v107h529v-107z" />
    <glyph glyph-name="u.sc" horiz-adv-x="653" 
d="M584 226q0 -116 -65 -175t-193 -59q-127 0 -191.5 59t-64.5 175v334h137v-332q0 -66 29 -97.5t90 -31.5q62 0 91.5 31.5t29.5 97.5v332h137v-334z" />
    <glyph glyph-name="uacute.sc" horiz-adv-x="653" 
d="M457 785l-89 -155h-103l56 155h136zM584 226q0 -116 -65 -175t-193 -59q-127 0 -191.5 59t-64.5 175v334h137v-332q0 -66 29 -97.5t90 -31.5q62 0 91.5 31.5t29.5 97.5v332h137v-334z" />
    <glyph glyph-name="ucircumflex.sc" horiz-adv-x="653" 
d="M400 626l-74 98l-74 -98h-106l111 167h138l111 -167h-106zM584 226q0 -116 -65 -175t-193 -59q-127 0 -191.5 59t-64.5 175v334h137v-332q0 -66 29 -97.5t90 -31.5q62 0 91.5 31.5t29.5 97.5v332h137v-334z" />
    <glyph glyph-name="udieresis.sc" horiz-adv-x="653" 
d="M584 226q0 -116 -65 -175t-193 -59q-127 0 -191.5 59t-64.5 175v334h137v-332q0 -66 29 -97.5t90 -31.5q62 0 91.5 31.5t29.5 97.5v332h137v-334zM276 746q20 -19 20 -51t-20 -51t-55 -19q-34 0 -54 19t-20 51t20 51t54 19q35 0 55 -19zM486.5 746q20.5 -19 20.5 -51
t-20.5 -51t-55.5 -19q-34 0 -54 19t-20 51t20 51t54 19q35 0 55.5 -19z" />
    <glyph glyph-name="ugrave.sc" horiz-adv-x="653" 
d="M374 630h-103l-89 155h136zM584 226q0 -116 -65 -175t-193 -59q-127 0 -191.5 59t-64.5 175v334h137v-332q0 -66 29 -97.5t90 -31.5q62 0 91.5 31.5t29.5 97.5v332h137v-334z" />
    <glyph glyph-name="uhungarumlaut.sc" horiz-adv-x="653" 
d="M358 785l-90 -155h-102l55 155h137zM557 785l-90 -155h-103l56 155h137zM584 226q0 -116 -65 -175t-193 -59q-127 0 -191.5 59t-64.5 175v334h137v-332q0 -66 29 -97.5t90 -31.5q62 0 91.5 31.5t29.5 97.5v332h137v-334z" />
    <glyph glyph-name="umacron.sc" horiz-adv-x="653" 
d="M584 226q0 -116 -65 -175t-193 -59q-127 0 -191.5 59t-64.5 175v334h137v-332q0 -66 29 -97.5t90 -31.5q62 0 91.5 31.5t29.5 97.5v332h137v-334zM508 639h-364v91h364v-91z" />
    <glyph glyph-name="uogonek.sc" horiz-adv-x="653" 
d="M584 560v-334q0 -187 -167 -225q-48 -21 -69 -42.5t-21 -44.5q0 -22 16 -35t42 -13q33 0 50 11l20 -71q-34 -21 -95 -21q-58 0 -95 28.5t-37 78.5q0 63 58 102q-108 9 -162 67.5t-54 164.5v334h137v-332q0 -66 29 -97.5t90 -31.5q62 0 91.5 31.5t29.5 97.5v332h137z" />
    <glyph glyph-name="uring.sc" horiz-adv-x="653" 
d="M584 226q0 -116 -65 -175t-193 -59q-127 0 -191.5 59t-64.5 175v334h137v-332q0 -66 29 -97.5t90 -31.5q62 0 91.5 31.5t29.5 97.5v332h137v-334zM423 756.5q35 -32.5 35 -87.5t-35 -87.5t-96 -32.5t-96.5 32.5t-35.5 87.5t35.5 87.5t96.5 32.5t96 -32.5zM284.5 711
q-16.5 -16 -16.5 -42q0 -25 16.5 -41t42.5 -16t42.5 16t16.5 41q0 26 -16.5 42t-42.5 16t-42.5 -16z" />
    <glyph glyph-name="v.sc" horiz-adv-x="618" 
d="M390 0h-161l-217 560h146l116 -323l37 -128h1l37 127l116 324h141z" />
    <glyph glyph-name="w.sc" horiz-adv-x="914" 
d="M420 255l-67 -255h-170l-166 560h145l79 -315l35 -141l110 456h144l112 -457l35 142l79 315h141l-166 -560h-166l-68 255l-38 184h-2z" />
    <glyph glyph-name="x.sc" horiz-adv-x="578" 
d="M405 0l-125 188l-126 -188h-148l204 285l-188 275h157l113 -180l117 180h145l-190 -272l200 -288h-159z" />
    <glyph glyph-name="y.sc" horiz-adv-x="569" 
d="M353 209v-209h-137v209l-209 351h144l91 -166l44 -86l45 86l91 166h140z" />
    <glyph glyph-name="yacute.sc" horiz-adv-x="569" 
d="M416 785l-89 -155h-103l56 155h136zM353 209v-209h-137v209l-209 351h144l91 -166l44 -86l45 86l91 166h140z" />
    <glyph glyph-name="ydieresis.sc" horiz-adv-x="569" 
d="M353 209v-209h-137v209l-209 351h144l91 -166l44 -86l45 86l91 166h140zM234 746q20 -19 20 -51t-20 -51t-55 -19q-34 0 -54 19t-20 51t20 51t54 19q35 0 55 -19zM444.5 746q20.5 -19 20.5 -51t-20.5 -51t-55.5 -19q-34 0 -54 19t-20 51t20 51t54 19q35 0 55.5 -19z" />
    <glyph glyph-name="z.sc" horiz-adv-x="579" 
d="M538 105v-105h-493v94l275 305l61 56h-340v105h487v-96l-265 -289l-75 -70h350z" />
    <glyph glyph-name="zacute.sc" horiz-adv-x="579" 
d="M326 630h-103l56 155h136zM538 105v-105h-493v94l275 305l61 56h-340v105h487v-96l-265 -289l-75 -70h350z" />
    <glyph glyph-name="zcaron.sc" horiz-adv-x="571" 
d="M216 627l-112 167h107l74 -98l73 98h107l-112 -167h-137zM538 105v-105h-493v94l275 305l61 56h-340v105h487v-96l-265 -289l-75 -70h350z" />
    <glyph glyph-name="zdotaccent.sc" horiz-adv-x="579" 
d="M538 105v-105h-493v94l275 305l61 56h-340v105h487v-96l-265 -289l-75 -70h350zM344 761q21 -19 21 -54t-21 -54t-60 -19q-38 0 -59 19t-21 54t21 54t59 19q39 0 60 -19z" />
    <glyph glyph-name="Rcommaaccent.sc.ss03" horiz-adv-x="615" 
d="M78 560h266q102 0 160.5 -45.5t58.5 -124.5q0 -59 -32.5 -96.5t-89.5 -48.5v-2q46 -9 70.5 -35t28.5 -64q7 -61 13.5 -90.5t18.5 -49.5v-4h-144q-7 17 -11 39t-8 62l-4 30q-4 39 -30 57.5t-75 18.5h-86v-207h-136v560zM326 298q102 0 102 81t-102 81h-112v-162h112z
M320 -239h-93l36 173h126z" />
    <glyph glyph-name="r.sc.ss03" horiz-adv-x="615" 
d="M78 560h266q102 0 160.5 -45.5t58.5 -124.5q0 -59 -32.5 -96.5t-89.5 -48.5v-2q46 -9 70.5 -35t28.5 -64q7 -61 13.5 -90.5t18.5 -49.5v-4h-144q-7 17 -11 39t-8 62l-4 30q-4 39 -30 57.5t-75 18.5h-86v-207h-136v560zM326 298q102 0 102 81t-102 81h-112v-162h112z" />
    <glyph glyph-name="racute.sc.ss03" horiz-adv-x="615" 
d="M78 560h266q102 0 160.5 -45.5t58.5 -124.5q0 -59 -32.5 -96.5t-89.5 -48.5v-2q46 -9 70.5 -35t28.5 -64q7 -61 13.5 -90.5t18.5 -49.5v-4h-144q-7 17 -11 39t-8 62l-4 30q-4 39 -30 57.5t-75 18.5h-86v-207h-136v560zM326 298q102 0 102 81t-102 81h-112v-162h112z
M435 802l-100 -170h-102l70 170h132z" />
    <glyph glyph-name="rcaron.sc.ss03" horiz-adv-x="615" 
d="M78 560h266q102 0 160.5 -45.5t58.5 -124.5q0 -59 -32.5 -96.5t-89.5 -48.5v-2q46 -9 70.5 -35t28.5 -64q7 -61 13.5 -90.5t18.5 -49.5v-4h-144q-7 17 -11 39t-8 62l-4 30q-4 39 -30 57.5t-75 18.5h-86v-207h-136v560zM326 298q102 0 102 81t-102 81h-112v-162h112z
M367 632h-138l-110 170h105l74 -95l74 95h105z" />
    <glyph glyph-name="Gcommaaccent.sc.ss04" horiz-adv-x="642" 
d="M596 294v-50q0 -122 -66 -187t-193 -65q-134 0 -211 75.5t-77 211.5q0 89 35 154.5t100 100t154 34.5q94 0 158.5 -37.5t93.5 -113.5l-120 -40q-29 87 -129 87q-71 0 -113 -48.5t-42 -135.5q0 -91 40 -138.5t118 -47.5q68 0 102 34t34 80v4h-148v82h264zM360 -239h-93
l36 173h126z" />
    <glyph glyph-name="g.sc.ss04" horiz-adv-x="642" 
d="M596 294v-50q0 -122 -66 -187t-193 -65q-134 0 -211 75.5t-77 211.5q0 89 35 154.5t100 100t154 34.5q94 0 158.5 -37.5t93.5 -113.5l-120 -40q-29 87 -129 87q-71 0 -113 -48.5t-42 -135.5q0 -91 40 -138.5t118 -47.5q68 0 102 34t34 80v4h-148v82h264z" />
    <glyph glyph-name="gbreve.sc.ss04" horiz-adv-x="642" 
d="M596 294v-50q0 -122 -66 -187t-193 -65q-134 0 -211 75.5t-77 211.5q0 89 35 154.5t100 100t154 34.5q94 0 158.5 -37.5t93.5 -113.5l-120 -40q-29 87 -129 87q-71 0 -113 -48.5t-42 -135.5q0 -91 40 -138.5t118 -47.5q68 0 102 34t34 80v4h-148v82h264zM457.5 665.5
q-43.5 -42.5 -117.5 -42.5t-117.5 42.5t-43.5 114.5h93q0 -32 19 -53.5t49 -21.5t49 21.5t19 53.5h93q0 -72 -43.5 -114.5z" />
    <glyph glyph-name="iacute_j.loclNLD.sc.ss05" horiz-adv-x="590" 
d="M262 785h207l-90 -155h-173zM521 560v-348q0 -103 -63 -161.5t-169 -58.5q-107 0 -163.5 43t-56.5 124q0 10 2 30h134q-1 -6 -1 -16q0 -74 87 -74q93 0 93 119v342h137zM207 252h-137v308h137v-308z" />
    <glyph glyph-name="ij.sc.ss05" horiz-adv-x="590" 
d="M521 212q0 -103 -63 -161.5t-169 -58.5q-107 0 -163.5 43t-56.5 124q0 10 2 30h134q-1 -6 -1 -16q0 -74 87 -74q93 0 93 119v342h137v-348zM207 252h-137v308h137v-308z" />
    <glyph glyph-name="ordfeminine" unicode="&#xaa;" horiz-adv-x="418" 
d="M395 383l-8 -58q-20 -11 -49 -11q-31 0 -52 13.5t-28 39.5q-17 -25 -49.5 -39t-76.5 -14q-53 0 -81.5 21.5t-28.5 61.5q0 43 31.5 69.5t101.5 39.5l85 16v13q0 26 -15 40t-43 14t-46.5 -12t-26.5 -42l-82 26q9 48 50 75t110 27q158 0 158 -129v-124q0 -30 28 -30
q15 0 22 3zM218.5 396q21.5 15 21.5 40v37l-53 -12q-33 -7 -48 -18t-15 -30q0 -32 45 -32q28 0 49.5 15zM31 245h349v-76h-349v76z" />
    <glyph glyph-name="ordmasculine" unicode="&#xba;" horiz-adv-x="400" 
d="M72.5 360q-45.5 46 -45.5 128q0 83 45.5 129t127.5 46t127 -46t45 -129q0 -82 -45 -128t-127 -46t-127.5 46zM250.5 411.5q16.5 25.5 16.5 76.5q0 104 -67 104t-67 -104q0 -51 16.5 -76.5t50.5 -25.5t50.5 25.5zM36 245h328v-76h-328v76z" />
    <glyph glyph-name="pi" unicode="&#x3c0;" horiz-adv-x="769" 
d="M595 401v-235q0 -40 24 -56.5t77 -13.5l-16 -98q-13 -1 -37 -1q-103 0 -144 33.5t-41 109.5v261h-169v-401h-137v401h-127v99h709v-99h-139z" />
    <glyph glyph-name="zero" unicode="0" horiz-adv-x="636" 
d="M120.5 76q-66.5 86 -66.5 254t66.5 254t197.5 86t197.5 -86t66.5 -254t-66.5 -254t-197.5 -86t-197.5 86zM413 157q31 56 31 173t-31 173t-95 56t-95 -56t-31 -173t31 -173t95 -56t95 56z" />
    <glyph glyph-name="one" unicode="1" horiz-adv-x="428" 
d="M343 660v-660h-134v492q0 16 1 25q-36 -33 -77.5 -56t-83.5 -31l-18 116q46 5 110.5 41.5t89.5 72.5h112z" />
    <glyph glyph-name="two" unicode="2" horiz-adv-x="591" 
d="M65 94q121 81 192 142t103 113t32 103q0 47 -28.5 76t-78.5 29q-55 0 -87 -38t-35 -108l-119 45q7 100 74 157t175 57q77 0 130.5 -29t80.5 -76.5t27 -104.5q0 -93 -70 -175.5t-223 -176.5v-1q58 4 121 4h182v-111h-476v94z" />
    <glyph glyph-name="three" unicode="3" horiz-adv-x="589" 
d="M461.5 620q59.5 -50 59.5 -130q0 -49 -20 -84.5t-49 -53.5t-55 -18v-3q33 0 64.5 -17t52 -51.5t20.5 -83.5q0 -55 -31.5 -98t-87.5 -67t-128 -24q-97 0 -158.5 39.5t-89.5 122.5l125 56q11 -55 40.5 -81t83.5 -26q51 0 81 25.5t30 68.5q0 46 -28.5 66.5t-89.5 20.5h-33
v96h28q108 0 108 91q0 44 -24.5 67t-69.5 23q-46 0 -74 -24t-35 -70l-123 45q19 79 82.5 119.5t155.5 40.5q106 0 165.5 -50z" />
    <glyph glyph-name="four" unicode="4" horiz-adv-x="633" 
d="M598 155h-107v-155h-125v155h-329v73l289 432h165v-405h107v-100zM170 255h196v202l3 108h-2q-22 -51 -60 -109z" />
    <glyph glyph-name="five" unicode="5" horiz-adv-x="582" 
d="M479.5 368.5q55.5 -56.5 55.5 -148.5q0 -111 -67.5 -170.5t-177.5 -59.5q-89 0 -149.5 33.5t-98.5 105.5l124 69q13 -49 40.5 -73.5t82.5 -24.5t86.5 29t31.5 82q-1 54 -30 82.5t-85 28.5q-83 0 -121 -48l-108 12l41 374h397v-111h-293l-19 -155l-3 -19h1q22 24 58.5 37
t82.5 13q96 0 151.5 -56.5z" />
    <glyph glyph-name="six" unicode="6" horiz-adv-x="617" 
d="M474.5 635.5q55.5 -34.5 83.5 -109.5l-116 -54q-26 84 -115 84q-42 0 -75 -28.5t-51.5 -79.5t-18.5 -117v-17h3q16 49 62 74t106 25q63 0 112 -25.5t76.5 -72.5t27.5 -110q0 -99 -65 -157t-179 -58q-128 0 -197.5 89.5t-69.5 250.5q0 111 36 187.5t98.5 114.5t143.5 38
q83 0 138.5 -34.5zM245 283q-31 -29 -31 -76q0 -49 31 -78t82 -29q53 0 82.5 28t29.5 79q0 49 -29.5 77t-82.5 28q-51 0 -82 -29z" />
    <glyph glyph-name="seven" unicode="7" horiz-adv-x="595" 
d="M564 660v-105q-120 -120 -172 -255t-52 -300h-138q0 313 224 547h-385v113h523z" />
    <glyph glyph-name="eight" unicode="8" horiz-adv-x="623" 
d="M482 620q63 -48 63 -132q0 -51 -26.5 -89t-73.5 -57v-1q59 -21 91.5 -63t32.5 -102q0 -86 -69.5 -136t-188.5 -50q-118 0 -187.5 50t-69.5 136q0 60 32.5 102.5t92.5 62.5v1q-48 19 -74.5 57t-26.5 89q0 84 62.5 132t170.5 48t171 -48zM237 539q-27 -23 -27 -64
q0 -40 27.5 -63.5t73.5 -23.5q47 0 74.5 23.5t27.5 63.5q0 41 -27 64t-75 23q-47 0 -74 -23zM401 122.5q32 25.5 32 70.5q0 46 -32.5 71.5t-89.5 25.5q-56 0 -89 -26t-33 -71t33 -70.5t89 -25.5q58 0 90 25.5z" />
    <glyph glyph-name="nine" unicode="9" horiz-adv-x="618" 
d="M494.5 580.5q69.5 -89.5 69.5 -252.5q0 -170 -70 -254t-200 -84q-91 0 -149.5 36t-88.5 110l127 54q12 -45 36.5 -67.5t75.5 -22.5q75 0 109.5 58t34.5 167v14h-4q-13 -51 -60 -76t-107 -25q-62 0 -111 26t-77.5 74t-28.5 112q0 102 65.5 161t180.5 59q128 0 197.5 -89.5
zM212 529q-29 -28 -29 -79q0 -50 29 -78t83 -28q51 0 81.5 29t30.5 77q0 49 -30.5 78t-81.5 29q-54 0 -83 -28z" />
    <glyph glyph-name="zero.osf" horiz-adv-x="609" 
d="M496.5 497q64.5 -73 64.5 -217t-64.5 -217t-191.5 -73q-128 0 -192.5 73t-64.5 217t64.5 217t192.5 73q127 0 191.5 -73zM213.5 422.5q-30.5 -46.5 -30.5 -142.5t30.5 -142.5t91.5 -46.5t91 46.5t30 142.5t-30 142.5t-91 46.5t-91.5 -46.5z" />
    <glyph glyph-name="one.osf" horiz-adv-x="409" 
d="M330 560v-560h-134v392q0 18 1 28q-76 -70 -157 -83l-16 113q51 9 110 41.5t84 68.5h112z" />
    <glyph glyph-name="two.osf" horiz-adv-x="557" 
d="M447.5 518.5q59.5 -51.5 59.5 -139.5q0 -63 -31 -110.5t-79 -81t-119 -68.5q-25 -12 -57 -22v-2q7 0 23 2q13 1 31.5 2t43.5 1h205v-100h-477v93q129 62 194.5 100.5t99.5 81t34 99.5q0 50 -29 72.5t-74 22.5q-50 0 -81 -32t-31 -88q0 -13 1 -19l-122 38q-1 88 58 145
t176 57q115 0 174.5 -51.5z" />
    <glyph glyph-name="three.osf" horiz-adv-x="550" 
d="M429 519.5q58 -50.5 58 -131.5q0 -71 -34.5 -109t-83.5 -45v-3q55 -2 93.5 -40.5t38.5 -106.5q0 -59 -30.5 -102.5t-85 -67.5t-125.5 -24q-97 0 -158.5 39.5t-90.5 122.5l119 55q11 -58 42 -87t87 -29q53 0 83 28.5t30 74.5q0 48 -29 69.5t-90 21.5h-33v88h28
q53 0 81.5 25.5t28.5 72.5q0 98 -97 98q-99 0 -114 -103l-117 44q19 79 81.5 119.5t154.5 40.5q105 0 163 -50.5z" />
    <glyph glyph-name="four.osf" horiz-adv-x="630" 
d="M595 55h-107v-155h-125v155h-329v73l289 432h165v-405h107v-100zM167 155h196v202l3 108h-2q-22 -51 -60 -109z" />
    <glyph glyph-name="five.osf" horiz-adv-x="569" 
d="M470.5 268.5q53.5 -56.5 53.5 -150.5q0 -110 -65 -169t-173 -59q-92 0 -154 35.5t-94 111.5l118 61q24 -107 125 -107q56 0 86.5 31t30.5 87t-29.5 86.5t-84.5 30.5q-77 0 -120 -54l-106 14l42 374h397v-105h-295l-20 -165l-3 -17h1q22 24 58.5 38t83.5 14
q95 0 148.5 -56.5z" />
    <glyph glyph-name="six.osf" horiz-adv-x="597" 
d="M464 634.5q56 -35.5 81 -113.5l-114 -46q-12 44 -37 67t-71 23q-71 0 -111 -63t-40 -174v-17h3q16 50 64 76t104 26q95 0 154 -56t59 -152q0 -100 -64.5 -157.5t-175.5 -57.5q-127 0 -197.5 90.5t-70.5 249.5q0 110 35 186.5t97.5 115t143.5 38.5q84 0 140 -35.5z
M234 286.5q-31 -30.5 -31 -81.5q0 -52 31 -83t83 -31q55 0 84 29.5t29 84.5q0 54 -29 83t-84 29q-52 0 -83 -30.5z" />
    <glyph glyph-name="seven.osf" horiz-adv-x="569" 
d="M537 560v-105q-120 -123 -171.5 -258t-51.5 -297h-137q0 317 229 552h-391v108h522z" />
    <glyph glyph-name="eight.osf" horiz-adv-x="609" 
d="M473 620q62 -48 62 -132q0 -50 -26 -88t-73 -58v-1q58 -21 91.5 -63t33.5 -100q0 -87 -69 -137.5t-187 -50.5t-187 50.5t-69 137.5q0 57 33 100t92 63v1q-48 20 -74 57.5t-26 88.5q0 84 62 132t169 48q106 0 168 -48zM229.5 545.5q-27.5 -23.5 -27.5 -65.5t27.5 -66
t75.5 -24q47 0 74.5 24t27.5 66t-27.5 65.5t-74.5 23.5q-48 0 -75.5 -23.5zM393.5 116q32.5 27 32.5 74q0 46 -32.5 73t-88.5 27q-57 0 -89.5 -26.5t-32.5 -73.5t32.5 -74t89.5 -27q56 0 88.5 27z" />
    <glyph glyph-name="nine.osf" horiz-adv-x="612" 
d="M495 480q70 -90 70 -252q0 -157 -70.5 -247.5t-196.5 -90.5q-92 0 -151 35.5t-89 117.5l119 49q10 -51 38 -76t85 -25q68 0 106 57.5t38 162.5q0 20 -1 34h-4q-13 -51 -56 -78t-109 -27q-64 0 -113.5 26.5t-77 74.5t-27.5 112q0 100 65.5 158.5t177.5 58.5q126 0 196 -90
zM212 436.5q-30 -29.5 -30 -84.5q0 -53 30 -82.5t85 -29.5q52 0 83 31t31 81q0 52 -31 83t-83 31q-55 0 -85 -29.5z" />
    <glyph glyph-name="zero.tf" 
d="M109.5 76.5q-65.5 86.5 -65.5 253.5t65.5 253.5t192.5 86.5t192.5 -86.5t65.5 -253.5t-65.5 -253.5t-192.5 -86.5t-192.5 86.5zM394 156.5q30 55.5 30 173.5t-30 173.5t-92 55.5t-92 -55.5t-30 -173.5t30 -173.5t92 -55.5t92 55.5z" />
    <glyph glyph-name="one.tf" 
d="M569 109v-109h-480v109h186v381q0 23 1 36q-39 -35 -85.5 -59.5t-91.5 -31.5l-18 111q30 3 73.5 21.5t82 43.5t55.5 49h112v-551h165z" />
    <glyph glyph-name="two.tf" 
d="M67 94q121 81 192 142t103 113t32 103q0 47 -28.5 76t-78.5 29q-55 0 -87 -38t-35 -108l-119 45q7 100 74 157t175 57q77 0 130.5 -29t80.5 -76.5t27 -104.5q0 -93 -70 -175.5t-223 -176.5v-1q58 4 121 4h182v-111h-476v94z" />
    <glyph glyph-name="three.tf" 
d="M471.5 620q58.5 -50 58.5 -130q0 -49 -20 -84.5t-49 -53.5t-55 -18v-3q33 0 65 -17t52.5 -51t20.5 -84q0 -55 -31 -98t-87 -67t-127 -24q-97 0 -158.5 39.5t-89.5 122.5l126 58q9 -57 38 -83t84 -26q50 0 80 26.5t30 68.5q0 46 -28.5 66t-88.5 20h-33v96h29q106 0 106 91
q0 44 -24.5 67t-68.5 23q-47 0 -75 -23.5t-35 -70.5l-122 45q19 79 83 119.5t156 40.5q105 0 163.5 -50z" />
    <glyph glyph-name="four.tf" 
d="M335 150h-306v78l262 432h169v-405h119v-105h-119v-150h-125v150zM338 255v157q0 49 2 149h-2q-24 -53 -48 -91l-137 -215h185z" />
    <glyph glyph-name="five.tf" 
d="M491.5 368.5q55.5 -56.5 55.5 -148.5q0 -111 -67.5 -170.5t-177.5 -59.5q-89 0 -149.5 33.5t-98.5 105.5l124 69q13 -49 40.5 -73.5t82.5 -24.5t86.5 29t31.5 82q-1 54 -30 82.5t-85 28.5q-83 0 -121 -48l-108 12l41 374h397v-111h-293l-19 -155l-3 -19h1q22 24 58.5 37
t82.5 13q96 0 151.5 -56.5z" />
    <glyph glyph-name="six.tf" 
d="M469 635.5q56 -34.5 85 -109.5l-116 -54q-24 84 -115 84q-41 0 -73 -28t-49.5 -79t-17.5 -117v-18h3q15 48 62 73.5t106 25.5q95 0 153 -56.5t58 -151.5q0 -99 -63.5 -157t-173.5 -58q-130 0 -200 90.5t-70 249.5q0 111 35 187.5t97 114.5t141 38q82 0 138 -34.5z
M244.5 283q-30.5 -29 -30.5 -76q0 -49 30 -78t81 -29q53 0 82 28t29 79q0 49 -29.5 77t-81.5 28q-50 0 -80.5 -29z" />
    <glyph glyph-name="seven.tf" 
d="M567 660v-105q-123 -127 -175 -254t-52 -301h-139q0 159 58 294t175 253h-391v113h524z" />
    <glyph glyph-name="eight.tf" 
d="M466.5 620q60.5 -48 60.5 -132q0 -50 -26 -88t-71 -58v-1q56 -21 87.5 -62t31.5 -99q0 -88 -66.5 -139t-180.5 -51t-180.5 51t-66.5 139q0 57 31.5 98.5t88.5 62.5v1q-45 19 -71.5 57t-26.5 89q0 84 60.5 132t164.5 48t164.5 -48zM230 539.5q-26 -22.5 -26 -64.5
q0 -40 26.5 -63t71.5 -23t71.5 23t26.5 63q0 42 -26 64.5t-72 22.5t-72 -22.5zM387.5 121.5q30.5 25.5 30.5 70.5q0 46 -31 71.5t-85 25.5q-53 0 -84 -26t-31 -71t31 -70.5t84 -25.5q55 0 85.5 25.5z" />
    <glyph glyph-name="nine.tf" 
d="M482.5 580q69.5 -90 69.5 -252q0 -338 -267 -338q-92 0 -150.5 36.5t-87.5 109.5l128 54q13 -46 38 -68t76 -22q75 0 107.5 57.5t32.5 167.5v14h-3q-14 -53 -60 -77t-110 -24q-62 0 -110 26t-75 74t-27 112q0 102 65 161t178 59q126 0 195.5 -90zM204 529
q-29 -28 -29 -79q0 -50 29 -78t82 -28q50 0 80 29t30 77q0 49 -30 78t-80 29q-53 0 -82 -28z" />
    <glyph glyph-name="zero.tosf" 
d="M491 496.5q64 -73.5 64 -216.5t-64 -216.5t-189 -73.5t-189 73.5t-64 216.5t64 216.5t189 73.5t189 -73.5zM214 422.5q-29 -46.5 -29 -142.5t29 -142.5t88 -46.5t88 46.5t29 142.5t-29 142.5t-88 46.5t-88 -46.5z" />
    <glyph glyph-name="one.tosf" 
d="M573 105v-105h-481v105h189v275q0 31 2 48q-38 -33 -83 -56t-90 -30l-18 104q48 5 116.5 41.5t94.5 72.5h105v-455h165z" />
    <glyph glyph-name="two.tosf" 
d="M461.5 518.5q59.5 -51.5 59.5 -139.5q0 -63 -31 -110.5t-79 -81t-119 -68.5q-25 -12 -57 -22v-2q7 0 23 2q13 1 31.5 2t43.5 1h205v-100h-477v93q129 62 194.5 100.5t99.5 81t34 99.5q0 50 -29 72.5t-74 22.5q-50 0 -81 -32t-31 -88q0 -13 1 -19l-122 38q-1 88 58 145
t176 57q115 0 174.5 -51.5z" />
    <glyph glyph-name="three.tosf" 
d="M467 519.5q58 -50.5 58 -131.5q0 -71 -34.5 -109t-83.5 -45v-3q55 -2 93.5 -40.5t38.5 -106.5q0 -59 -30.5 -102.5t-85 -67.5t-125.5 -24q-97 0 -158.5 39.5t-90.5 122.5l119 55q11 -58 42 -87t87 -29q53 0 83 28.5t30 74.5q0 48 -29 69.5t-90 21.5h-33v88h28
q53 0 81.5 25.5t28.5 72.5q0 98 -97 98q-99 0 -114 -103l-117 44q19 79 81.5 119.5t154.5 40.5q105 0 163 -50.5z" />
    <glyph glyph-name="four.tosf" 
d="M347 55h-310v73l271 432h164v-405h105v-100h-105v-155h-125v155zM350 155v157q0 48 4 150h-2q-13 -32 -50 -89l-143 -218h191z" />
    <glyph glyph-name="five.tosf" 
d="M495.5 268.5q53.5 -56.5 53.5 -150.5q0 -110 -65 -169t-173 -59q-92 0 -154 35.5t-94 111.5l118 61q24 -107 125 -107q56 0 86.5 31t30.5 87t-29.5 86.5t-84.5 30.5q-77 0 -120 -54l-106 14l42 374h397v-105h-295l-20 -165l-3 -17h1q22 24 58.5 38t83.5 14
q95 0 148.5 -56.5z" />
    <glyph glyph-name="six.tosf" 
d="M470 634.5q56 -35.5 81 -113.5l-114 -46q-12 44 -37 67t-71 23q-71 0 -111 -63t-40 -174v-17h3q16 50 64 76t104 26q95 0 154 -56t59 -152q0 -100 -64.5 -157.5t-175.5 -57.5q-127 0 -197.5 90.5t-70.5 249.5q0 110 35 186.5t97.5 115t143.5 38.5q84 0 140 -35.5z
M240 286.5q-31 -30.5 -31 -81.5q0 -52 31 -83t83 -31q55 0 84 29.5t29 84.5q0 54 -29 83t-84 29q-52 0 -83 -30.5z" />
    <glyph glyph-name="seven.tosf" 
d="M559 560v-105q-119 -120 -171 -255.5t-52 -299.5h-137q0 317 228 552h-379v108h511z" />
    <glyph glyph-name="eight.tosf" 
d="M469 620q62 -48 62 -132q0 -50 -26 -88t-73 -58v-1q58 -21 91.5 -63t33.5 -100q0 -87 -69 -137.5t-187 -50.5t-187 50.5t-69 137.5q0 57 33 100t92 63v1q-48 20 -74 57.5t-26 88.5q0 84 62 132t169 48q106 0 168 -48zM225.5 545.5q-27.5 -23.5 -27.5 -65.5t27.5 -66
t75.5 -24q47 0 74.5 24t27.5 66t-27.5 65.5t-74.5 23.5q-48 0 -75.5 -23.5zM389.5 116q32.5 27 32.5 74q0 46 -32.5 73t-88.5 27q-57 0 -89.5 -26.5t-32.5 -73.5t32.5 -74t89.5 -27q56 0 88.5 27z" />
    <glyph glyph-name="nine.tosf" 
d="M480 480q70 -90 70 -252q0 -157 -70.5 -247.5t-196.5 -90.5q-92 0 -151 35.5t-89 117.5l119 49q10 -51 38 -76t85 -25q68 0 106 57.5t38 162.5q0 20 -1 34h-4q-13 -51 -56 -78t-109 -27q-64 0 -113.5 26.5t-77 74.5t-27.5 112q0 100 65.5 158.5t177.5 58.5q126 0 196 -90
zM197 436.5q-30 -29.5 -30 -84.5q0 -53 30 -82.5t85 -29.5q52 0 83 31t31 81q0 52 -31 83t-83 31q-55 0 -85 -29.5z" />
    <glyph glyph-name="zero.zero" horiz-adv-x="636" 
d="M515.5 584q66.5 -86 66.5 -254t-66.5 -254t-197.5 -86t-197.5 86t-66.5 254t66.5 254t197.5 86t197.5 -86zM223 503q-31 -56 -31 -173q0 -102 24 -158l156 374q-22 13 -54 13q-64 0 -95 -56zM413 157q31 56 31 173q0 96 -21 151l-154 -370q23 -10 49 -10q64 0 95 56z" />
    <glyph glyph-name="zero.osf.zero" horiz-adv-x="609" 
d="M496.5 497q64.5 -73 64.5 -217t-64.5 -217t-191.5 -73q-128 0 -192.5 73t-64.5 217t64.5 217t192.5 73q127 0 191.5 -73zM213.5 422.5q-30.5 -46.5 -30.5 -142.5q0 -80 22 -127l153 305q-22 11 -53 11q-61 0 -91.5 -46.5zM396 137.5q30 46.5 30 142.5q0 73 -18 118
l-149 -299q17 -8 46 -8q61 0 91 46.5z" />
    <glyph glyph-name="zero.tf.zero" 
d="M494.5 583.5q65.5 -86.5 65.5 -253.5t-65.5 -253.5t-192.5 -86.5t-192.5 86.5t-65.5 253.5t65.5 253.5t192.5 86.5t192.5 -86.5zM210 503.5q-30 -55.5 -30 -173.5q0 -102 23 -159l150 376q-21 12 -51 12q-62 0 -92 -55.5zM394 156.5q30 55.5 30 173.5q0 99 -21 154
l-149 -373q20 -10 48 -10q62 0 92 55.5z" />
    <glyph glyph-name="zero.tosf.zero" 
d="M491 496.5q64 -73.5 64 -216.5t-64 -216.5t-189 -73.5t-189 73.5t-64 216.5t64 216.5t189 73.5t189 -73.5zM214 422.5q-29 -46.5 -29 -142.5q0 -86 22 -130l152 305q-25 14 -57 14q-59 0 -88 -46.5zM390 137.5q29 46.5 29 142.5q0 67 -13 107l-144 -290q18 -6 40 -6
q59 0 88 46.5z" />
    <glyph glyph-name="fraction" unicode="&#x2044;" horiz-adv-x="258" 
d="M315 660h104l-476 -660h-105z" />
    <glyph glyph-name="onehalf" unicode="&#xbd;" horiz-adv-x="917" 
d="M232 665v-397h-104v229q0 28 3 67q-57 -46 -115 -52v86q31 5 71 25.5t56 41.5h89zM592 660h104l-476 -660h-105zM568 63q66 40 90 57q66 48 92.5 79.5t26.5 61.5q0 25 -15 40.5t-43 15.5q-31 0 -48 -21.5t-18 -61.5l-98 29q2 64 47 99.5t120 35.5q81 0 122.5 -38
t41.5 -91q0 -40 -28 -78t-87 -78q-27 -19 -68 -37v-1q54 3 82 3h107v-82h-324v67z" />
    <glyph glyph-name="onequarter" unicode="&#xbc;" horiz-adv-x="849" 
d="M232 665v-397h-104v229q0 28 3 67q-57 -46 -115 -52v86q31 5 71 25.5t56 41.5h89zM592 660h104l-476 -660h-105zM832 86h-64v-90h-90v90h-200v49l169 258h121v-237h64v-70zM678 156v91q0 19 2 55l1 24h-3q-11 -28 -31 -58l-77 -112h108z" />
    <glyph glyph-name="threequarters" unicode="&#xbe;" horiz-adv-x="945" 
d="M297.5 640.5q39.5 -29.5 39.5 -81.5q0 -40 -24 -64.5t-58 -26.5v-3q39 0 64.5 -23t25.5 -64q0 -52 -43.5 -84t-114.5 -32q-70 0 -112.5 23.5t-60.5 75.5l98 38q6 -59 69 -59q28 0 44 13.5t16 37.5q0 43 -60 43h-23v59h19q27 0 41.5 12.5t14.5 35.5q0 48 -53 48
q-25 0 -41 -13.5t-20 -40.5l-94 31q11 52 54 78t106 26q73 0 112.5 -29.5zM688 660h104l-476 -660h-105zM927 86h-64v-90h-90v90h-200v49l169 258h121v-237h64v-70zM773 156v91q0 19 2 55l1 24h-3q-11 -28 -31 -58l-77 -112h108z" />
    <glyph glyph-name="zero.dnom" horiz-adv-x="407" 
d="M28 194q0 204 175 204q176 0 176 -204t-176 -204q-175 0 -175 204zM258 97q17 30 17 97t-17 97t-55 30t-55 -30t-17 -97t17 -97t55 -30t55 30z" />
    <glyph glyph-name="one.dnom" horiz-adv-x="277" 
d="M232 393v-397h-104v229q0 28 3 67q-57 -46 -115 -52v86q31 5 71 25.5t56 41.5h89z" />
    <glyph glyph-name="two.dnom" horiz-adv-x="382" 
d="M33 63q66 40 90 57q66 48 92.5 79.5t26.5 61.5q0 25 -15 40.5t-43 15.5q-31 0 -48 -21.5t-18 -61.5l-98 29q2 64 47 99.5t120 35.5q81 0 122.5 -38t41.5 -91q0 -40 -28 -78t-87 -78q-27 -19 -68 -37v-1q54 3 82 3h107v-82h-324v67z" />
    <glyph glyph-name="three.dnom" horiz-adv-x="373" 
d="M297.5 368.5q39.5 -29.5 39.5 -81.5q0 -40 -24 -64.5t-58 -26.5v-3q39 0 64.5 -23t25.5 -64q0 -52 -43.5 -84t-114.5 -32q-70 0 -112.5 24t-59.5 75l97 38q6 -59 69 -59q28 0 44 13.5t16 37.5q0 43 -60 43h-23v59h19q27 0 41.5 12.5t14.5 35.5q0 48 -53 48
q-25 0 -41 -13.5t-20 -40.5l-94 31q11 52 54 78t106 26q73 0 112.5 -29.5z" />
    <glyph glyph-name="four.dnom" horiz-adv-x="382" 
d="M364 86h-64v-90h-90v90h-200v49l169 258h121v-237h64v-70zM210 156v91q0 19 2 55l1 24h-3q-11 -28 -31 -58l-77 -112h108z" />
    <glyph glyph-name="five.dnom" horiz-adv-x="376" 
d="M313 217.5q34 -33.5 34 -88.5q0 -68 -45 -103t-117 -35q-62 0 -102.5 18.5t-64.5 63.5l94 44q13 -49 71 -49q29 0 47 16t18 43q0 56 -63 56q-25 0 -41 -7t-26 -22l-83 6l22 233h272v-79h-194l-6 -64q-1 -12 -5 -26h1q12 14 33 20.5t59 6.5q62 0 96 -33.5z" />
    <glyph glyph-name="six.dnom" horiz-adv-x="395" 
d="M76 41.5q-46 51.5 -46 152.5q0 99 51.5 151.5t135.5 52.5q56 0 92.5 -20t55.5 -65l-81 -40q-6 21 -22.5 33.5t-43.5 12.5q-41 0 -64.5 -33t-23.5 -82v-11h1q18 26 43 38.5t62 12.5q60 0 97 -32.5t37 -93.5t-42.5 -94.5t-119.5 -33.5q-86 0 -132 51.5zM256 81.5
q17 13.5 17 38.5q0 24 -17 38t-47 14q-29 0 -46 -14.5t-17 -37.5q0 -25 17 -38.5t46 -13.5q30 0 47 13.5z" />
    <glyph glyph-name="seven.dnom" horiz-adv-x="339" 
d="M332 393v-72q-69 -67 -97.5 -147t-28.5 -178h-104q0 87 31.5 168t93.5 146h-220v83h325z" />
    <glyph glyph-name="eight.dnom" horiz-adv-x="405" 
d="M317.5 367q42.5 -30 42.5 -82q0 -31 -17.5 -53.5t-52.5 -33.5v-1q40 -11 61.5 -34t21.5 -58q0 -54 -45.5 -84.5t-125.5 -30.5q-79 0 -124.5 30.5t-45.5 84.5q0 34 21 58t60 34v1q-33 10 -51 33t-18 54q0 52 42.5 82t115.5 30t115.5 -30zM158.5 315.5
q-15.5 -12.5 -15.5 -34.5q0 -23 15.5 -35.5t43.5 -12.5t44 13t16 35t-15.5 34.5t-44.5 12.5q-28 0 -43.5 -12.5zM252 73.5q18 13.5 18 37.5t-18 37.5t-50 13.5q-31 0 -49 -13.5t-18 -37.5t17.5 -37.5t49.5 -13.5t50 13.5z" />
    <glyph glyph-name="nine.dnom" horiz-adv-x="400" 
d="M323.5 346q46.5 -52 46.5 -152q0 -102 -49.5 -153t-135.5 -51q-124 0 -153 91l91 33q5 -24 20 -34.5t45 -10.5q43 0 62.5 29.5t19.5 74.5q0 11 -1 16h-1q-9 -19 -36.5 -33t-59.5 -14q-66 0 -105.5 34t-39.5 91q0 62 43.5 96.5t120.5 34.5q86 0 132.5 -52zM147.5 306
q-16.5 -14 -16.5 -39q0 -24 16.5 -37.5t46.5 -13.5q29 0 46.5 14t17.5 37q0 24 -17 38.5t-46 14.5q-31 0 -47.5 -14z" />
    <glyph glyph-name="zero.numr" horiz-adv-x="407" 
d="M28 466q0 204 175 204q176 0 176 -204t-176 -204q-175 0 -175 204zM258 369q17 30 17 97t-17 97t-55 30t-55 -30t-17 -97t17 -97t55 -30t55 30z" />
    <glyph glyph-name="one.numr" horiz-adv-x="277" 
d="M232 665v-397h-104v229q0 28 3 67q-57 -46 -115 -52v86q31 5 71 25.5t56 41.5h89z" />
    <glyph glyph-name="two.numr" horiz-adv-x="382" 
d="M33 335q66 40 90 57q66 48 92.5 79.5t26.5 61.5q0 25 -15 40.5t-43 15.5q-31 0 -48 -21.5t-18 -61.5l-98 29q2 64 47 99.5t120 35.5q81 0 122.5 -38t41.5 -91q0 -40 -28 -78t-87 -78q-27 -19 -68 -37v-1q54 3 82 3h107v-82h-324v67z" />
    <glyph glyph-name="three.numr" horiz-adv-x="373" 
d="M297.5 640.5q39.5 -29.5 39.5 -81.5q0 -40 -24 -64.5t-58 -26.5v-3q39 0 64.5 -23t25.5 -64q0 -52 -43.5 -84t-114.5 -32q-70 0 -112.5 23.5t-60.5 75.5l98 38q6 -59 69 -59q28 0 44 13.5t16 37.5q0 43 -60 43h-23v59h19q27 0 41.5 12.5t14.5 35.5q0 48 -53 48
q-25 0 -41 -13.5t-20 -40.5l-94 31q11 52 54 78t106 26q73 0 112.5 -29.5z" />
    <glyph glyph-name="four.numr" horiz-adv-x="382" 
d="M364 358h-64v-90h-90v90h-200v49l169 258h121v-237h64v-70zM210 428v91q0 19 2 55l1 24h-3q-11 -28 -31 -58l-77 -112h108z" />
    <glyph glyph-name="five.numr" horiz-adv-x="376" 
d="M313 489.5q34 -33.5 34 -88.5q0 -68 -45 -103t-117 -35q-62 0 -102.5 18.5t-64.5 63.5l94 44q13 -49 71 -49q29 0 47 16t18 43q0 56 -63 56q-25 0 -41 -7t-26 -22l-83 6l22 233h272v-79h-194l-6 -64q-1 -12 -5 -26h1q12 14 33 20.5t59 6.5q62 0 96 -33.5z" />
    <glyph glyph-name="six.numr" horiz-adv-x="395" 
d="M76 313.5q-46 51.5 -46 152.5q0 99 51.5 151.5t135.5 52.5q56 0 92.5 -20t55.5 -65l-81 -40q-6 21 -22.5 33.5t-43.5 12.5q-41 0 -64.5 -33t-23.5 -82v-11h1q18 26 43 38.5t62 12.5q60 0 97 -32.5t37 -93.5t-42.5 -94.5t-119.5 -33.5q-86 0 -132 51.5zM256 353.5
q17 13.5 17 38.5q0 24 -17 38t-47 14q-29 0 -46 -14.5t-17 -37.5q0 -25 17 -38.5t46 -13.5q30 0 47 13.5z" />
    <glyph glyph-name="seven.numr" horiz-adv-x="339" 
d="M332 665v-72q-69 -67 -97.5 -147t-28.5 -178h-104q0 87 31.5 168t93.5 146h-220v83h325z" />
    <glyph glyph-name="eight.numr" horiz-adv-x="405" 
d="M317.5 639q42.5 -30 42.5 -82q0 -31 -17.5 -53.5t-52.5 -33.5v-1q40 -11 61.5 -34t21.5 -58q0 -54 -45.5 -84.5t-125.5 -30.5q-79 0 -124.5 30.5t-45.5 84.5q0 34 21 58t60 34v1q-33 10 -51 33t-18 54q0 52 42.5 82t115.5 30t115.5 -30zM158.5 587.5
q-15.5 -12.5 -15.5 -34.5q0 -23 15.5 -35.5t43.5 -12.5t44 13t16 35t-15.5 34.5t-44.5 12.5q-28 0 -43.5 -12.5zM252 345.5q18 13.5 18 37.5t-18 37.5t-50 13.5q-31 0 -49 -13.5t-18 -37.5t17.5 -37.5t49.5 -13.5t50 13.5z" />
    <glyph glyph-name="nine.numr" horiz-adv-x="400" 
d="M323.5 618q46.5 -52 46.5 -152q0 -102 -49.5 -153t-135.5 -51q-124 0 -153 91l91 33q5 -24 20 -34.5t45 -10.5q43 0 62.5 29.5t19.5 74.5q0 11 -1 16h-1q-9 -19 -36.5 -33t-59.5 -14q-66 0 -105.5 34t-39.5 91q0 62 43.5 96.5t120.5 34.5q86 0 132.5 -52zM147.5 578
q-16.5 -14 -16.5 -39q0 -24 16.5 -37.5t46.5 -13.5q29 0 46.5 14t17.5 37q0 24 -17 38.5t-46 14.5q-31 0 -47.5 -14z" />
    <glyph glyph-name="uni2780" unicode="&#x2780;" horiz-adv-x="910" 
d="M257.5 6.5q-85.5 46.5 -133 130.5t-47.5 193t47.5 193t133 130.5t197.5 46.5t197.5 -46.5t133 -130.5t47.5 -193t-47.5 -193t-133 -130.5t-197.5 -46.5t-197.5 46.5zM610.5 69.5q67.5 37.5 105 105t37.5 155.5t-37.5 155.5t-105 105t-155.5 37.5t-155.5 -37.5t-105 -105
t-37.5 -155.5t37.5 -155.5t105 -105t155.5 -37.5t155.5 37.5zM532 533v-397h-104v229q0 28 3 67q-57 -46 -115 -52v86q31 5 71 25.5t56 41.5h89z" />
    <glyph glyph-name="uni2781" unicode="&#x2781;" horiz-adv-x="910" 
d="M257.5 6.5q-85.5 46.5 -133 130.5t-47.5 193t47.5 193t133 130.5t197.5 46.5t197.5 -46.5t133 -130.5t47.5 -193t-47.5 -193t-133 -130.5t-197.5 -46.5t-197.5 46.5zM610.5 69.5q67.5 37.5 105 105t37.5 155.5t-37.5 155.5t-105 105t-155.5 37.5t-155.5 -37.5t-105 -105
t-37.5 -155.5t37.5 -155.5t105 -105t155.5 -37.5t155.5 37.5zM296 213q66 40 90 57q66 48 92.5 79.5t26.5 61.5q0 25 -15 40.5t-43 15.5q-31 0 -48 -21.5t-18 -61.5l-98 29q2 64 47 99.5t120 35.5q81 0 122.5 -38t41.5 -91q0 -40 -28 -78t-87 -78q-27 -19 -68 -37v-1
q54 3 82 3h107v-82h-324v67z" />
    <glyph glyph-name="uni2782" unicode="&#x2782;" horiz-adv-x="910" 
d="M257.5 6.5q-85.5 46.5 -133 130.5t-47.5 193t47.5 193t133 130.5t197.5 46.5t197.5 -46.5t133 -130.5t47.5 -193t-47.5 -193t-133 -130.5t-197.5 -46.5t-197.5 46.5zM610.5 69.5q67.5 37.5 105 105t37.5 155.5t-37.5 155.5t-105 105t-155.5 37.5t-155.5 -37.5t-105 -105
t-37.5 -155.5t37.5 -155.5t105 -105t155.5 -37.5t155.5 37.5zM572.5 505.5q39.5 -29.5 39.5 -81.5q0 -40 -24 -64.5t-58 -26.5v-3q39 0 64.5 -23t25.5 -64q0 -52 -43.5 -84t-114.5 -32q-70 0 -112.5 24t-59.5 75l97 38q6 -59 69 -59q28 0 44 13.5t16 37.5q0 43 -60 43h-23
v59h19q27 0 41.5 12.5t14.5 35.5q0 48 -53 48q-25 0 -41 -13.5t-20 -40.5l-94 31q11 52 54 78t106 26q73 0 112.5 -29.5z" />
    <glyph glyph-name="uni2783" unicode="&#x2783;" horiz-adv-x="910" 
d="M257.5 6.5q-85.5 46.5 -133 130.5t-47.5 193t47.5 193t133 130.5t197.5 46.5t197.5 -46.5t133 -130.5t47.5 -193t-47.5 -193t-133 -130.5t-197.5 -46.5t-197.5 46.5zM610.5 69.5q67.5 37.5 105 105t37.5 155.5t-37.5 155.5t-105 105t-155.5 37.5t-155.5 -37.5t-105 -105
t-37.5 -155.5t37.5 -155.5t105 -105t155.5 -37.5t155.5 37.5zM608 226h-64v-90h-90v90h-200v49l169 258h121v-237h64v-70zM454 296v91q0 19 2 55l1 24h-3q-11 -28 -31 -58l-77 -112h108z" />
    <glyph glyph-name="uni2784" unicode="&#x2784;" horiz-adv-x="910" 
d="M257.5 6.5q-85.5 46.5 -133 130.5t-47.5 193t47.5 193t133 130.5t197.5 46.5t197.5 -46.5t133 -130.5t47.5 -193t-47.5 -193t-133 -130.5t-197.5 -46.5t-197.5 46.5zM610.5 69.5q67.5 37.5 105 105t37.5 155.5t-37.5 155.5t-105 105t-155.5 37.5t-155.5 -37.5t-105 -105
t-37.5 -155.5t37.5 -155.5t105 -105t155.5 -37.5t155.5 37.5zM582 348.5q34 -33.5 34 -88.5q0 -68 -45 -103t-117 -35q-62 0 -102.5 18.5t-64.5 63.5l94 44q13 -49 71 -49q29 0 47 16t18 43q0 56 -63 56q-25 0 -41 -7t-26 -22l-83 6l22 233h272v-79h-194l-6 -64
q-1 -12 -5 -26h1q12 14 33 20.5t59 6.5q62 0 96 -33.5z" />
    <glyph glyph-name="uni2785" unicode="&#x2785;" horiz-adv-x="910" 
d="M257.5 6.5q-85.5 46.5 -133 130.5t-47.5 193t47.5 193t133 130.5t197.5 46.5t197.5 -46.5t133 -130.5t47.5 -193t-47.5 -193t-133 -130.5t-197.5 -46.5t-197.5 46.5zM610.5 69.5q67.5 37.5 105 105t37.5 155.5t-37.5 155.5t-105 105t-155.5 37.5t-155.5 -37.5t-105 -105
t-37.5 -155.5t37.5 -155.5t105 -105t155.5 -37.5t155.5 37.5zM321 177.5q-46 51.5 -46 152.5q0 99 51.5 151.5t135.5 52.5q56 0 92.5 -20t55.5 -65l-81 -40q-6 21 -22.5 33.5t-43.5 12.5q-41 0 -64.5 -33t-23.5 -82v-11h1q18 26 43 38.5t62 12.5q60 0 97 -32.5t37 -93.5
t-42.5 -94.5t-119.5 -33.5q-86 0 -132 51.5zM501 217.5q17 13.5 17 38.5q0 24 -17 38t-47 14q-29 0 -46 -14.5t-17 -37.5q0 -25 17 -38.5t46 -13.5q30 0 47 13.5z" />
    <glyph glyph-name="uni2786" unicode="&#x2786;" horiz-adv-x="910" 
d="M257.5 6.5q-85.5 46.5 -133 130.5t-47.5 193t47.5 193t133 130.5t197.5 46.5t197.5 -46.5t133 -130.5t47.5 -193t-47.5 -193t-133 -130.5t-197.5 -46.5t-197.5 46.5zM610.5 69.5q67.5 37.5 105 105t37.5 155.5t-37.5 155.5t-105 105t-155.5 37.5t-155.5 -37.5t-105 -105
t-37.5 -155.5t37.5 -155.5t105 -105t155.5 -37.5t155.5 37.5zM624 517v-72q-69 -67 -97.5 -147t-28.5 -178h-104q0 87 31.5 168t93.5 146h-220v83h325z" />
    <glyph glyph-name="uni2787" unicode="&#x2787;" horiz-adv-x="910" 
d="M257.5 6.5q-85.5 46.5 -133 130.5t-47.5 193t47.5 193t133 130.5t197.5 46.5t197.5 -46.5t133 -130.5t47.5 -193t-47.5 -193t-133 -130.5t-197.5 -46.5t-197.5 46.5zM610.5 69.5q67.5 37.5 105 105t37.5 155.5t-37.5 155.5t-105 105t-155.5 37.5t-155.5 -37.5t-105 -105
t-37.5 -155.5t37.5 -155.5t105 -105t155.5 -37.5t155.5 37.5zM570.5 504q42.5 -30 42.5 -82q0 -31 -17.5 -53.5t-52.5 -33.5v-1q40 -11 61.5 -34t21.5 -58q0 -54 -45.5 -84.5t-125.5 -30.5q-79 0 -124.5 30.5t-45.5 84.5q0 34 21 58t60 34v1q-33 10 -51 33t-18 54
q0 52 42.5 82t115.5 30t115.5 -30zM411.5 452.5q-15.5 -12.5 -15.5 -34.5q0 -23 15.5 -35.5t43.5 -12.5t44 13t16 35t-15.5 34.5t-44.5 12.5q-28 0 -43.5 -12.5zM505 210.5q18 13.5 18 37.5t-18 37.5t-50 13.5q-31 0 -49 -13.5t-18 -37.5t17.5 -37.5t49.5 -13.5t50 13.5z
" />
    <glyph glyph-name="uni2788" unicode="&#x2788;" horiz-adv-x="910" 
d="M257.5 6.5q-85.5 46.5 -133 130.5t-47.5 193t47.5 193t133 130.5t197.5 46.5t197.5 -46.5t133 -130.5t47.5 -193t-47.5 -193t-133 -130.5t-197.5 -46.5t-197.5 46.5zM610.5 69.5q67.5 37.5 105 105t37.5 155.5t-37.5 155.5t-105 105t-155.5 37.5t-155.5 -37.5t-105 -105
t-37.5 -155.5t37.5 -155.5t105 -105t155.5 -37.5t155.5 37.5zM590.5 482q46.5 -52 46.5 -152q0 -102 -49.5 -153t-135.5 -51q-124 0 -153 91l91 33q5 -24 20 -34.5t45 -10.5q43 0 62.5 29.5t19.5 74.5q0 11 -1 16h-1q-9 -19 -36.5 -33t-59.5 -14q-66 0 -105.5 34t-39.5 91
q0 62 43.5 96.5t120.5 34.5q86 0 132.5 -52zM414.5 442q-16.5 -14 -16.5 -39q0 -24 16.5 -37.5t46.5 -13.5q29 0 46.5 14t17.5 37q0 24 -17 38.5t-46 14.5q-31 0 -47.5 -14z" />
    <glyph glyph-name="uni2080" unicode="&#x2080;" horiz-adv-x="407" 
d="M28 9q0 204 175 204q176 0 176 -204t-176 -204q-175 0 -175 204zM258 -88q17 30 17 97t-17 97t-55 30t-55 -30t-17 -97t17 -97t55 -30t55 30z" />
    <glyph glyph-name="uni2081" unicode="&#x2081;" horiz-adv-x="277" 
d="M232 208v-397h-104v229q0 28 3 67q-57 -46 -115 -52v86q31 5 71 25.5t56 41.5h89z" />
    <glyph glyph-name="uni2082" unicode="&#x2082;" horiz-adv-x="382" 
d="M33 -122q66 40 90 57q66 48 92.5 79.5t26.5 61.5q0 25 -15 40.5t-43 15.5q-31 0 -48 -21.5t-18 -61.5l-98 29q2 64 47 99.5t120 35.5q81 0 122.5 -38t41.5 -91q0 -40 -28 -78t-87 -78q-27 -19 -68 -37v-1q54 3 82 3h107v-82h-324v67z" />
    <glyph glyph-name="uni2083" unicode="&#x2083;" horiz-adv-x="373" 
d="M297.5 183.5q39.5 -29.5 39.5 -81.5q0 -40 -24 -64.5t-58 -26.5v-3q39 0 64.5 -23t25.5 -64q0 -52 -43.5 -84t-114.5 -32q-70 0 -112.5 24t-59.5 75l97 38q6 -59 69 -59q28 0 44 13.5t16 37.5q0 43 -60 43h-23v59h19q27 0 41.5 12.5t14.5 35.5q0 48 -53 48
q-25 0 -41 -13.5t-20 -40.5l-94 31q11 52 54 78t106 26q73 0 112.5 -29.5z" />
    <glyph glyph-name="uni2084" unicode="&#x2084;" horiz-adv-x="382" 
d="M364 -99h-64v-90h-90v90h-200v49l169 258h121v-237h64v-70zM210 -29v91q0 19 2 55l1 24h-3q-11 -28 -31 -58l-77 -112h108z" />
    <glyph glyph-name="uni2085" unicode="&#x2085;" horiz-adv-x="376" 
d="M313 32.5q34 -33.5 34 -88.5q0 -68 -45 -103t-117 -35q-62 0 -102.5 18.5t-64.5 63.5l94 44q13 -49 71 -49q29 0 47 16t18 43q0 56 -63 56q-25 0 -41 -7t-26 -22l-83 6l22 233h272v-79h-194l-6 -64q-1 -12 -5 -26h1q12 14 33 20.5t59 6.5q62 0 96 -33.5z" />
    <glyph glyph-name="uni2086" unicode="&#x2086;" horiz-adv-x="395" 
d="M76 -143.5q-46 51.5 -46 152.5q0 99 51.5 151.5t135.5 52.5q56 0 92.5 -20t55.5 -65l-81 -40q-6 21 -22.5 33.5t-43.5 12.5q-41 0 -64.5 -33t-23.5 -82v-11h1q18 26 43 38.5t62 12.5q60 0 97 -32.5t37 -93.5t-42.5 -94.5t-119.5 -33.5q-86 0 -132 51.5zM256 -103.5
q17 13.5 17 38.5q0 24 -17 38t-47 14q-29 0 -46 -14.5t-17 -37.5q0 -25 17 -38.5t46 -13.5q30 0 47 13.5z" />
    <glyph glyph-name="uni2087" unicode="&#x2087;" horiz-adv-x="339" 
d="M332 208v-72q-69 -67 -97.5 -147t-28.5 -178h-104q0 87 31.5 168t93.5 146h-220v83h325z" />
    <glyph glyph-name="uni2088" unicode="&#x2088;" horiz-adv-x="405" 
d="M317.5 182q42.5 -30 42.5 -82q0 -31 -17.5 -53.5t-52.5 -33.5v-1q40 -11 61.5 -34t21.5 -58q0 -54 -45.5 -84.5t-125.5 -30.5q-79 0 -124.5 30.5t-45.5 84.5q0 34 21 58t60 34v1q-33 10 -51 33t-18 54q0 52 42.5 82t115.5 30t115.5 -30zM158.5 130.5
q-15.5 -12.5 -15.5 -34.5q0 -23 15.5 -35.5t43.5 -12.5t44 13t16 35t-15.5 34.5t-44.5 12.5q-28 0 -43.5 -12.5zM252 -111.5q18 13.5 18 37.5t-18 37.5t-50 13.5q-31 0 -49 -13.5t-18 -37.5t17.5 -37.5t49.5 -13.5t50 13.5z" />
    <glyph glyph-name="uni2089" unicode="&#x2089;" horiz-adv-x="400" 
d="M323.5 161q46.5 -52 46.5 -152q0 -102 -49.5 -153t-135.5 -51q-124 0 -153 91l91 33q5 -24 20 -34.5t45 -10.5q43 0 62.5 29.5t19.5 74.5q0 11 -1 16h-1q-9 -19 -36.5 -33t-59.5 -14q-66 0 -105.5 34t-39.5 91q0 62 43.5 96.5t120.5 34.5q86 0 132.5 -52zM147.5 121
q-16.5 -14 -16.5 -39q0 -24 16.5 -37.5t46.5 -13.5q29 0 46.5 14t17.5 37q0 24 -17 38.5t-46 14.5q-31 0 -47.5 -14z" />
    <glyph glyph-name="uni2070" unicode="&#x2070;" horiz-adv-x="407" 
d="M28 531q0 204 175 204q176 0 176 -204t-176 -204q-175 0 -175 204zM258 434q17 30 17 97t-17 97t-55 30t-55 -30t-17 -97t17 -97t55 -30t55 30z" />
    <glyph glyph-name="uni00B9" unicode="&#xb9;" horiz-adv-x="277" 
d="M232 730v-397h-104v229q0 28 3 67q-57 -46 -115 -52v86q31 5 71 25.5t56 41.5h89z" />
    <glyph glyph-name="uni00B2" unicode="&#xb2;" horiz-adv-x="382" 
d="M33 400q66 40 90 57q66 48 92.5 79.5t26.5 61.5q0 25 -15 40.5t-43 15.5q-31 0 -48 -21.5t-18 -61.5l-98 29q2 64 47 99.5t120 35.5q81 0 122.5 -38t41.5 -91q0 -40 -28 -78t-87 -78q-27 -19 -68 -37v-1q54 3 82 3h107v-82h-324v67z" />
    <glyph glyph-name="uni00B3" unicode="&#xb3;" horiz-adv-x="373" 
d="M297.5 705.5q39.5 -29.5 39.5 -81.5q0 -40 -24 -64.5t-58 -26.5v-3q39 0 64.5 -23t25.5 -64q0 -52 -43.5 -84t-114.5 -32q-70 0 -112.5 24t-59.5 75l97 38q6 -59 69 -59q28 0 44 13.5t16 37.5q0 43 -60 43h-23v59h19q27 0 41.5 12.5t14.5 35.5q0 48 -53 48
q-25 0 -41 -13.5t-20 -40.5l-94 31q11 52 54 78t106 26q73 0 112.5 -29.5z" />
    <glyph glyph-name="uni2074" unicode="&#x2074;" horiz-adv-x="382" 
d="M364 423h-64v-90h-90v90h-200v49l169 258h121v-237h64v-70zM210 493v91q0 19 2 55l1 24h-3q-11 -28 -31 -58l-77 -112h108z" />
    <glyph glyph-name="uni2075" unicode="&#x2075;" horiz-adv-x="376" 
d="M313 554.5q34 -33.5 34 -88.5q0 -68 -45 -103t-117 -35q-62 0 -102.5 18.5t-64.5 63.5l94 44q13 -49 71 -49q29 0 47 16t18 43q0 56 -63 56q-25 0 -41 -7t-26 -22l-83 6l22 233h272v-79h-194l-6 -64q-1 -12 -5 -26h1q12 14 33 20.5t59 6.5q62 0 96 -33.5z" />
    <glyph glyph-name="uni2076" unicode="&#x2076;" horiz-adv-x="395" 
d="M76 378.5q-46 51.5 -46 152.5q0 99 51.5 151.5t135.5 52.5q56 0 92.5 -20t55.5 -65l-81 -40q-6 21 -22.5 33.5t-43.5 12.5q-41 0 -64.5 -33t-23.5 -82v-11h1q18 26 43 38.5t62 12.5q60 0 97 -32.5t37 -93.5t-42.5 -94.5t-119.5 -33.5q-86 0 -132 51.5zM256 418.5
q17 13.5 17 38.5q0 24 -17 38t-47 14q-29 0 -46 -14.5t-17 -37.5q0 -25 17 -38.5t46 -13.5q30 0 47 13.5z" />
    <glyph glyph-name="uni2077" unicode="&#x2077;" horiz-adv-x="339" 
d="M332 730v-72q-69 -67 -97.5 -147t-28.5 -178h-104q0 87 31.5 168t93.5 146h-220v83h325z" />
    <glyph glyph-name="uni2078" unicode="&#x2078;" horiz-adv-x="405" 
d="M317.5 704q42.5 -30 42.5 -82q0 -31 -17.5 -53.5t-52.5 -33.5v-1q40 -11 61.5 -34t21.5 -58q0 -54 -45.5 -84.5t-125.5 -30.5q-79 0 -124.5 30.5t-45.5 84.5q0 34 21 58t60 34v1q-33 10 -51 33t-18 54q0 52 42.5 82t115.5 30t115.5 -30zM158.5 652.5
q-15.5 -12.5 -15.5 -34.5q0 -23 15.5 -35.5t43.5 -12.5t44 13t16 35t-15.5 34.5t-44.5 12.5q-28 0 -43.5 -12.5zM252 410.5q18 13.5 18 37.5t-18 37.5t-50 13.5q-31 0 -49 -13.5t-18 -37.5t17.5 -37.5t49.5 -13.5t50 13.5z" />
    <glyph glyph-name="uni2079" unicode="&#x2079;" horiz-adv-x="400" 
d="M323.5 683q46.5 -52 46.5 -152q0 -102 -49.5 -153t-135.5 -51q-124 0 -153 91l91 33q5 -24 20 -34.5t45 -10.5q43 0 62.5 29.5t19.5 74.5q0 11 -1 16h-1q-9 -19 -36.5 -33t-59.5 -14q-66 0 -105.5 34t-39.5 91q0 62 43.5 96.5t120.5 34.5q86 0 132.5 -52zM147.5 643
q-16.5 -14 -16.5 -39q0 -24 16.5 -37.5t46.5 -13.5q29 0 46.5 14t17.5 37q0 24 -17 38.5t-46 14.5q-31 0 -47.5 -14z" />
    <glyph glyph-name="zero.sc" horiz-adv-x="585" 
d="M477.5 495q63.5 -74 63.5 -215t-63.5 -215t-184.5 -74t-185 74t-64 215t64 215t185 74t184.5 -74zM207 418q-28 -44 -28 -138t28 -138t86 -44q57 0 85 44t28 138t-28 138t-85 44q-58 0 -86 -44z" />
    <glyph glyph-name="one.sc" horiz-adv-x="398" 
d="M319 560v-560h-137v332q0 35 5 92q-67 -55 -152 -70l-17 110q45 5 101.5 33.5t84.5 62.5h115z" />
    <glyph glyph-name="two.sc" horiz-adv-x="542" 
d="M391.5 544q49.5 -24 73.5 -63t24 -85q0 -95 -67.5 -162.5t-185.5 -132.5v-2q47 5 97 5h165v-104h-444v90q164 94 233 159t69 126q0 39 -24 62.5t-70 23.5q-51 0 -79 -35t-23 -91l-117 39q-1 54 23 97.5t75.5 70t127.5 26.5q73 0 122.5 -24z" />
    <glyph glyph-name="three.sc" horiz-adv-x="541" 
d="M384 547.5q47 -20.5 71 -55t24 -77.5q0 -44 -17 -73.5t-43 -43.5t-52 -15v-2q49 1 86.5 -29t37.5 -90q0 -51 -28.5 -89.5t-79 -59.5t-115.5 -21q-93 0 -150.5 33.5t-83.5 105.5l124 50q8 -44 32.5 -65t74.5 -21q44 0 69.5 20.5t25.5 55.5t-23.5 51t-72.5 16h-38v84h30
q90 0 92 72q0 34 -21 52.5t-62 18.5t-64.5 -19t-28.5 -55l-120 39q14 66 74.5 102t145.5 36q65 0 112 -20.5z" />
    <glyph glyph-name="four.sc" horiz-adv-x="587" 
d="M335 124h-296v73l256 363h166v-338h96v-98h-96v-124h-126v124zM336 222l2 251h-3q-13 -29 -46 -79l-122 -172h169z" />
    <glyph glyph-name="five.sc" horiz-adv-x="534" 
d="M438 311q49 -48 49 -125q0 -91 -58.5 -142.5t-160.5 -51.5q-85 0 -141.5 28.5t-87.5 88.5l114 59q14 -37 38.5 -55t71.5 -18q46 0 72.5 23.5t26.5 62.5q0 42 -26 65t-73 23q-33 0 -60 -10.5t-42 -30.5l-105 11l36 321h370v-101h-268l-14 -116q-4 -23 -7 -31h1
q23 23 53 35t82 12q80 0 129 -48z" />
    <glyph glyph-name="six.sc" horiz-adv-x="547" 
d="M106.5 66q-64.5 74 -64.5 215q0 92 32 156.5t88.5 97.5t130.5 33q79 0 127.5 -28.5t78.5 -92.5l-106 -50q-11 33 -35 50t-65 17q-57 0 -92.5 -49.5t-35.5 -132.5v-14h2q16 37 58.5 59t93.5 22q83 0 135.5 -46t52.5 -128q0 -83 -57 -133t-158 -50q-121 0 -185.5 74z
M358 114q25 21 25 58t-25 58t-69 21t-69.5 -21.5t-25.5 -57.5q0 -37 25.5 -58t69.5 -21t69 21z" />
    <glyph glyph-name="seven.sc" horiz-adv-x="536" 
d="M504 560v-101q-104 -92 -147 -208.5t-44 -250.5h-134q1 128 47 244t141 209h-329v107h466z" />
    <glyph glyph-name="eight.sc" horiz-adv-x="567" 
d="M111 34.5q-63 42.5 -63 116.5q0 48 28 83t82 54v2q-46 17 -70 48.5t-24 72.5q0 73 59 114.5t160 41.5t160.5 -41.5t59.5 -114.5q0 -41 -24 -72.5t-70 -48.5v-2q53 -19 81.5 -54.5t28.5 -82.5q0 -74 -63.5 -116.5t-172.5 -42.5t-172 42.5zM350 349.5q25 18.5 25 51.5
t-25 51t-67 18t-66.5 -18t-24.5 -51t24.5 -51.5t66.5 -18.5t67 18.5zM360 109.5q28 20.5 28 56.5t-28.5 56.5t-76.5 20.5t-76 -20.5t-28 -56.5t28 -56.5t76 -20.5q49 0 77 20.5z" />
    <glyph glyph-name="nine.sc" horiz-adv-x="551" 
d="M126 21.5q-53 29.5 -83 93.5l114 54q7 -38 31.5 -57t71.5 -19q66 0 97 46.5t31 137.5v15h-3q-12 -41 -53 -63t-92 -22q-88 0 -143 47t-55 131q0 83 59 133t165 50q116 0 179.5 -76t63.5 -214q0 -140 -63 -213t-183 -73q-84 0 -137 29.5zM333 324q26 22 26 58q0 37 -26 59
t-69 22q-45 0 -70.5 -21t-25.5 -59t25.5 -59.5t70.5 -21.5q43 0 69 22z" />
    <glyph glyph-name="asterisk" unicode="*" horiz-adv-x="582" 
d="M397 423l78 -105l-81 -59l-76 107l-27 55l-27 -55l-76 -107l-81 59l79 105l43 43l-60 9l-125 39l30 95l125 -42l54 -29l-10 61l-3 131h101l-2 -131l-10 -61l54 29l125 42l30 -95l-125 -39l-60 -9z" />
    <glyph glyph-name="backslash" unicode="\" horiz-adv-x="457" 
d="M148 719l289 -789h-127l-290 789h128z" />
    <glyph glyph-name="periodcentered" unicode="&#xb7;" horiz-adv-x="256" 
d="M191.5 413.5q23.5 -21.5 23.5 -59.5t-23.5 -59.5t-63.5 -21.5t-63.5 21.5t-23.5 59.5t23.5 59.5t63.5 21.5t63.5 -21.5z" />
    <glyph glyph-name="bullet" unicode="&#x2022;" horiz-adv-x="430" 
d="M319 435q39 -38 39 -101q0 -62 -39 -100t-104 -38t-104 38t-39 100q0 63 39 101t104 38t104 -38z" />
    <glyph glyph-name="colon" unicode=":" horiz-adv-x="300" 
d="M213.5 488q23.5 -22 23.5 -59t-23.5 -59t-63.5 -22t-63.5 21.5t-23.5 59.5t23.5 59.5t63.5 21.5t63.5 -22zM213.5 131q23.5 -22 23.5 -59t-23.5 -59t-63.5 -22t-63.5 21.5t-23.5 59.5t23.5 59.5t63.5 21.5t63.5 -22z" />
    <glyph glyph-name="comma" unicode="," horiz-adv-x="281" 
d="M210 120.5q25 -32.5 25 -84.5q0 -61 -32.5 -111.5t-95.5 -78.5l-63 48q44 17 74 44t40 61l-4 3q-10 -10 -29 -10q-29 0 -51 20t-22 57q0 39 24 61.5t63 22.5q46 0 71 -32.5z" />
    <glyph glyph-name="ellipsis" unicode="&#x2026;" horiz-adv-x="896" 
d="M814.5 131q23.5 -22 23.5 -59t-23.5 -59t-63.5 -22t-63.5 21.5t-23.5 59.5t23.5 59.5t63.5 21.5t63.5 -22zM512.5 131q23.5 -22 23.5 -59t-23.5 -59t-63.5 -22t-63.5 21.5t-23.5 59.5t23.5 59.5t63.5 21.5t63.5 -22zM209.5 131q23.5 -22 23.5 -59t-23.5 -59t-63.5 -22
t-63.5 21.5t-23.5 59.5t23.5 59.5t63.5 21.5t63.5 -22z" />
    <glyph glyph-name="exclam" unicode="!" horiz-adv-x="291" 
d="M217 420l-17 -207h-110l-17 207v240h144v-240zM207 124q23 -21 23 -56t-23 -56t-62 -21t-62 21t-23 56t23 56t62 21t62 -21z" />
    <glyph glyph-name="exclamdown" unicode="&#xa1;" horiz-adv-x="286" 
d="M81 376q-23 21 -23 56t23 56t62 21t62 -21t23 -56t-23 -56t-62 -21t-62 21zM71 80l17 207h110l17 -207v-240h-144v240z" />
    <glyph glyph-name="numbersign" unicode="#" horiz-adv-x="671" 
d="M513 406l-24 -149h114v-87h-128l-28 -170h-98l28 170h-143l-28 -170h-98l27 170h-111v87h126l24 149h-107v87h121l27 167h99l-27 -167h142l28 167h98l-27 -167h118v-87h-133zM415 406h-143l-24 -149h143z" />
    <glyph glyph-name="period" unicode="." horiz-adv-x="281" 
d="M204.5 131q23.5 -22 23.5 -59t-23.5 -59t-63.5 -22t-63.5 21.5t-23.5 59.5t23.5 59.5t63.5 21.5t63.5 -22z" />
    <glyph glyph-name="question" unicode="?" horiz-adv-x="583" 
d="M471.5 624.5q66.5 -45.5 66.5 -131.5q0 -87 -51.5 -132.5t-137.5 -54.5l-7 -94h-122l-6 151q95 10 136 36.5t41 73.5q0 39 -26.5 60.5t-78.5 21.5t-84.5 -29.5t-36.5 -83.5l-130 54q13 80 78.5 127t181.5 47q110 0 176.5 -45.5zM344 126q23 -21 23 -57t-23 -57t-63 -21
t-62.5 21t-22.5 57t22.5 57t62.5 21t63 -21z" />
    <glyph glyph-name="questiondown" unicode="&#xbf;" horiz-adv-x="580" 
d="M238 374q-23 21 -23 57t23 57t63 21t62.5 -21t22.5 -57t-22.5 -57t-62.5 -21t-63 21zM109.5 -124.5q-66.5 45.5 -66.5 132.5t51.5 132.5t138.5 54.5l6 94h123l6 -152q-96 -10 -137 -36t-41 -74q0 -39 26.5 -60.5t79.5 -21.5q52 0 84 30t37 84l130 -55q-13 -79 -79 -126.5
t-181 -47.5q-111 0 -177.5 45.5z" />
    <glyph glyph-name="quotedbl" unicode="&#x22;" horiz-adv-x="431" 
d="M351 416h-94v266h122zM164 416h-94v266h122z" />
    <glyph glyph-name="quotesingle" unicode="'" horiz-adv-x="244" 
d="M164 416h-94v266h122z" />
    <glyph glyph-name="semicolon" unicode=";" horiz-adv-x="300" 
d="M89.5 369.5q-23.5 21.5 -23.5 59.5t23.5 59.5t63.5 21.5t63.5 -21.5t23.5 -59.5t-23.5 -59.5t-63.5 -21.5t-63.5 21.5zM220 120.5q25 -32.5 25 -84.5q0 -61 -32.5 -111.5t-95.5 -78.5l-63 48q45 17 75 44t40 61l-4 3q-12 -10 -30 -10q-29 0 -51 20t-22 57q0 38 24.5 61
t62.5 23q46 0 71 -32.5z" />
    <glyph glyph-name="slash" unicode="/" horiz-adv-x="457" 
d="M147 -70h-127l289 789h128z" />
    <glyph glyph-name="underscore" unicode="_" horiz-adv-x="539" 
d="M539 -190h-539v113h539v-113z" />
    <glyph glyph-name="periodcentered.case" horiz-adv-x="256" 
d="M192.5 410q23.5 -22 23.5 -59t-23.5 -59t-63.5 -22t-63.5 21.5t-23.5 59.5t23.5 59.5t63.5 21.5t63.5 -22z" />
    <glyph glyph-name="exclamdown.case" horiz-adv-x="286" 
d="M81 536q-23 21 -23 56t23 56t62 21t62 -21t23 -56t-23 -56t-62 -21t-62 21zM71 240l17 207h110l17 -207v-240h-144v240z" />
    <glyph glyph-name="periodcentered.loclCAT.case" horiz-adv-x="34" 
d="M-8.5 410q23.5 -22 23.5 -59t-23.5 -59t-63.5 -22t-63.5 21.5t-23.5 59.5t23.5 59.5t63.5 21.5t63.5 -22z" />
    <glyph glyph-name="questiondown.case" horiz-adv-x="580" 
d="M238 534q-23 21 -23 57t23 57t63 21t62.5 -21t22.5 -57t-22.5 -57t-62.5 -21t-63 21zM109.5 35.5q-66.5 45.5 -66.5 132.5t51.5 132.5t138.5 54.5l6 94h123l6 -152q-96 -10 -137 -36t-41 -74q0 -39 26.5 -60.5t79.5 -21.5q52 0 84 30t37 84l130 -55q-13 -79 -79 -126.5
t-181 -47.5q-111 0 -177.5 45.5z" />
    <glyph glyph-name="periodcentered.loclCAT" horiz-adv-x="145" 
d="M116.5 413.5q23.5 -21.5 23.5 -59.5t-23.5 -59.5t-63.5 -21.5t-63.5 21.5t-23.5 59.5t23.5 59.5t63.5 21.5t63.5 -21.5z" />
    <glyph glyph-name="periodcentered.loclCAT.ss02" horiz-adv-x="256" 
d="M192.5 413q23.5 -22 23.5 -59t-23.5 -59t-63.5 -22t-63.5 21.5t-23.5 59.5t23.5 59.5t63.5 21.5t63.5 -22z" />
    <glyph glyph-name="colon.tf" horiz-adv-x="302" 
d="M214.5 488q23.5 -22 23.5 -59t-23.5 -59t-63.5 -22t-63.5 21.5t-23.5 59.5t23.5 59.5t63.5 21.5t63.5 -22zM214.5 131q23.5 -22 23.5 -59t-23.5 -59t-63.5 -22t-63.5 21.5t-23.5 59.5t23.5 59.5t63.5 21.5t63.5 -22z" />
    <glyph glyph-name="comma.tf" horiz-adv-x="304" 
d="M223 120.5q25 -32.5 25 -84.5q0 -61 -32.5 -111.5t-95.5 -78.5l-63 48q44 17 74 44t40 61l-4 3q-10 -10 -29 -10q-29 0 -51 20t-22 57q0 39 24 61.5t63 22.5q46 0 71 -32.5z" />
    <glyph glyph-name="numbersign.tf" 
d="M477 406l-23 -149h94v-87h-108l-25 -170h-89l26 170h-141l-26 -170h-88l26 170h-107v87h120l23 149h-104v87h117l26 167h88l-25 -167h141l25 167h88l-25 -167h98v-87h-111zM388 406h-141l-23 -149h142z" />
    <glyph glyph-name="period.tf" horiz-adv-x="302" 
d="M214.5 131q23.5 -22 23.5 -59t-23.5 -59t-63.5 -22t-63.5 21.5t-23.5 59.5t23.5 59.5t63.5 21.5t63.5 -22z" />
    <glyph glyph-name="semicolon.tf" horiz-adv-x="302" 
d="M90.5 370q-23.5 22 -23.5 59t23.5 59t63.5 22q41 0 64.5 -22t23.5 -59t-23.5 -59t-64.5 -22q-40 0 -63.5 22zM222 120.5q25 -32.5 25 -84.5q0 -61 -32.5 -111.5t-95.5 -78.5l-63 48q44 17 74 44t41 61l-5 3q-10 -10 -29 -10q-29 0 -51 20t-22 57q0 39 24 61.5t63 22.5
q46 0 71 -32.5z" />
    <glyph glyph-name="uni208D" unicode="&#x208d;" horiz-adv-x="245" 
d="M249 246q-49 -47 -70 -101.5t-21 -135.5t20.5 -135t70.5 -102l-56 -48q-132 103 -132 285t132 285z" />
    <glyph glyph-name="uni208E" unicode="&#x208e;" horiz-adv-x="245" 
d="M184 9q0 -183 -132 -285l-56 48q50 48 71 102t21 135t-21 135.5t-71 101.5l56 48q132 -102 132 -285z" />
    <glyph glyph-name="braceleft" unicode="{" horiz-adv-x="395" 
d="M286 -81.5q24 -16.5 78 -16.5l-8 -93q-112 0 -160 36.5t-48 117.5v161q0 56 -25.5 80t-86.5 24v95q61 0 86.5 24t25.5 80v162q0 80 48 116.5t160 36.5l8 -93q-54 0 -78 -16.5t-24 -54.5v-176q0 -51 -26.5 -81.5t-79.5 -45.5q53 -14 79.5 -44.5t26.5 -81.5v-176
q0 -38 24 -54.5z" />
    <glyph glyph-name="braceright" unicode="}" horiz-adv-x="395" 
d="M271.5 347q25.5 -24 86.5 -24v-95q-61 0 -86.5 -24t-25.5 -80v-161q0 -81 -47.5 -117.5t-160.5 -36.5l-8 93q55 0 79 16.5t24 54.5v176q0 51 26.5 81.5t79.5 45.5q-53 14 -79.5 44.5t-26.5 81.5v176q0 38 -24 54.5t-79 16.5l8 93q112 0 160 -36t48 -117v-162
q0 -56 25.5 -80z" />
    <glyph glyph-name="bracketleft" unicode="[" horiz-adv-x="375" 
d="M206 618v-685h141v-101h-261v887h261v-101h-141z" />
    <glyph glyph-name="bracketright" unicode="]" horiz-adv-x="375" 
d="M290 -168h-262v101h141v685h-141v101h262v-887z" />
    <glyph glyph-name="parenleft" unicode="(" horiz-adv-x="376" 
d="M359 675q-90 -82 -128.5 -174t-38.5 -225q0 -134 38.5 -226t128.5 -174l-68 -67q-112 83 -169 200.5t-57 266.5t57 266t169 200z" />
    <glyph glyph-name="parenright" unicode=")" horiz-adv-x="376" 
d="M254 542q57 -117 57 -266t-57 -266.5t-169 -200.5l-68 67q90 82 128.5 174t38.5 226q0 133 -38.5 225t-128.5 174l68 67q112 -83 169 -200z" />
    <glyph glyph-name="uni207D" unicode="&#x207d;" horiz-adv-x="245" 
d="M249 768q-49 -47 -70 -101.5t-21 -135.5t20.5 -135t70.5 -102l-56 -48q-132 103 -132 285t132 285z" />
    <glyph glyph-name="uni207E" unicode="&#x207e;" horiz-adv-x="245" 
d="M184 531q0 -183 -132 -285l-56 48q50 48 71 102t21 135t-21 135.5t-71 101.5l56 48q132 -102 132 -285z" />
    <glyph glyph-name="braceleft.case" horiz-adv-x="395" 
d="M286 -9.5q24 -16.5 78 -16.5l-8 -93q-112 0 -160 36t-48 118v142q0 56 -25.5 80t-86.5 24v95q61 0 86.5 24t25.5 80v142q0 81 48 117t160 36l8 -92q-54 0 -78 -17t-24 -54v-157q0 -51 -26.5 -81.5t-79.5 -44.5q53 -15 79.5 -45.5t26.5 -81.5v-157q0 -38 24 -54.5z" />
    <glyph glyph-name="braceright.case" horiz-adv-x="395" 
d="M271.5 400q25.5 -24 86.5 -24v-95q-61 0 -86.5 -24t-25.5 -80v-142q0 -82 -47.5 -118t-160.5 -36l-8 93q55 0 79 16.5t24 54.5v157q0 51 26.5 81.5t79.5 45.5q-53 14 -79.5 44.5t-26.5 81.5v157q0 37 -24.5 54t-78.5 17l8 92q113 0 160.5 -36t47.5 -117v-142
q0 -56 25.5 -80z" />
    <glyph glyph-name="bracketleft.case" horiz-adv-x="375" 
d="M206 651v-647h141v-101h-261v849h261v-101h-141z" />
    <glyph glyph-name="bracketright.case" horiz-adv-x="375" 
d="M290 -97h-262v101h141v647h-141v101h262v-849z" />
    <glyph glyph-name="parenleft.case" horiz-adv-x="376" 
d="M359 726q-90 -82 -128.5 -174t-38.5 -225q0 -134 38.5 -226t128.5 -174l-68 -66q-226 168 -226 466t226 466z" />
    <glyph glyph-name="parenright.case" horiz-adv-x="376" 
d="M311 327q0 -298 -226 -466l-68 66q90 82 128.5 174t38.5 226q0 133 -38.5 225t-128.5 174l68 67q226 -168 226 -466z" />
    <glyph glyph-name="emdash" unicode="&#x2014;" horiz-adv-x="1009" 
d="M929 209h-850v113h850v-113z" />
    <glyph glyph-name="endash" unicode="&#x2013;" horiz-adv-x="681" 
d="M602 209h-523v113h523v-113z" />
    <glyph glyph-name="hyphen" unicode="-" horiz-adv-x="521" 
d="M437 206h-353v118h353v-118z" />
    <glyph glyph-name="uni00AD" unicode="&#xad;" horiz-adv-x="521" 
d="M437 206h-353v118h353v-118z" />
    <glyph glyph-name="emdash.case" horiz-adv-x="1009" 
d="M929 277h-850v113h850v-113z" />
    <glyph glyph-name="endash.case" horiz-adv-x="681" 
d="M602 277h-523v113h523v-113z" />
    <glyph glyph-name="hyphen.case" horiz-adv-x="521" 
d="M437 274h-353v118h353v-118z" />
    <glyph glyph-name="guillemotleft" unicode="&#xab;" horiz-adv-x="552" 
d="M168 265l124 -196h-126l-125 196l125 196h126zM386 265l124 -196h-126l-125 196l125 196h126z" />
    <glyph glyph-name="guillemotright" unicode="&#xbb;" horiz-adv-x="551" 
d="M166 461l125 -196l-125 -196h-126l124 196l-124 196h126zM385 461l125 -196l-125 -196h-126l124 196l-124 196h126z" />
    <glyph glyph-name="guilsinglleft" unicode="&#x2039;" horiz-adv-x="333" 
d="M168 265l124 -196h-126l-125 196l125 196h126z" />
    <glyph glyph-name="guilsinglright" unicode="&#x203a;" horiz-adv-x="333" 
d="M167 461l125 -196l-125 -196h-126l124 196l-124 196h126z" />
    <glyph glyph-name="quotedblbase" unicode="&#x201e;" horiz-adv-x="502" 
d="M209 120.5q25 -32.5 25 -84.5q0 -61 -32.5 -111.5t-95.5 -78.5l-63 48q44 17 74 44t40 61l-4 3q-10 -10 -29 -10q-29 0 -51 20t-22 57q0 39 24 61.5t63 22.5q46 0 71 -32.5zM430 120.5q25 -32.5 25 -84.5q0 -61 -32.5 -111.5t-95.5 -78.5l-63 48q44 17 74 44t40 61l-4 3
q-10 -10 -29 -10q-29 0 -51 20t-22 57q0 39 24 61.5t63 22.5q46 0 71 -32.5z" />
    <glyph glyph-name="quotedblleft" unicode="&#x201c;" horiz-adv-x="504" 
d="M70 420.5q-25 32.5 -25 84.5q0 61 32.5 111.5t95.5 78.5l63 -48q-44 -16 -74 -43.5t-40 -61.5l4 -3q10 10 29 10q29 0 51 -20t22 -57q0 -38 -24 -61t-63 -23q-46 0 -71 32.5zM294 420.5q-25 32.5 -25 84.5q0 61 32.5 111.5t95.5 78.5l63 -48q-44 -16 -74 -43.5t-40 -61.5
l4 -3q10 10 29 10q29 0 51 -20t22 -57q0 -38 -24 -61t-63 -23q-46 0 -71 32.5z" />
    <glyph glyph-name="quotedblright" unicode="&#x201d;" horiz-adv-x="501" 
d="M214 661.5q25 -32.5 25 -84.5q0 -61 -32.5 -111.5t-95.5 -78.5l-63 48q44 16 74.5 43.5t40.5 61.5l-4 3q-12 -10 -30 -10q-29 0 -51 20t-22 57q0 38 24.5 61t62.5 23q46 0 71 -32.5zM435 661.5q25 -32.5 25 -84.5q0 -61 -32.5 -111.5t-95.5 -78.5l-63 48q44 16 74.5 43.5
t40.5 61.5l-4 3q-12 -10 -30 -10q-29 0 -51 20t-22 57q0 38 24.5 61t62.5 23q46 0 71 -32.5z" />
    <glyph glyph-name="quoteleft" unicode="&#x2018;" horiz-adv-x="280" 
d="M70 420.5q-25 32.5 -25 84.5q0 61 32.5 111.5t95.5 78.5l63 -48q-44 -16 -74 -43.5t-40 -61.5l4 -3q10 10 29 10q29 0 51 -20t22 -57q0 -38 -24 -61t-63 -23q-46 0 -71 32.5z" />
    <glyph glyph-name="quoteright" unicode="&#x2019;" horiz-adv-x="280" 
d="M214 661.5q25 -32.5 25 -84.5q0 -61 -32.5 -111.5t-95.5 -78.5l-63 48q44 16 74.5 43.5t40.5 61.5l-4 3q-12 -10 -30 -10q-29 0 -51 20t-22 57q0 38 24.5 61t62.5 23q46 0 71 -32.5z" />
    <glyph glyph-name="quotesinglbase" unicode="&#x201a;" horiz-adv-x="281" 
d="M209 120.5q25 -32.5 25 -84.5q0 -61 -32.5 -111.5t-95.5 -78.5l-63 48q44 17 74 44t40 61l-4 3q-10 -10 -29 -10q-29 0 -51 20t-22 57q0 39 24 61.5t63 22.5q46 0 71 -32.5z" />
    <glyph glyph-name="guillemotleft.case" horiz-adv-x="555" 
d="M168 325l124 -196h-126l-125 196l125 196h126zM386 325l124 -196h-126l-125 196l125 196h126z" />
    <glyph glyph-name="guillemotright.case" horiz-adv-x="555" 
d="M166 521l125 -196l-125 -196h-126l124 196l-124 196h126zM385 521l125 -196l-125 -196h-126l124 196l-124 196h126z" />
    <glyph glyph-name="guilsinglleft.case" horiz-adv-x="337" 
d="M168 325l124 -196h-126l-125 196l125 196h126z" />
    <glyph glyph-name="guilsinglright.case" horiz-adv-x="337" 
d="M167 521l125 -196l-125 -196h-126l124 196l-124 196h126z" />
    <glyph glyph-name="periodcentered.sc" horiz-adv-x="256" 
d="M192.5 364q23.5 -22 23.5 -59t-23.5 -59t-63.5 -22t-63.5 21.5t-23.5 59.5t23.5 59.5t63.5 21.5t63.5 -22z" />
    <glyph glyph-name="exclam.sc" horiz-adv-x="270" 
d="M205 382l-15 -195h-109l-16 195v178h140v-178zM194 117q21 -19 21 -53t-21 -53t-59 -19t-59.5 19t-21.5 53t21.5 53t59.5 19t59 -19z" />
    <glyph glyph-name="exclamdown.sc" horiz-adv-x="270" 
d="M76.5 443q-21.5 19 -21.5 53t21.5 53t58.5 19q38 0 59.5 -19t21.5 -53t-21.5 -53t-59.5 -19q-37 0 -58.5 19zM65 178l15 195h109l15 -195v-178h-139v178z" />
    <glyph glyph-name="periodcentered.loclCAT.sc" horiz-adv-x="30" 
d="M-26.5 368q23.5 -22 23.5 -59t-23.5 -59t-63.5 -22t-63.5 21.5t-23.5 59.5t23.5 59.5t63.5 21.5t63.5 -22z" />
    <glyph glyph-name="question.sc" horiz-adv-x="508" 
d="M421.5 529q61.5 -39 61.5 -112q0 -69 -48 -106t-122 -44l-4 -75h-125l-2 115q64 8 100 19.5t51 28.5t15 43q0 31 -24.5 49t-70.5 18q-49 0 -77 -23t-33 -67l-126 45q15 72 75 110t165 38q103 0 164.5 -39zM303 117q21 -19 21 -53t-21 -53t-59 -19t-59.5 19t-21.5 53
t21.5 53t59.5 19t59 -19z" />
    <glyph glyph-name="questiondown.sc" horiz-adv-x="498" 
d="M197 444q-21 19 -21 53t21 53t59 19t59.5 -19t21.5 -53t-21.5 -53t-59.5 -19t-59 19zM78.5 32q-61.5 39 -61.5 112q0 69 48.5 106t122.5 44l4 75h125l2 -115q-65 -8 -101 -19.5t-50.5 -28.5t-14.5 -43q0 -31 24 -48.5t70 -17.5q49 0 77 22.5t33 66.5l126 -45
q-14 -72 -74 -110t-166 -38q-103 0 -164.5 39z" />
    <glyph glyph-name="quotedbl.sc" horiz-adv-x="433" 
d="M351 325h-94v266h122zM164 325h-94v266h122z" />
    <glyph glyph-name="quotedblleft.sc" horiz-adv-x="518" 
d="M77 331.5q-25 32.5 -25 84.5q0 61 32.5 111t95.5 78l63 -48q-44 -16 -74.5 -43.5t-40.5 -61.5l4 -2q10 9 30 9q29 0 51 -20t22 -56q0 -38 -24.5 -61t-62.5 -23q-46 0 -71 32.5zM303 331.5q-25 32.5 -25 84.5q0 61 32.5 111t95.5 78l63 -48q-44 -16 -74.5 -43.5
t-40.5 -61.5l4 -2q10 9 30 9q29 0 51 -20t22 -56q0 -38 -24.5 -61t-62.5 -23q-46 0 -71 32.5z" />
    <glyph glyph-name="quotedblright.sc" horiz-adv-x="515" 
d="M220 568q25 -32 25 -84q0 -62 -32.5 -112t-95.5 -78l-63 48q44 16 74.5 43.5t40.5 61.5l-4 3q-10 -10 -30 -10q-29 0 -51 20t-22 57q0 38 24.5 60.5t62.5 22.5q46 0 71 -32zM443 568q25 -32 25 -84q0 -62 -32.5 -112t-95.5 -78l-63 48q44 16 74.5 43.5t40.5 61.5l-4 3
q-10 -10 -30 -10q-29 0 -51 20t-22 57q0 38 24.5 60.5t62.5 22.5q46 0 71 -32z" />
    <glyph glyph-name="quoteleft.sc" horiz-adv-x="292" 
d="M77 331.5q-25 32.5 -25 84.5q0 61 32.5 111t95.5 78l63 -48q-44 -16 -74.5 -43.5t-40.5 -61.5l4 -2q10 9 30 9q29 0 51 -20t22 -56q0 -38 -24.5 -61t-62.5 -23q-46 0 -71 32.5z" />
    <glyph glyph-name="quoteright.sc" horiz-adv-x="292" 
d="M220 568q25 -32 25 -84q0 -62 -32.5 -112t-95.5 -78l-63 48q44 16 74.5 43.5t40.5 61.5l-4 3q-10 -10 -30 -10q-29 0 -51 20t-22 57q0 38 24.5 60.5t62.5 22.5q46 0 71 -32z" />
    <glyph glyph-name="quotesingle.sc" horiz-adv-x="246" 
d="M164 325h-94v266h122z" />
    <glyph glyph-name="uni00A0" unicode="&#xa0;" horiz-adv-x="306" 
 />
    <glyph glyph-name="space.tf" horiz-adv-x="302" 
 />
    <glyph glyph-name="Euro" unicode="&#x20ac;" horiz-adv-x="701" 
d="M671 172q-24 -87 -93.5 -134.5t-163.5 -47.5q-112 0 -186 57.5t-100 163.5h-90v73h79q-2 15 -2 46v24h-77v73h86q22 115 97 179t191 64q93 0 160.5 -41t91.5 -115l-106 -49q-12 51 -49 77t-88 26q-64 0 -107 -36.5t-60 -104.5h237l-24 -73h-223q-1 -8 -1 -24t2 -46h205
l-22 -73h-169q19 -58 59 -88.5t99 -30.5q52 0 91 29.5t53 85.5z" />
    <glyph glyph-name="cent" unicode="&#xa2;" horiz-adv-x="572" 
d="M476.5 38.5q-49.5 -39.5 -129.5 -46.5v-92h-80v93q-103 12 -158.5 79t-55.5 178t56 178.5t158 79.5v92h80v-92q81 -7 127 -45.5t61 -99.5l-109 -43q-16 75 -79 94v-329q67 17 85 93l105 -36q-11 -64 -60.5 -103.5zM267 87v326q-92 -24 -92 -164q0 -137 92 -162z" />
    <glyph glyph-name="currency" unicode="&#xa4;" horiz-adv-x="653" 
d="M510 218l95 -86l-82 -81l-88 95q-47 -26 -108 -26t-110 27l-88 -96l-80 81l93 87q-28 50 -28 110q0 61 29 111l-94 86l80 81l89 -95q47 26 109 26q59 0 110 -27l86 96l82 -81l-94 -88q28 -48 28 -109q0 -62 -29 -111zM399 252.5q28 29.5 28 76.5t-28 76.5t-72 29.5
t-72.5 -29.5t-28.5 -76.5t28.5 -76.5t72.5 -29.5t72 29.5z" />
    <glyph glyph-name="dollar" unicode="$" horiz-adv-x="629" 
d="M279 1q-89 7 -149.5 42.5t-96.5 99.5l81 76q18 -48 62.5 -79t102.5 -40v182q-67 13 -113.5 30.5t-77.5 53.5t-31 96q0 79 59 132.5t163 63.5v94h86v-94q81 -6 132.5 -37t92.5 -89l-77 -79q-28 50 -62.5 75t-85.5 31v-186q67 -14 113.5 -32t77.5 -55t31 -98
q0 -79 -61 -128.5t-161 -57.5v-94h-86v93zM279 558q-47 -7 -71.5 -29.5t-24.5 -57.5q0 -32 24.5 -50t71.5 -30v167zM462 181q0 33 -25 51.5t-72 30.5v-163q97 11 97 81z" />
    <glyph glyph-name="florin" unicode="&#x192;" horiz-adv-x="506" 
d="M344 548l-23 -137h140v-101h-156l-46 -272q-14 -81 -59.5 -123.5t-119.5 -42.5q-35 0 -56.5 5.5t-45.5 20.5l18 94q26 -19 62 -19q33 0 53.5 20.5t26.5 59.5l43 257h-137v101h154l25 152q14 82 59.5 124.5t120.5 42.5q34 0 55.5 -5.5t46.5 -20.5l-19 -94q-26 19 -62 19
q-66 0 -80 -81z" />
    <glyph glyph-name="sterling" unicode="&#xa3;" horiz-adv-x="624" 
d="M593 140q0 -67 -36.5 -108.5t-101.5 -41.5q-44 0 -79.5 15.5t-77.5 43.5q-56 -59 -141 -59q-52 0 -84.5 24.5t-32.5 65.5t34.5 66.5t88.5 25.5q50 0 92 -15v10q0 49 -28 97h-162v87h99q-26 36 -36 63.5t-10 57.5q0 55 27.5 100t79.5 71.5t121 26.5q183 0 223 -168
l-113 -54q-15 61 -41 89t-73 28t-75 -24.5t-28 -65.5q0 -23 10.5 -47t38.5 -65l9 -12h192v-87h-147q10 -33 10 -70q0 -40 -14 -79q25 -14 46.5 -21.5t46.5 -7.5q38 0 55.5 21.5t16.5 67.5l88 -8q2 -18 2 -27zM237 88q-40 21 -74 21q-21 0 -32 -7.5t-11 -20.5q0 -15 12 -23
t31 -8q50 0 74 38z" />
    <glyph glyph-name="uni20BA" unicode="&#x20ba;" horiz-adv-x="688" 
d="M648 290q-4 -142 -73.5 -216t-201.5 -74h-213v262l-113 -32v60l113 32v84l-113 -32v61l113 32v193h136v-155l188 53v-60l-188 -54v-83l188 53v-61l-188 -53v-193h62q78 0 117.5 44.5t39.5 138.5h133z" />
    <glyph glyph-name="uni20BD" unicode="&#x20bd;" horiz-adv-x="672" 
d="M264 267v-66h180v-93h-180v-108h-135v108h-88v93h88v66h-88v99h88v294h262q117 0 180 -51t63 -146q0 -94 -63 -145t-180 -51h-127zM264 366h106q64 0 94 22.5t30 70.5t-30 70.5t-94 22.5h-106v-186z" />
    <glyph glyph-name="yen" unicode="&#xa5;" horiz-adv-x="657" 
d="M463 302h123v-60h-193v-69h193v-57h-193v-116h-129v116h-192v57h192v69h-192v60h122l54 -4l-223 362h145l112 -220l46 -101h2l45 102l112 219h145l-223 -362z" />
    <glyph glyph-name="cent.tf" 
d="M478.5 38.5q-49.5 -39.5 -129.5 -46.5v-92h-80v93q-103 12 -158.5 79t-55.5 178t56 178.5t158 79.5v92h80v-92q81 -7 127 -45.5t61 -99.5l-109 -43q-16 75 -79 94v-329q67 17 85 93l105 -36q-11 -64 -60.5 -103.5zM269 87v326q-92 -24 -92 -164q0 -137 92 -162z" />
    <glyph glyph-name="currency.tf" 
d="M485 218l95 -86l-82 -81l-88 95q-47 -26 -108 -26t-110 27l-88 -96l-80 81l93 87q-28 50 -28 110q0 61 29 111l-94 86l80 81l89 -95q47 26 109 26q59 0 110 -27l86 96l82 -81l-94 -88q28 -48 28 -109q0 -62 -29 -111zM374 252.5q28 29.5 28 76.5t-28 76.5t-72 29.5
t-72.5 -29.5t-28.5 -76.5t28.5 -76.5t72.5 -29.5t72 29.5z" />
    <glyph glyph-name="dollar.tf" 
d="M462.5 338q43.5 -18 72.5 -54.5t29 -95.5q0 -78 -57 -127.5t-151 -58.5v-94h-87v94q-166 13 -235 141l85 76q14 -46 55.5 -77t94.5 -41v180q-63 14 -106.5 32t-72.5 54t-29 95q0 78 55.5 132t152.5 64v94h87v-94q74 -6 121.5 -36.5t91.5 -89.5l-79 -80q-23 49 -55.5 74.5
t-78.5 32.5v-189q63 -14 106.5 -32zM200 421.5q24 -18.5 69 -31.5v168q-46 -7 -69.5 -29.5t-23.5 -57.5q0 -31 24 -49.5zM450 181q0 32 -24 50t-70 30v-161q94 12 94 81z" />
    <glyph glyph-name="Euro.tf" 
d="M586 170q-17 -84 -79.5 -132t-154.5 -48q-99 0 -163.5 57.5t-87.5 163.5h-85v73h75q-2 30 -2 46v24h-73v73h81q20 115 88 179t172 64q92 0 146.5 -37.5t73.5 -114.5l-106 -50q-6 49 -34.5 74.5t-74.5 25.5q-52 0 -89.5 -36.5t-53.5 -104.5h190l-19 -73h-180q-1 -8 -1 -24
t2 -46h163l-20 -73h-130q17 -57 50 -88t80 -31q53 0 85.5 28t39.5 82z" />
    <glyph glyph-name="florin.tf" 
d="M415 548l-24 -137h156v-101h-174l-49 -272q-14 -81 -62 -123.5t-126 -42.5q-36 0 -58.5 5.5t-47.5 20.5l19 94q26 -19 65 -19q37 0 59.5 20.5t29.5 59.5l46 257h-147v101h165l28 152q15 82 62.5 124.5t125.5 42.5q36 0 58 -5.5t47 -20.5l-18 -94q-29 19 -65 19
q-75 0 -90 -81z" />
    <glyph glyph-name="uni20BA.tf" 
d="M572 279q-3 -135 -67.5 -207t-188.5 -72h-191v263l-111 -32v61l111 31v84l-111 -31v60l111 32v192h131v-155l188 53v-60l-188 -54v-83l188 53v-61l-188 -53v-196h46q149 0 149 175h121z" />
    <glyph glyph-name="uni20BD.tf" 
d="M241 266v-65h185v-92h-185v-109h-129v109h-71v92h71v65h-71v98h71v296h235q112 0 174.5 -53t62.5 -145q0 -94 -62 -145t-175 -51h-106zM241 364h93q60 0 87 22.5t27 71.5q0 50 -27 72.5t-87 22.5h-93v-189z" />
    <glyph glyph-name="sterling.tf" 
d="M531 37.5q-34 -47.5 -102 -47.5q-40 0 -72.5 15t-71.5 42q-54 -57 -136 -57q-52 0 -84 24.5t-32 65.5t34 66.5t89 25.5q46 0 86 -14v9q0 27 -7.5 51.5t-24.5 53.5h-153v82h95q-23 35 -32.5 62t-9.5 56q0 55 26.5 100t76.5 71.5t118 26.5q88 0 139 -41t71 -126l-111 -49
q-11 57 -36 84t-69 27t-69.5 -24.5t-25.5 -67.5q0 -24 9.5 -47t36.5 -63l6 -9h187v-82h-143q13 -35 13 -83q-2 -43 -14 -76q21 -13 40 -20t42 -7q35 0 50.5 21t14.5 68l91 -8q2 -82 -32 -129.5zM225 88q-38 21 -70 21q-40 0 -40 -28q0 -15 11 -23t30 -8q47 0 69 38z" />
    <glyph glyph-name="yen.tf" 
d="M429 302h115v-60h-179v-69h179v-57h-179v-116h-126v116h-178v57h178v69h-178v60h114l45 -2l-199 360h135l106 -221l39 -102h2l39 102l106 221h135l-199 -360z" />
    <glyph glyph-name="approxequal" unicode="&#x2248;" 
d="M249.5 510q28.5 -9 66.5 -26q30 -15 53 -22.5t45 -7.5q37 0 67.5 11.5t64.5 41.5v-106q-57 -53 -129 -53q-29 0 -55 8.5t-64 25.5q-38 16 -60.5 23.5t-47.5 7.5q-43 0 -72 -12.5t-60 -41.5v107q34 29 62.5 41t69.5 12q31 0 59.5 -9zM249.5 288q28.5 -9 66.5 -26
q32 -14 54 -21.5t44 -7.5q38 0 68.5 11t63.5 42v-106q-57 -53 -129 -53q-29 0 -55 8.5t-64 25.5q-38 16 -60.5 23.5t-47.5 7.5q-43 0 -72 -12.5t-60 -41.5v107q33 29 61.5 40.5t70.5 11.5q31 0 59.5 -9z" />
    <glyph glyph-name="asciitilde" unicode="~" horiz-adv-x="576" 
d="M490.5 277.5q-37.5 -45.5 -106.5 -45.5q-35 0 -59.5 10.5t-53.5 30.5q-21 14 -34.5 20.5t-28.5 6.5q-44 0 -53 -65h-112q11 178 150 178q34 0 58.5 -10.5t53.5 -30.5q20 -14 34.5 -20.5t29.5 -6.5q43 0 52 65h112q-5 -87 -42.5 -132.5z" />
    <glyph glyph-name="divide" unicode="&#xf7;" 
d="M361.5 586.5q21.5 -20.5 21.5 -56.5q0 -35 -21.5 -55.5t-58.5 -20.5t-58.5 20.5t-21.5 55.5q0 36 21.5 56.5t58.5 20.5t58.5 -20.5zM551 270h-498v104h498v-104zM361.5 170.5q21.5 -20.5 21.5 -55.5q0 -36 -21.5 -56.5t-58.5 -20.5t-58.5 20.5t-21.5 56.5q0 35 21.5 55.5
t58.5 20.5t58.5 -20.5z" />
    <glyph glyph-name="equal" unicode="=" 
d="M540 366h-476v102h476v-102zM540 156h-476v101h476v-101z" />
    <glyph glyph-name="uni208C" unicode="&#x208c;" horiz-adv-x="397" 
d="M54 120h289v-76h-289v76zM54 -24h289v-76h-289v76z" />
    <glyph glyph-name="uni207C" unicode="&#x207c;" horiz-adv-x="397" 
d="M54 642h289v-76h-289v76zM54 498h289v-76h-289v76z" />
    <glyph glyph-name="greater" unicode="&#x3e;" 
d="M538 361v-127l-485 -220v132l389 152l-389 151v133z" />
    <glyph glyph-name="greaterequal" unicode="&#x2265;" 
d="M540 476v-157l-486 -170v121l412 128l-412 127v122zM54 105h486v-105h-486v105z" />
    <glyph glyph-name="infinity" unicode="&#x221e;" horiz-adv-x="921" 
d="M818.5 462q51.5 -54 51.5 -164t-52.5 -164t-138.5 -54q-59 0 -110 30.5t-122 104.5q-55 -60 -88 -88t-60.5 -37.5t-67.5 -9.5q-77 0 -128.5 54.5t-51.5 163.5t51.5 163.5t129.5 54.5q61 0 116 -28.5t127 -104.5q55 60 91.5 88.5t62.5 36.5t60 8q78 0 129.5 -54zM743 246
q21 28 21 78q0 49 -20 77t-54 28q-21 0 -38 -7.5t-44 -31.5t-73 -76q48 -52 82.5 -74t68.5 -22q36 0 57 28zM270.5 175.5q16.5 7.5 42 31.5t72.5 76q-52 55 -83 75t-65 20q-35 0 -57.5 -27t-22.5 -78q0 -50 21.5 -77.5t54.5 -27.5q21 0 37.5 7.5z" />
    <glyph glyph-name="integral" unicode="&#x222b;" horiz-adv-x="471" 
d="M413 751q24 -7 44 -21l-13 -94q-28 21 -67 21q-35 0 -56 -19t-21 -59v-538q0 -81 -49.5 -125t-128.5 -44q-39 0 -63 7t-45 21l13 94q30 -21 67 -21q35 0 56 19t21 59v538q0 81 50 125t129 44q39 0 63 -7z" />
    <glyph glyph-name="less" unicode="&#x3c;" 
d="M551 449l-389 -151l389 -152v-132l-485 220v127l485 221v-133z" />
    <glyph glyph-name="lessequal" unicode="&#x2264;" 
d="M550 525l-412 -127l412 -128v-121l-486 170v157l486 171v-122zM64 105h486v-105h-486v105z" />
    <glyph glyph-name="logicalnot" unicode="&#xac;" 
d="M545 374v-264h-116v160h-370v104h486z" />
    <glyph glyph-name="minus" unicode="&#x2212;" 
d="M545 267h-486v109h486v-109z" />
    <glyph glyph-name="uni208B" unicode="&#x208b;" horiz-adv-x="349" 
d="M30 46h289v-76h-289v76z" />
    <glyph glyph-name="uni207B" unicode="&#x207b;" horiz-adv-x="349" 
d="M30 568h289v-76h-289v76z" />
    <glyph glyph-name="multiply" unicode="&#xd7;" 
d="M379 323l160 -160l-77 -78l-160 160l-160 -160l-78 78l160 160l-160 160l78 78l160 -160l160 160l77 -78z" />
    <glyph glyph-name="notequal" unicode="&#x2260;" 
d="M379 373l-58 -123h224v-98h-270l-52 -111h-97l52 111h-119v98h165l58 123h-223v98h269l54 115h97l-54 -115h120v-98h-166z" />
    <glyph glyph-name="partialdiff" unicode="&#x2202;" horiz-adv-x="645" 
d="M511.5 584q70.5 -86 70.5 -247q0 -347 -283 -347q-66 0 -119.5 26.5t-84.5 76t-31 116.5q0 65 30.5 114.5t82.5 76.5t115 27q55 0 96.5 -22.5t66.5 -65.5q-4 116 -47.5 167.5t-122.5 51.5q-43 0 -75 -13t-63 -44l-61 90q49 41 99 60t116 19q140 0 210.5 -86zM448 228
q-14 43 -47.5 70t-86.5 27q-52 0 -81 -30t-29 -83t28.5 -83t83.5 -30q107 0 132 129z" />
    <glyph glyph-name="percent" unicode="%" horiz-adv-x="908" 
d="M338 619q48 -51 48 -135t-48 -135t-128 -51q-79 0 -127.5 51t-48.5 135t48.5 135t127.5 51q80 0 128 -51zM622 660h110l-445 -660h-110zM158 551q-18 -24 -18 -67t18 -66.5t52 -23.5t52 23.5t18 66.5t-18 67t-52 24t-52 -24zM825.5 311q48.5 -51 48.5 -135t-48.5 -135
t-127.5 -51q-80 0 -128 51t-48 135t48 135t128 51q79 0 127.5 -51zM646 242.5q-18 -23.5 -18 -66.5t18 -67t52 -24t52 24t18 67t-18 66.5t-52 23.5t-52 -23.5z" />
    <glyph glyph-name="perthousand" unicode="&#x2030;" horiz-adv-x="1315" 
d="M338 619q48 -51 48 -135t-48 -135t-128 -51q-79 0 -127.5 51t-48.5 135t48.5 135t127.5 51q80 0 128 -51zM622 660h110l-445 -660h-110zM158 551q-18 -24 -18 -67t18 -66.5t52 -23.5t52 23.5t18 66.5t-18 67t-52 24t-52 -24zM825.5 311q48.5 -51 48.5 -135t-48.5 -135
t-127.5 -51q-80 0 -128 51t-48 135t48 135t128 51q79 0 127.5 -51zM1232.5 311q48.5 -51 48.5 -135t-48.5 -135t-127.5 -51q-80 0 -128 51t-48 135t48 135t128 51q79 0 127.5 -51zM646 242.5q-18 -23.5 -18 -66.5t18 -67t52 -24t52 24t18 67t-18 66.5t-52 23.5t-52 -23.5z
M1053 242.5q-18 -23.5 -18 -66.5t18 -67t52 -24t52 24t18 67t-18 66.5t-52 23.5t-52 -23.5z" />
    <glyph glyph-name="plus" unicode="+" 
d="M550 270h-191v-207h-113v207h-192v104h192v206h113v-206h191v-104z" />
    <glyph glyph-name="uni208A" unicode="&#x208a;" horiz-adv-x="349" 
d="M325 -27h-111v-115h-78v115h-111v72h111v114h78v-114h111v-72z" />
    <glyph glyph-name="plusminus" unicode="&#xb1;" 
d="M550 461v-102h-195v-185h-105v185h-196v102h196v187h105v-187h195zM54 100h496v-100h-496v100z" />
    <glyph glyph-name="uni207A" unicode="&#x207a;" horiz-adv-x="349" 
d="M325 495h-111v-115h-78v115h-111v72h111v114h78v-114h111v-72z" />
    <glyph glyph-name="product" unicode="&#x220f;" horiz-adv-x="698" 
d="M623 -128h-130v677h-287v-677h-131v788h548v-788z" />
    <glyph glyph-name="radical" unicode="&#x221a;" horiz-adv-x="682" 
d="M708 818l-320 -818h-136l-133 332h-102v109h175l95 -237l34 -106l37 113l230 607h120z" />
    <glyph glyph-name="summation" unicode="&#x2211;" horiz-adv-x="660" 
d="M600 552h-389l282 -273v-24l-283 -279h390v-104h-543v104l290 291l-290 285v108h543v-108z" />
    <glyph glyph-name="uni00B5" unicode="&#xb5;" horiz-adv-x="615" 
d="M547 500v-500h-119l-6 89q-45 -99 -164 -99q-26 0 -52 8v-208h-137v710h137v-296q0 -58 21.5 -82t65.5 -24q50 0 80.5 28t36.5 79v295h137z" />
    <glyph glyph-name="uni2126" unicode="&#x2126;" horiz-adv-x="776" 
d="M713 98v-98h-279v98q64 14 98 72t34 158q0 109 -47 169t-131 60t-130.5 -59.5t-46.5 -169.5q0 -100 33.5 -158t97.5 -72v-98h-279v98h148q-67 36 -103.5 98.5t-36.5 147.5q0 100 38.5 173.5t110 113t168.5 39.5t168.5 -39.5t110 -113t38.5 -173.5q0 -85 -36.5 -147.5
t-103.5 -98.5h148z" />
    <glyph glyph-name="uni2206" unicode="&#x2206;" horiz-adv-x="721" 
d="M681 91v-91h-641v91l248 569h145zM153 101h414l-207 474z" />
    <glyph glyph-name="uni2215" unicode="&#x2215;" horiz-adv-x="258" 
d="M315 660h104l-476 -660h-105z" />
    <glyph glyph-name="uni2219" unicode="&#x2219;" horiz-adv-x="256" 
d="M192.5 401q23.5 -22 23.5 -59t-23.5 -59t-63.5 -22t-63.5 21.5t-23.5 59.5t23.5 59.5t63.5 21.5t63.5 -22z" />
    <glyph glyph-name="arrowup" unicode="&#x2191;" horiz-adv-x="750" 
d="M518 511.5q80 -69.5 197 -140.5l-75 -104q-133 88 -210 196q13 -89 13 -184v-279h-137v279q0 102 12 184q-77 -108 -210 -196l-75 104q118 70 197 140t141 155h6q61 -85 141 -154.5z" />
    <glyph glyph-name="uni2197" unicode="&#x2197;" horiz-adv-x="750" 
d="M618 343q0 -124 18 -224l-123 -7q-6 54 -6 106q0 105 21 202q-57 -71 -134 -146l-198 -198l-89 88l198 199q71 73 147 134q-99 -21 -207 -21q-45 0 -102 5l7 124q101 -18 227 -18q122 0 255 18l4 -4q-18 -134 -18 -258z" />
    <glyph glyph-name="arrowright" unicode="&#x2192;" horiz-adv-x="750" 
d="M564.5 475q69.5 -80 154.5 -141v-6q-85 -62 -155 -141t-140 -197l-104 75q88 133 196 210q-94 -12 -184 -12h-279v137h279q95 0 184 -13q-108 77 -196 210l104 75q71 -117 140.5 -197z" />
    <glyph glyph-name="uni2198" unicode="&#x2198;" horiz-adv-x="750" 
d="M612 348q0 -122 18 -255l-5 -4q-134 18 -258 18q-123 0 -223 -18l-7 124q57 5 102 5q107 0 207 -21q-61 47 -148 134l-197 198l88 89l198 -198q78 -76 135 -147q-21 100 -21 207q0 45 5 102l124 -7q-18 -101 -18 -227z" />
    <glyph glyph-name="arrowdown" unicode="&#x2193;" horiz-adv-x="750" 
d="M717 289q-117 -71 -197 -140.5t-141 -154.5h-6q-62 85 -141 155t-197 140l75 104q133 -88 210 -196q-12 94 -12 184v279h137v-279q0 -95 -13 -183q78 108 210 195z" />
    <glyph glyph-name="uni2199" unicode="&#x2199;" horiz-adv-x="750" 
d="M511 218q45 0 102 -5l-7 -124q-100 18 -223 18q-124 0 -258 -18l-5 4q18 133 18 255q0 126 -18 227l124 7q5 -57 5 -102q0 -107 -21 -207q57 71 135 147l198 198l88 -89l-197 -198q-87 -87 -148 -134q100 21 207 21z" />
    <glyph glyph-name="arrowleft" unicode="&#x2190;" horiz-adv-x="750" 
d="M418 263q-90 0 -184 12q108 -77 196 -210l-104 -75q-70 118 -140 197t-155 141v6q85 61 154.5 141t140.5 197l104 -75q-88 -133 -196 -210q89 13 184 13h279v-137h-279z" />
    <glyph glyph-name="uni2196" unicode="&#x2196;" horiz-adv-x="750" 
d="M643 164l-89 -88l-198 198q-77 75 -134 146q21 -99 21 -206q0 -45 -5 -102l-124 7q18 100 18 224t-18 258l4 4q133 -18 255 -18q126 0 227 18l7 -124q-57 -5 -102 -5q-108 0 -207 21q61 -48 147 -134z" />
    <glyph glyph-name="arrowboth" unicode="&#x2194;" horiz-adv-x="1085" 
d="M899 493.5q70 -79.5 155 -141.5v-6q-85 -62 -155 -141t-140 -196l-108 68q90 135 199 216q-82 -12 -159 -12h-298q-77 0 -158 12q112 -83 199 -216l-108 -68q-70 117 -140 196t-155 141v6q85 62 155 141.5t140 196.5l108 -68q-90 -136 -198 -216q81 12 157 12h298
q77 0 158 -12q-108 80 -198 216l108 68q70 -117 140 -196.5z" />
    <glyph glyph-name="arrowupdn" unicode="&#x2195;" horiz-adv-x="750" 
d="M647 222l68 -108q-117 -71 -196.5 -140.5t-141.5 -154.5h-6q-61 85 -140 154.5t-197 140.5l68 108q138 -91 215 -199q-11 75 -11 158v298q0 83 11 158q-77 -108 -215 -199l-68 108q118 71 197 140.5t140 154.5h6q62 -85 141.5 -154.5t196.5 -140.5l-68 -108
q-136 89 -216 199q12 -82 12 -158v-298q0 -76 -12 -158q80 110 216 199z" />
    <glyph glyph-name="uni25CF" unicode="&#x25cf;" horiz-adv-x="600" 
d="M167.5 24q-59.5 34 -93.5 93.5t-34 132.5t34 132.5t93.5 93.5t132.5 34t132.5 -34t93.5 -93.5t34 -132.5t-34 -132.5t-93.5 -93.5t-132.5 -34t-132.5 34z" />
    </font>
</defs>
</svg>
